<svg width="132" height="59" viewBox="0 0 85 38" fill="none" xmlns="http://www.w3.org/2000/svg">
    <path d="M33.2037 24.6374L29.0226 10.0177H23.2031L29.3241 28.8015H31.1615L28.0612 38H33.9831L43.3636 10.0177H37.5043L33.2037 24.6374Z" fill="#0A23B9"></path>
    <path d="M58.7237 10.0177L54.2012 22.7204L49.7015 10.0177H43.9219L51.2261 28.3976H57.182L64.4806 10.0177H58.7237Z" fill="#0A23B9"></path>
    <path d="M78.8053 11.2407C77.3681 10.2418 75.6831 9.65891 73.9359 9.55609C72.1887 9.45326 70.447 9.83454 68.9025 10.6579C67.358 11.4813 66.0707 12.7149 65.1823 14.2229C64.2938 15.7309 63.8387 17.4548 63.867 19.2048C63.8428 20.4651 64.07 21.7177 64.5353 22.8892C65.0006 24.0608 65.6947 25.1279 66.577 26.0282C67.4593 26.9285 68.5121 27.644 69.6741 28.1329C70.836 28.6217 72.0837 28.8742 73.3442 28.8755C75.2989 28.8961 77.2102 28.2988 78.8053 27.1689V28.409H84.1014V10.0177H78.8053V11.2407ZM78.464 21.8216C77.9002 22.7116 77.0627 23.3946 76.0773 23.7677C75.092 24.1407 74.0121 24.1838 73.0002 23.8903C71.9883 23.5968 71.099 22.9826 70.4662 22.1402C69.8335 21.2978 69.4913 20.2726 69.4913 19.219C69.4913 18.1654 69.8335 17.1403 70.4662 16.2979C71.099 15.4554 71.9883 14.8413 73.0002 14.5478C74.0121 14.2543 75.092 14.2973 76.0773 14.6704C77.0627 15.0434 77.9002 15.7264 78.464 16.6165V21.8216Z" fill="#0A23B9"></path>
    <path d="M14.3751 9.53982C12.3311 9.55062 10.3528 10.2636 8.77186 11.5593V0H1.7976L0 5.35868H3.41317V28.3976H9.03353V16.7587C9.48774 16.0492 10.1114 15.464 10.8483 15.0558C11.5852 14.6477 12.4121 14.4294 13.2545 14.4207C15.6551 14.4207 17.4129 15.8201 17.4129 19.5404V28.3976H23.0105V19.5177C23.0105 12.3386 18.7725 9.53982 14.3751 9.53982Z" fill="#0A23B9"></path>
    <path d="M75.9094 0H69.7429L67.9453 5.35868H74.1061L75.9094 0Z" fill="#0A23B9"></path>
    <path d="M84.1008 0H77.9343L76.1367 5.35868H82.2975L84.1008 0Z" fill="#0A23B9"></path>
</svg>