<svg width="157" height="218" viewBox="0 0 157 218" fill="none" xmlns="http://www.w3.org/2000/svg">
<path d="M77.7026 28.1151C94.2999 28.1151 99.7558 12.0544 99.7558 12.0544C99.7558 12.0544 87.4845 9.00152 77.4372 9.00152C67.3632 9.00152 55.7656 12.287 55.7656 12.287C55.7656 12.287 61.1291 28.1151 77.7026 28.1151Z" fill="#1E1E1E"/>
<path d="M78.7159 148.031C45.5869 148.329 18.3908 121.47 18.0778 88.1411C17.9525 74.3672 22.4455 61.6099 30.0897 51.3689C26.6134 48.152 22.1712 43.4265 18.1911 37.2819C6.71575 51.1095 -0.132463 68.9143 0.0464195 88.3051C0.445923 131.624 35.805 166.575 78.8858 166.173C84.0794 166.122 89.0821 165.239 93.2024 164.268L92.6568 146.698C89.3952 147.712 84.0794 147.971 78.7159 148.031Z" fill="#1E1E1E"/>
<path d="M125.531 50.4768C133.375 60.5777 138.118 73.2485 138.241 87.0105C138.378 101.876 134.976 112.632 128.697 117.313C124.559 120.363 120.066 120.107 118.069 119.478C117.034 119.126 116.274 118.637 115.675 118.067C122.478 109.615 126.512 98.8406 126.402 87.1358C126.25 71.3375 118.596 57.3638 106.895 48.6075C108.075 47.8621 109.214 47.0482 110.332 46.2134C125.03 34.4907 130.251 20.1533 132.078 10.6427C132.609 7.45261 132.874 4.1731 132.847 0.830982L114.828 1.00389C114.828 1.00389 116.131 31.2768 86.6063 37.8656C83.7561 38.599 80.7807 39.0104 77.704 39.0373C72.9457 39.085 68.3872 38.2144 64.1924 36.6104C46.8706 30.7878 41.8857 16.2119 40.4636 7.84912C40.4487 7.79548 40.4487 7.74181 40.4368 7.68218C40.3384 7.0859 40.252 6.52242 40.1864 5.99173C40.1774 5.87249 40.1625 5.74726 40.1446 5.62502C39.8644 3.20713 39.8972 1.69558 39.8972 1.69558L21.8658 1.87743C21.9493 10.8633 24.1764 19.3483 28.0015 26.8524C31.922 34.285 38.32 42.281 48.7131 49.1531C37.1573 58.133 29.7366 72.2408 29.8857 88.0272C30.1391 114.383 51.3248 135.675 77.3611 136.102V117.966C61.1872 117.537 48.084 104.261 47.935 87.8662C47.7829 71.093 61.22 57.3369 77.8888 57.1819C94.5338 57.0299 108.218 70.5295 108.367 87.2968C108.466 97.2396 103.767 106.136 96.4568 111.762C96.3674 113.339 95.9857 126.257 107.011 134.164C108.642 135.19 110.499 136.075 112.628 136.77C119.479 138.964 130.099 138.821 139.427 131.919C147.239 126.099 156.517 113.56 156.278 86.8615C156.096 67.575 148.995 49.9729 137.367 36.3958C133.429 42.5135 129.019 47.248 125.531 50.4768Z" fill="#1E1E1E"/>
<path d="M2.50665 188.326C1.82679 188.326 1.25631 188.563 0.77166 189.053C0.280277 189.543 0.0429993 190.113 0.0429993 190.795C0.0429993 191.5 0.280277 192.077 0.768294 192.555C1.25799 193.033 1.83184 193.265 2.5117 193.265H5.38932C5.62659 193.265 5.86555 193.427 5.86555 193.784V214.694C5.86555 215.383 6.10452 215.953 6.59085 216.441C7.54333 217.4 9.0932 217.437 10.0844 216.441C10.5707 215.95 10.808 215.381 10.808 214.694V193.784C10.808 193.427 11.0486 193.265 11.2842 193.265H14.1619C14.8434 193.265 15.4139 193.033 15.9069 192.555C16.395 192.077 16.6339 191.5 16.6339 190.795C16.6339 190.117 16.395 189.548 15.9019 189.053C15.4172 188.563 14.8484 188.326 14.1686 188.326H2.50665Z" fill="#1E1E1E"/>
<path d="M37.6688 207.282H34.1029L33.7798 207.012L33.7714 206.666L35.6141 200.375L36.1206 200.295L36.3428 200.529L38.1905 206.792L37.9499 207.235L37.6688 207.282ZM32.7533 211.948H39.1598C39.4055 211.948 39.599 212.084 39.6949 212.32L40.6138 215.408C40.9554 216.593 41.7328 217.168 42.9815 217.168C43.6647 217.168 44.2335 216.936 44.7198 216.456C45.2112 215.977 45.4502 215.398 45.4502 214.691C45.4502 214.454 45.4233 214.208 45.3728 213.951L38.3504 190.124C37.9869 188.915 37.2027 188.326 35.9591 188.326C34.739 188.326 33.9734 188.929 33.6099 190.171L26.579 213.984C26.5117 214.23 26.4781 214.469 26.4781 214.698C26.4781 215.406 26.7137 215.982 27.2034 216.458C27.688 216.938 28.2585 217.168 28.9417 217.168C30.1921 217.168 30.9678 216.593 31.3094 215.41L32.2081 212.344C32.3141 212.081 32.511 211.948 32.7533 211.948Z" fill="#1E1E1E"/>
<path d="M57.7728 187.688C57.0862 187.688 56.5208 187.925 56.0277 188.417C55.5414 188.91 55.3008 189.479 55.3008 190.157V209.218C55.3008 211.249 56.0328 213.004 57.4666 214.44C58.9037 215.877 60.6471 216.606 62.6513 216.606H64.5815C66.5824 216.606 68.3275 215.877 69.7646 214.44C71.2 213.004 71.9287 211.249 71.9287 209.218V190.157C71.9287 189.475 71.6897 188.905 71.2017 188.417C70.2173 187.432 68.6893 187.442 67.72 188.415C67.2286 188.905 66.9879 189.475 66.9879 190.157V209.218C66.9879 209.874 66.7524 210.452 66.2862 210.935C65.815 211.421 65.2445 211.663 64.5815 211.663H62.6513C61.9933 211.663 61.4178 211.421 60.95 210.935C60.4805 210.453 60.2449 209.876 60.2449 209.218V190.157C60.2449 189.479 60.0059 188.91 59.5129 188.415C59.0248 187.925 58.4561 187.688 57.7728 187.688Z" fill="#1E1E1E"/>
<path d="M93.558 199.567H89.7363C89.3829 199.567 89.2197 199.323 89.2197 199.084V193.071C89.2197 192.758 89.4233 192.553 89.7363 192.553H93.558C94.2143 192.553 94.7831 192.793 95.2559 193.265C95.7305 193.739 95.9627 194.328 95.9627 195.011V197.145C95.9627 197.802 95.7305 198.377 95.2593 198.85C94.7831 199.325 94.2143 199.567 93.558 199.567ZM89.7363 204.504H91.7338C92.0165 204.504 92.2269 204.662 92.3127 204.937L96.1243 214.87C96.5332 215.936 97.2871 216.456 98.4281 216.456C99.113 216.456 99.6834 216.218 100.178 215.729C100.666 215.241 100.905 214.67 100.905 213.985C100.905 213.694 100.848 213.4 100.734 213.107L97.2905 204.016C97.1962 203.767 97.2602 203.527 97.4705 203.377C99.7861 201.892 100.905 199.856 100.905 197.133V195.011C100.905 192.98 100.173 191.222 98.7394 189.785C97.3039 188.344 95.5572 187.614 93.558 187.614H86.7476C86.0745 187.614 85.4889 187.858 85.0093 188.342C84.5179 188.83 84.2772 189.404 84.2772 190.086V213.982C84.2772 214.668 84.5179 215.239 85.0059 215.727C85.9735 216.7 87.515 216.701 88.4893 215.727C88.9824 215.232 89.2197 214.662 89.2197 213.977V204.984C89.2197 204.745 89.3829 204.504 89.7363 204.504Z" fill="#1E1E1E"/>
<path d="M113.184 187.626C112.498 187.626 111.931 187.864 111.446 188.353C110.948 188.843 110.712 189.414 110.712 190.095V209.156C110.712 211.188 111.443 212.943 112.881 214.378C114.314 215.815 116.059 216.544 118.06 216.544H119.99C121.994 216.544 123.737 215.815 125.174 214.378C126.612 212.943 127.34 211.188 127.34 209.156V190.095C127.34 189.417 127.105 188.848 126.612 188.353C125.637 187.377 124.114 187.372 123.126 188.355C122.638 188.848 122.398 189.417 122.398 190.095V209.156C122.398 209.816 122.161 210.395 121.691 210.873C121.22 211.359 120.651 211.602 119.99 211.602H118.06C117.403 211.602 116.833 211.359 116.362 210.873C115.889 210.39 115.653 209.813 115.653 209.156V190.095C115.653 189.414 115.414 188.843 114.926 188.355C114.436 187.864 113.866 187.626 113.184 187.626Z" fill="#1E1E1E"/>
<path d="M142.058 207.768C141.351 207.768 140.762 207.998 140.267 208.476C139.774 208.949 139.535 209.523 139.535 210.226C139.535 211.909 140.343 213.414 141.936 214.706C143.443 215.966 145.093 216.601 146.842 216.601H148.78C150.79 216.601 152.542 215.874 153.987 214.442C155.429 213.008 156.16 211.244 156.16 209.196V208.064C156.16 206.031 155.508 204.222 154.224 202.689C152.939 201.153 151.279 200.202 149.29 199.864L147.249 199.525C146.448 199.386 145.78 199.002 145.26 198.383C144.74 197.767 144.476 197.035 144.476 196.208V195.036C144.476 194.349 144.713 193.758 145.186 193.279C145.661 192.792 146.234 192.548 146.897 192.548H148.838C149.413 192.548 149.938 192.742 150.393 193.127C150.854 193.508 151.128 194.006 151.222 194.611C151.333 195.29 151.66 195.821 152.222 196.235C152.791 196.644 153.418 196.782 154.081 196.675C154.771 196.559 155.308 196.234 155.725 195.672C156.133 195.115 156.276 194.514 156.166 193.831C155.874 192.045 155.032 190.546 153.657 189.373C152.291 188.202 150.672 187.608 148.855 187.608H146.916C144.903 187.608 143.15 188.341 141.713 189.79C140.267 191.241 139.535 193.003 139.535 195.034V196.203C139.535 198.218 140.185 200.018 141.474 201.56C142.754 203.098 144.41 204.049 146.401 204.389L148.442 204.725C149.243 204.863 149.908 205.252 150.436 205.881C150.958 206.509 151.217 207.243 151.217 208.062V209.19C151.217 209.87 150.982 210.455 150.51 210.935C150.036 211.418 149.459 211.66 148.796 211.66H146.855C145.551 211.66 144.728 210.984 144.479 209.703C144.363 209.121 144.08 208.663 143.614 208.305C143.143 207.944 142.633 207.768 142.058 207.768Z" fill="#1E1E1E"/>
</svg>
