<svg xmlns="http://www.w3.org/2000/svg" xmlns:xlink="http://www.w3.org/1999/xlink" version="1.1" viewBox="0 0 256 256" xml:space="preserve"><g style="stroke: none; stroke-width: 0; stroke-dasharray: none; stroke-linecap: butt; stroke-linejoin: miter; stroke-miterlimit: 10; fill: none; fill-rule: nonzero; opacity: 1;" transform="translate(1.4065934065934016 1.4065934065934016) scale(2.81 2.81)"><path d="M 75.15 0 h -60.3 C 9.765 0 5.625 4.14 5.625 9.27 v 60.84 c 0 5.13 4.14 9.27 9.225 9.27 h 51.03 l -2.385 -8.325 l 5.76 5.355 l 5.445 5.04 L 84.375 90 V 9.27 C 84.375 4.14 80.235 0 75.15 0 z" style="stroke: none; stroke-width: 1; stroke-dasharray: none; stroke-linecap: butt; stroke-linejoin: miter; stroke-miterlimit: 10; fill-rule: nonzero; opacity: 1;" transform=" matrix(1 0 0 1 0 0) " stroke-linecap="round"/><path d="M 57.78 58.77 c 0 0 -1.62 -1.935 -2.97 -3.645 c 5.895 -1.665 8.145 -5.355 8.145 -5.355 c -1.845 1.215 -3.6 2.07 -5.175 2.655 C 55.53 53.37 53.37 54 51.255 54.36 c -4.32 0.81 -8.28 0.585 -11.655 -0.045 c -2.565 -0.495 -4.77 -1.215 -6.615 -1.935 c -1.035 -0.405 -2.16 -0.9 -3.285 -1.53 c -0.135 -0.09 -0.27 -0.135 -0.405 -0.225 c -0.09 -0.045 -0.135 -0.09 -0.18 -0.135 c -0.81 -0.45 -1.26 -0.765 -1.26 -0.765 s 2.16 3.6 7.875 5.31 c -1.35 1.71 -3.015 3.735 -3.015 3.735 c -9.945 -0.315 -13.725 -6.84 -13.725 -6.84 c 0 -14.49 6.48 -26.235 6.48 -26.235 c 6.48 -4.86 12.645 -4.725 12.645 -4.725 l 0.45 0.54 c -8.1 2.34 -11.835 5.895 -11.835 5.895 s 0.99 -0.54 2.655 -1.305 c 4.815 -2.115 8.64 -2.7 10.215 -2.835 c 0.27 -0.045 0.495 -0.09 0.765 -0.09 c 2.745 -0.36 5.85 -0.45 9.09 -0.09 C 53.73 23.58 58.32 24.84 63 27.405 c 0 0 -3.555 -3.375 -11.205 -5.715 l 0.63 -0.72 c 0 0 6.165 -0.135 12.645 4.725 c 0 0 6.48 11.745 6.48 26.235 C 71.55 51.93 67.725 58.455 57.78 58.77 z" style="stroke: none; stroke-width: 1; stroke-dasharray: none; stroke-linecap: butt; stroke-linejoin: miter; stroke-miterlimit: 10; fill: rgb(255,255,255); fill-rule: nonzero; opacity: 1;" transform=" matrix(1 0 0 1 0 0) " stroke-linecap="round"/><path d="M 36.855 37.755 c -2.565 0 -4.59 2.25 -4.59 4.995 s 2.07 4.995 4.59 4.995 c 2.565 0 4.59 -2.25 4.59 -4.995 C 41.49 40.005 39.42 37.755 36.855 37.755 z M 53.28 37.755 c -2.565 0 -4.59 2.25 -4.59 4.995 s 2.07 4.995 4.59 4.995 c 2.565 0 4.59 -2.25 4.59 -4.995 S 55.845 37.755 53.28 37.755 z" style="stroke: none; stroke-width: 1; stroke-dasharray: none; stroke-linecap: butt; stroke-linejoin: miter; stroke-miterlimit: 10; fill-rule: nonzero; opacity: 1;" transform=" matrix(1 0 0 1 0 0) " stroke-linecap="round"/></g></svg>