<?xml version="1.0" encoding="utf-8"?>
<!-- Generator: Adobe Illustrator 25.2.2, SVG Export Plug-In . SVG Version: 6.00 Build 0)  -->
<svg version="1.1" id="Logo_101Media" xmlns="http://www.w3.org/2000/svg" xmlns:xlink="http://www.w3.org/1999/xlink" x="0px"
	 y="0px" viewBox="0 0 559.8 407.8" style="enable-background:new 0 0 559.8 407.8;" xml:space="preserve">
<style type="text/css">
	.st0{fill:#00CEAA;}
	.st1{fill:#1C1A20;}
</style>
<g id="_x31_01Media">
	<polygon class="st0" points="26,306.3 0,315.7 5.5,335.1 23.2,330.3 23.2,405.9 46,405.9 46,306.3 	"/>
	<path class="st0" d="M111.4,356.1c0-19.2-5.8-29.6-17.8-29.6c-11.9,0-17.8,10.4-17.8,29.6s5.8,29.6,17.8,29.6
		C105.6,385.6,111.4,375.3,111.4,356.1 M53.1,356.1c0-30.7,14.8-51.8,40.5-51.8c25.8,0,40.5,21.1,40.5,51.8s-14.8,51.8-40.5,51.8
		C67.9,407.8,53.1,386.8,53.1,356.1"/>
	<polygon class="st0" points="155.9,306.3 129.9,315.7 135.4,335.1 153.1,330.3 153.1,405.9 175.8,405.9 175.8,306.3 	"/>
	<path class="st1" d="M293.2,362.2v43.7h-21.3V364c0-7.1-3.4-11.7-10.2-11.7c-7.1,0-11.1,5-11.1,13.4v40.1h-21.3V364
		c0-7.1-3.4-11.7-10.2-11.7c-7.1,0-11.1,5-11.1,13.4v40.1h-21.3v-71.1H208v6.5c3.3-4.8,9.5-8.5,19.1-8.5c8.4,0,14.7,3.4,18.6,9.4
		c4-5.7,10.5-9.4,20.6-9.4C282.5,332.7,293.2,344.4,293.2,362.2"/>
	<path class="st1" d="M350,362.9c-2.3-8.3-8.7-11.2-15.1-11.2c-8.1,0-13.5,4-15.5,11.2H350z M336.9,388.8c5.8,0,10.8-2.3,13.7-5.4
		l17.1,9.8c-7,9.7-17.5,14.7-31,14.7c-24.3,0-39.4-16.4-39.4-37.6s15.4-37.6,37.8-37.6c20.8,0,36.1,16.1,36.1,37.6
		c0,3-0.3,5.8-0.9,8.5h-50.5C322.5,386.2,329,388.8,336.9,388.8"/>
	<path class="st1" d="M427.1,370.3c0-10.7-7.1-17.4-16.9-17.4s-16.9,6.7-16.9,17.4c0,10.7,7.1,17.4,16.9,17.4
		C420,387.6,427.1,381,427.1,370.3 M448.4,306.3v99.6h-21.3v-6.7c-4.7,5.4-11.7,8.7-21.2,8.7c-18.6,0-34-16.4-34-37.6
		s15.4-37.6,34-37.6c9.5,0,16.5,3.3,21.2,8.7v-35.1H448.4z"/>
	<path class="st1" d="M456.9,334.7h21.3v71.1h-21.3V334.7z M454.8,315.7c0-7,5.8-12.8,12.8-12.8s12.8,5.8,12.8,12.8
		s-5.8,12.8-12.8,12.8S454.8,322.6,454.8,315.7"/>
	<path class="st1" d="M538.4,370.3c0-10.7-7.1-17.4-16.9-17.4c-9.8,0-16.9,6.7-16.9,17.4s7.1,17.4,16.9,17.4
		C531.3,387.6,538.4,381,538.4,370.3 M559.8,334.7v71.1h-21.3v-6.7c-4.7,5.4-11.7,8.7-21.2,8.7c-18.6,0-34-16.4-34-37.6
		s15.4-37.6,34-37.6c9.5,0,16.5,3.3,21.2,8.7v-6.7h21.3V334.7z"/>
</g>
<g id="Beeldmerk">
	<polygon id="Groen_rechts" class="st0" points="278.4,0 278.4,57.5 353.6,100.9 353.6,101 353.6,187.7 353.6,245.2 403.4,216.4 
		403.4,72.1 	"/>
	<polygon id="Zwart_boven" class="st1" points="278.4,0 276.6,1.1 153.5,72.1 153.5,72.2 203.2,100.9 203.2,100.9 276.6,58.5 
		278.4,57.5 	"/>
	<polygon id="Zwart_onder" class="st1" points="351.8,188.8 278.4,231.1 278.4,288.6 351.8,246.2 353.6,245.2 353.6,187.7 	"/>
	<polygon id="Groen_links" class="st0" points="203.2,100.9 153.5,72.2 153.5,129.6 203.2,158.3 228.7,173 228.7,173.2 228.7,202.4 
		228.7,259.9 278.4,288.6 278.4,231.1 278.4,144.3 	"/>
</g>
</svg>
