<?xml version="1.0" encoding="UTF-8"?>
<svg viewBox="0 0 584 88" xmlns="http://www.w3.org/2000/svg">
<g fill-rule="evenodd">
<path d="M24.883.912c15.515 0 28.093 12.577 28.093 28.092 0 2.63-.37 5.248-1.098 7.775L37.325 87.312H0L24.883.912z" fill="#FF5C38"/>
<path d="M44.164.912H27.648l24.883 86.4h37.325L70.732 20.908A27.648 27.648 0 0044.164.912z" fill="#1A1A1A"/>
<path d="M137.333 71l4.638-12.393h22.696L169.304 71h11.33l-20.72-53.222H146.99L126.27 71h11.063zm23.684-22.163H145.62l7.718-20.567 7.679 20.567zm58.136 37.37V34.161h-9.694v4.068c-2.433-3.003-5.969-5.056-11.025-5.056-10.15 0-17.83 8.326-17.83 19.388 0 11.063 7.68 19.388 17.83 19.388 4.942 0 8.44-1.938 10.834-4.79v19.046h9.885zm-18.894-23.494c-5.817 0-9.504-4.524-9.504-10.15 0-5.627 3.687-10.151 9.504-10.151 5.664 0 9.504 4.334 9.504 10.15 0 5.817-3.84 10.15-9.504 10.15zm43.575 9.237c9.2 0 17.412-5.018 17.412-16.65V34.161h-9.885v20.263c0 5.893-3.269 8.288-7.527 8.288-4.296 0-7.527-2.395-7.527-8.288V34.162h-9.922V55.3c0 11.633 8.211 16.651 17.45 16.651zm29.548-43.528c3.573 0 6.349-2.737 6.349-6.31 0-3.574-2.776-6.387-6.35-6.387-3.573 0-6.31 2.813-6.31 6.386 0 3.574 2.737 6.311 6.31 6.311zM278.4 71V34.162h-9.922V71h9.922zm29.015 0l14.408-36.838H311.37l-9.618 26.384-9.542-26.384h-10.797L295.972 71h11.443zm33.198.95c6.196 0 11.518-1.748 15.7-5.588l-5.816-6.387c-2.661 2.243-6.12 3.536-9.314 3.536-4.676 0-8.402-2.32-9.466-7.641h26.117c.114-.837.19-2.205.19-3.346-.038-11.48-7.3-19.35-17.906-19.35-11.024 0-18.627 7.907-18.627 19.502 0 11.595 7.83 19.274 19.122 19.274zm7.45-22.847h-16.308c.874-4.562 3.611-7.375 8.287-7.375 4.258 0 7.11 2.66 8.022 7.375zM389.102 71V50.814c0-5.55 3.536-8.326 7.794-8.326 4.524 0 7.185 2.927 7.185 8.25V71h9.922V50.814c0-5.55 3.535-8.326 7.793-8.326 4.486 0 7.185 2.927 7.185 8.25V71h9.884V47.544c0-8.553-5.854-14.37-14.522-14.37-4.828 0-9.656 1.635-12.507 6.31-2.471-3.915-6.843-6.31-12.165-6.31-4.182 0-8.212 1.407-10.835 5.322v-4.334h-9.656V71h9.922zm73.837.95c6.196 0 11.519-1.748 15.7-5.588l-5.816-6.387c-2.661 2.243-6.12 3.536-9.314 3.536-4.676 0-8.402-2.32-9.466-7.641h26.117c.114-.837.19-2.205.19-3.346-.038-11.48-7.299-19.35-17.905-19.35-11.025 0-18.628 7.907-18.628 19.502 0 11.595 7.831 19.274 19.122 19.274zm7.45-22.847H454.08c.874-4.562 3.612-7.375 8.287-7.375 4.258 0 7.11 2.66 8.022 7.375zm30.727 22.847c5.056 0 8.63-2.052 11.025-5.018V71h9.694V16.257h-9.884v21.745c-2.395-2.89-5.893-4.828-10.835-4.828-10.15 0-17.83 8.326-17.83 19.388 0 11.063 7.68 19.388 17.83 19.388zm1.825-9.237c-5.817 0-9.504-4.524-9.504-10.15 0-5.627 3.687-10.151 9.504-10.151 5.664 0 9.504 4.334 9.504 10.15 0 5.817-3.84 10.15-9.504 10.15zm31.334-34.29c3.574 0 6.349-2.738 6.349-6.312 0-3.573-2.775-6.386-6.349-6.386-3.573 0-6.31 2.813-6.31 6.386 0 3.574 2.737 6.311 6.31 6.311zM539.292 71V34.162h-9.922V71h9.922zm23.085.95c5.056 0 8.63-2.052 11.025-5.018V71h9.694V34.162h-9.694v4.068c-2.433-3.003-5.969-5.056-11.025-5.056-10.15 0-17.83 8.326-17.83 19.388 0 11.063 7.68 19.388 17.83 19.388zm1.825-9.237c-5.816 0-9.504-4.524-9.504-10.15 0-5.627 3.688-10.151 9.504-10.151 5.664 0 9.504 4.334 9.504 10.15 0 5.817-3.84 10.15-9.504 10.15z" fill="#1A1A1A" fill-rule="nonzero"/>
</g>
</svg>
