<?xml version="1.0" encoding="UTF-8"?>
<svg id="Layer_1" data-name="Layer 1" xmlns="http://www.w3.org/2000/svg" viewBox="0 0 1920 394.85">
  <defs>
    <style>
      .cls-1 {
        fill: #001745;
        stroke-width: 0px;
      }
    </style>
  </defs>
  <path class="cls-1" d="m266.78,311.51V78.6h0c28.15,0,50.96,22.82,50.96,50.96v181.94h-50.96ZM317.74.01v64.36c-28.15,0-50.61-22.82-50.96-50.96V.01c16.76,0,34.2,0,50.96,0h0Z"/>
  <path class="cls-1" d="m531.26,83.37v25.03c-6.53-7.54-14.46-13.83-23.83-18.84-13.65-7.31-29.52-10.96-47.63-10.96-20.31,0-38.66,5.01-54.99,15.01-16.37,10-29.23,23.59-38.58,40.74-9.4,17.12-14.07,36.51-14.07,58.1s4.67,41.03,14.07,58.34c9.34,17.3,22.21,30.96,38.58,40.98,16.34,10,34.69,14.98,54.99,14.98,17.77,0,33.51-3.55,47.16-10.7,9.53-4.99,17.62-11.41,24.3-19.26v8.53c0,18.74-6.13,33.59-18.35,44.53-12.24,10.96-28.97,16.44-50.24,16.44-16.52,0-30.72-2.95-42.62-8.82-11.93-5.87-22.47-14.51-31.69-25.94l-33.33,33.33c11.09,15.87,25.71,28.19,43.82,36.93,18.09,8.72,39.05,13.08,62.85,13.08s44.79-4.59,62.88-13.81c18.11-9.21,32.23-21.98,42.39-38.34,10.15-16.37,15.24-35.47,15.24-57.4V83.37h-50.95Zm-4.78,144.08c-5.4,10-12.95,17.7-22.63,23.1-9.68,5.4-21.04,8.09-34.06,8.09s-24.04-2.69-34.04-8.09c-10-5.4-17.72-13.18-23.1-23.33-5.4-10.15-8.09-21.59-8.09-34.3,0-13.34,2.69-24.93,8.09-34.77,5.38-9.84,13.1-17.54,23.1-23.1,10-5.56,21.35-8.33,34.04-8.33s24.38,2.77,34.06,8.33c9.68,5.56,17.23,13.26,22.63,23.1,5.4,9.84,8.09,21.43,8.09,34.77s-2.69,24.53-8.09,34.53Z"/>
  <path class="cls-1" d="m1607.89,83.37v25c-6.53-7.54-14.46-13.81-23.8-18.82-13.65-7.31-29.55-10.96-47.63-10.96-20.33,0-38.66,5.01-55.02,15.01-16.34,10-29.21,23.59-38.58,40.74-9.37,17.12-14.04,36.51-14.04,58.1s4.67,41.03,14.04,58.34c9.37,17.3,22.24,30.96,38.58,40.98,16.37,10,34.69,14.98,55.02,14.98,17.77,0,33.49-3.55,47.16-10.7,9.53-4.99,17.62-11.41,24.27-19.24v8.51c0,18.74-6.11,33.59-18.32,44.53-12.24,10.96-29,16.44-50.24,16.44-16.52,0-30.75-2.95-42.65-8.82-11.9-5.87-22.47-14.51-31.66-25.94l-33.36,33.33c11.12,15.87,25.74,28.19,43.82,36.93,18.11,8.72,39.07,13.08,62.88,13.08s44.76-4.59,62.88-13.81c18.09-9.21,32.21-21.98,42.39-38.34,10.15-16.37,15.24-35.47,15.24-57.4V83.37h-50.97Zm-4.75,144.08c-5.4,10-12.95,17.7-22.63,23.1-9.68,5.4-21.04,8.09-34.06,8.09s-24.04-2.69-34.03-8.09c-10.02-5.4-17.72-13.18-23.13-23.33-5.4-10.15-8.09-21.59-8.09-34.3,0-13.34,2.69-24.93,8.09-34.77,5.4-9.84,13.1-17.54,23.13-23.1,10-5.56,21.35-8.33,34.03-8.33s24.38,2.77,34.06,8.33c9.68,5.56,17.23,13.26,22.63,23.1,5.4,9.84,8.09,21.43,8.09,34.77s-2.69,24.53-8.09,34.53Z"/>
  <path class="cls-1" d="m1077.12,311.51V78.6h0c28.15,0,50.96,22.82,50.96,50.96v181.94h-50.96Z"/>
  <path class="cls-1" d="m1128.09.01v64.36c-28.15,0-50.61-22.82-50.96-50.96V.01c16.76,0,34.2,0,50.96,0h0Z"/>
  <path class="cls-1" d="m1905.96,133.61c-9.37-16.99-22.24-30.41-38.6-40.25-16.34-9.84-35.16-14.77-56.43-14.77s-41.76,5.25-59.54,15.74c-17.8,10.47-31.92,24.61-42.39,42.39-10.49,17.77-15.71,37.95-15.71,60.48s5.3,42.88,15.95,60.97c10.62,18.11,25,32.31,43.09,42.62,18.11,10.34,38.6,15.48,61.44,15.48,17.8,0,34.61-3.31,50.5-10,15.87-6.66,29.36-16.5,40.48-29.52l-32.39-32.86c-6.99,8.25-15.56,14.43-25.71,18.56-10.18,4.15-21.3,6.19-33.36,6.19-13.65,0-25.87-3-36.67-9.03-10.81-6.03-19.05-14.54-24.77-25.5-2.87-5.48-5.01-11.43-6.42-17.85h171.69c.97-4.75,1.67-9.06,2.14-12.87.5-3.78.73-7.62.73-11.41,0-21.92-4.7-41.37-14.04-58.36Zm-160.41,41.21c1.33-5.82,3.29-11.22,5.85-16.21,5.4-10.47,13.18-18.64,23.33-24.53,10.15-5.87,21.92-8.8,35.24-8.8s23.99,2.61,32.89,7.86c8.87,5.25,15.79,12.71,20.7,22.39,2.9,5.69,4.99,12.11,6.29,19.29h-124.29Z"/>
  <path class="cls-1" d="m734.51,268.11l-3.18.13c.89-.08,1.96-.13,3.18-.13Z"/>
  <path class="cls-1" d="m1343.57,0v108.76c-6.86-8.04-15.14-14.62-24.82-19.81-13.65-7.31-29.1-10.96-46.28-10.96-20.67,0-39.36,5.32-56.06,15.97-16.68,10.68-29.89,24.9-39.59,42.7-9.68,17.83-14.54,38.03-14.54,60.61s4.86,42.39,14.54,60.34c9.71,17.98,22.92,32.21,39.59,42.7,16.7,10.52,35.39,15.76,56.06,15.76,17.51,0,33.1-3.76,46.77-11.22,9.47-5.17,17.59-11.67,24.33-19.44v25.89h51.05V0h-51.05Zm-4.78,233.76c-5.4,10.67-13.1,19.03-23.13,25.06-10.02,6.05-21.56,9.06-34.61,9.06s-24.48-3-34.35-9.06c-9.84-6.03-17.64-14.38-23.36-25.06-5.74-10.65-8.61-22.97-8.61-36.96s2.87-25.94,8.61-36.75c5.72-10.81,13.52-19.16,23.36-25.06,9.87-5.87,21.32-8.82,34.35-8.82s24.2,2.95,34.37,8.82c10.18,5.9,17.96,14.25,23.36,25.06,5.43,10.81,8.12,23.07,8.12,36.75s-2.69,26.31-8.12,36.96Z"/>
  <g>
    <g>
      <path class="cls-1" d="m217.79,135.62c-9.6-17.46-22.6-31.45-39.05-41.87-16.47-10.44-34.9-15.69-55.28-15.69-11.41,0-22,1.62-31.82,4.88-4.78,1.57-9.42,3.55-13.81,5.9-10.73,5.72-19.71,13.15-26.88,22.39V0H0v181.95c0,14.09,5.72,26.83,14.93,36.05,9.21,9.21,21.95,14.93,36.02,14.93v-47.56c1.15-9.14,3.52-19.73,7.1-26.86,5.32-10.57,13-18.77,23.05-24.53,10.05-5.74,21.32-8.67,33.88-8.67s24.17,2.92,33.85,8.67c9.76,5.77,17.44,13.96,23.07,24.53,5.64,10.62,8.46,22.63,8.46,36.07,0,6.39-.6,12.4-1.85,18.09-1.38,6.5-3.6,12.55-6.6,18.14-5.64,10.47-13.31,18.61-23.07,24.56-7.67,4.65-13.68,7.49-23.33,8.38-.23.05-.44.05-.68.08-1.77.23-3.52.31-5.38.34-.08,0-.16.03-.24.03l-3.11.13c-.31,0-.57.03-.84.03-.03,0-.16,0-.34.05-2.79.47-5.56.91-8.35,1.41h-.1c-.91.29-2.06.7-2.06.7-.89.31-1.54.57-1.75.65-2.58,1.07-5.06,2.35-7.41,3.89-.65.44-1.33.89-2.01,1.38-.68.47-1.33.97-1.96,1.49-1.96,1.57-3.76,3.29-5.43,5.17-.47.52-.94,1.07-1.44,1.67-.29.37-.6.76-.86,1.12-.37.5-.7.97-1.04,1.46-.84,1.15-1.59,2.4-2.3,3.63-.26.44-.52.94-.76,1.41-3.26,6.21-5.06,13.26-5.06,20.72v2.4h45.88c.68,0,1.31,0,1.96-.05h.42l2.17-.05,1.62-.08,9.34-.5c15.58-1.67,29.86-6.63,42.96-14.77,14.49-9.06,26.28-20.99,35.47-35.76,1.23-1.98,2.43-4.02,3.58-6.13,7.93-14.64,12.58-30.72,13.91-48.31.26-3.55.42-7.18.42-10.83,0-22.16-4.78-41.92-14.33-59.41Zm-108.01,134.13h-.1c2.77-.97,7.28-1.33,8.56-1.46-2.82.5-5.64.97-8.46,1.46Zm9.63-1.51c.89-.08,1.96-.13,3.18-.13l-3.18.13Z"/>
      <path class="cls-1" d="m109.68,269.75c2.77-.97,7.28-1.33,8.56-1.46-2.82.5-5.64.97-8.46,1.46h-.1Z"/>
      <path class="cls-1" d="m122.6,268.11l-3.18.13c.89-.08,1.96-.13,3.18-.13Z"/>
    </g>
    <path class="cls-1" d="m118.24,268.29c-2.82.5-5.64.97-8.46,1.46h-.1c2.77-.97,7.28-1.33,8.56-1.46Z"/>
    <path class="cls-1" d="m122.6,268.11l-3.18.13c.89-.08,1.96-.13,3.18-.13Z"/>
    <path class="cls-1" d="m0,311.51v-64.36c28.15,0,50.61,22.82,50.96,50.96v13.39c-16.76,0-34.2,0-50.96,0H0Z"/>
  </g>
  <path class="cls-1" d="m731.32,268.24l3.18-.13c-1.23,0-2.3.05-3.18.13Z"/>
  <path class="cls-1" d="m838.28,136.85c-9.71-17.83-22.89-32.05-39.59-42.7-16.7-10.68-35.39-16-56.06-16-17.17,0-32.63,3.65-46.28,10.99-9.68,5.17-17.96,11.75-24.82,19.78V.01h-51.05v311.45h51.05v-25.89c6.73,7.78,14.85,14.28,24.33,19.44,13.68,7.49,29.26,11.22,46.77,11.22,20.67,0,39.36-5.25,56.06-15.74,16.7-10.49,29.89-24.74,39.59-42.7,9.71-17.98,14.56-38.11,14.56-60.37s-4.86-42.78-14.56-60.58Zm-106.96,131.39c.89-.08,1.96-.13,3.18-.13l-3.18.13Zm60.45-34.3c-5.74,10.65-13.52,19-23.39,25.03-9.87,6.06-21.32,9.08-34.35,9.08s-24.59-3.03-34.61-9.08c-10-6.03-17.72-14.38-23.13-25.03-5.43-10.65-8.12-22.99-8.12-36.98s2.69-25.92,8.12-36.75c5.4-10.81,13.18-19.16,23.39-25.03,10.15-5.9,21.61-8.85,34.35-8.85s24.48,2.95,34.35,8.85c9.87,5.87,17.64,14.22,23.39,25.03,5.72,10.83,8.59,23.07,8.59,36.75s-2.87,26.34-8.59,36.98Z"/>
  <path class="cls-1" d="m1050.84,104.69l-33.62,34.58c-4.18-4.8-8.9-8.17-14.17-10.1-5.27-1.91-11.28-2.87-18.01-2.87-15.06,0-27.38,4.72-36.98,14.17-9.6,9.45-14.41,24.09-14.41,43.95v128.73h-51.39V83.08h51.39v24.12c.47-.7.94-1.36,1.44-2.04,13.13-17.93,32.65-26.91,58.6-26.91,11.54,0,21.92,2.09,31.22,6.26,9.29,4.15,17.93,10.88,25.94,20.18Z"/>
</svg>