<svg xmlns="http://www.w3.org/2000/svg" viewBox="0 0 277.1 74.2" height="50">
    <title>logo</title>
    <g id="Layer_2" data-name="Layer 2">
        <g id="Layer_1-2" data-name="Layer 1">
            <path d="M113.1,25.7c.9-2.5-.2-4.2-2-5.3-3-1.7-6.9-2.2-10.1-2.2-10.7,0-16.2,8.2-16.2,18.1v5.4c0,10.1,4.7,17.5,16.1,17.5a21.35,21.35,0,0,0,10-2.2,4.2,4.2,0,0,0,2.1-5.3,3.84,3.84,0,0,0-5.2-2.3,14.35,14.35,0,0,1-6.2,1.3c-4.2,0-6.4-3.2-6.4-8.5V35.1c0-5.3,2.5-8.5,6.8-8.5a12.87,12.87,0,0,1,5.9,1.3A3.85,3.85,0,0,0,113.1,25.7Zm31.5-.8a4.7,4.7,0,0,0-1.8-5.5,9.16,9.16,0,0,0-4.8-1.2,13.2,13.2,0,0,0-10.7,4.9,8.35,8.35,0,0,0-5.6-4.2,4.68,4.68,0,0,0-1.6-.2c-3.2,0-5.2,1.2-5.2,4.2a3.61,3.61,0,0,0,1.4,3c1.2,1.1,2.3,1.8,2.3,4.4V53.9a5.2,5.2,0,0,0,10.4,0V32.5c.9-3.2,3.5-4.5,6.6-4.5a16.36,16.36,0,0,1,3.3.3A4.61,4.61,0,0,0,144.6,24.9Zm33.7,13.3V34.9c0-8.9-4.4-16.7-16.1-16.7C151,18.2,146,26.1,146,35.1v7.2c0,9,4.2,16.9,16.2,16.9a27.67,27.67,0,0,0,12.1-2.5,4.09,4.09,0,0,0,2.2-5.1,3.72,3.72,0,0,0-5-2.6,20,20,0,0,1-8.6,1.7c-4.3,0-6.4-2.7-6.4-7.3V41.9h18.4A3.64,3.64,0,0,0,178.3,38.2Zm-10-5.1v1H156.4v-1c0-4.4,2-6.9,6.1-6.9S168.3,28.7,168.3,33.1Zm49,21.8a3.88,3.88,0,0,0-1.5-3.1c-1.2-1-2-1.7-2-4.3V34.6c0-11.6-4.2-16.5-15.4-16.5-4.1,0-8.9.7-12.2,2.8-4.7,3-.6,9.7,4.5,7.1a13.66,13.66,0,0,1,6.9-1.7c4.7,0,5.9,2.5,5.9,7v1.5h-6.9c-9.9,0-15.2,4.5-15.2,11.7V47c0,7.2,4.6,12,13.9,12,3.4,0,7.6-.7,10.5-3.2a7.68,7.68,0,0,0,1.5,1.6,7.82,7.82,0,0,0,4.8,1.6C215.2,59.1,217.3,57.9,217.3,54.9Zm-13.9-9.2c0,4.1-2.5,6-6,6-4,0-5.8-1.6-5.8-4.5v-.5c0-2.5,1.6-4.4,6.2-4.4h5.6Zm73.7,8.2V32.6c0-8.7-3.2-14.5-12.9-14.5-5.2,0-9,1.6-11.7,4.4-2-2.8-5.2-4.4-10.3-4.4-4.9,0-8.7,1.5-11.4,4a7.69,7.69,0,0,0-1.8-1.8,8.2,8.2,0,0,0-4.9-1.6c-3,0-5.2,1.2-5.2,4.2a3.61,3.61,0,0,0,1.4,3c1.2,1.1,2.3,1.8,2.3,4.4V53.9a5.2,5.2,0,1,0,10.4,0v-23a7.63,7.63,0,0,1,6.2-3c4.5,0,5.4,2.8,5.4,6v20a5.2,5.2,0,0,0,10.4,0V32.6c0-.5-.1-1.1-.1-1.5a7.69,7.69,0,0,1,6.3-3.2c4.5,0,5.3,2.8,5.3,6v20a5.3,5.3,0,0,0,10.6,0Z"></path><circle cx="37.1" cy="37.1" r="37.1" fill="#573729"></circle><path d="M37.1,37.1" fill="#573729"></path><path d="M68.9,38.3c0,.8.4-.7-2.2-8.2C62.9,19,53.1,10.1,41.3,8.4,27.9,6.5,14.4,14.7,11.2,28.3c-2.6,10.4,2.4,21.9,12.3,26C30.3,57.2,38.9,56,44,50.2a13.35,13.35,0,0,0,3.4-9.6c-.1-3.5-1.4-6.7-4.1-8,1.2,4.8,1.4,10.3-2.6,14a12.94,12.94,0,0,1-15.8,1.5c-6.7-3.9-9.1-12.3-6.7-19.3a18.72,18.72,0,0,1,7-9.2c8-5.8,18.5-4.6,25.9,1.4,10.6,8.6,11.8,24,3.6,34.8A28.52,28.52,0,0,1,26.3,66.5c-8.7-1.5-16.1-7-20.9-14.2,8.2,11.8,24,17.3,37.7,11.5,14.2-6,21.1-24.7,11.1-37.7a21.43,21.43,0,0,0-15.4-8.4c-9.1-.7-18.7,6.5-18.5,16.1.2,4.6,2.6,9.4,7,11.1,2.1.7,4.8,1.4,6.3-.3-3.4-1.5-6.2-3.4-7.4-7.2a8.91,8.91,0,0,1,1.9-8.7c3.9-4.6,10.6-5.1,15.8-2.1,5.8,3.6,8.2,10.4,6.7,17.1a18.63,18.63,0,0,1-16.4,14,21.81,21.81,0,0,1-20.4-9.1,24.21,24.21,0,0,1-4.1-20,27.33,27.33,0,0,1,15.8-19,30,30,0,0,1,30.8,4.1,32.64,32.64,0,0,1,12,20.5C68.7,37.1,68.9,37.9,68.9,38.3Z" fill="#e6007e"></path>
        </g>
    </g>
</svg>