<?xml version="1.0" encoding="UTF-8"?>
<svg id="Laag_1" data-name="Laag 1" xmlns="http://www.w3.org/2000/svg" viewBox="0 0 940.05 209.42">
  <path d="M39.29,84.79s0,0,0-.01H0c.17,74,49.51,123.81,123.19,124.64v-39.75h0c-50.18-.57-83.78-34.48-83.9-84.88Z" style="fill: #e8308a;"/>
  <g id="Group_77" data-name="Group 77">
    <path id="Path_74" data-name="Path 74" d="M305.15,0v35.96c-26.16,0-41.84,12.75-41.84,38.91v91.54h-39.24v-91.54C224.06,25.17,255.45,0,305.15,0" style="fill: #0a144b;"/>
    <path id="Path_75" data-name="Path 75" d="M428.73,115.74h42.83c-10.78,33.02-39.89,53.62-79.44,53.62-50.68,0-84.68-34-84.68-84.68S341.44.66,392.12.66s84.34,33.67,84.34,84.02c0,4.58-.32,8.83-.65,13.08h-127.84c4.26,22.56,20.6,35.64,43.81,35.64,16.35,0,29.1-6.21,36.94-17.66M432.98,61.79c-6.87-16.02-21.58-25.17-41.2-25.17s-34,9.15-40.87,25.17h82.07Z" style="fill: #0a144b;"/>
    <path id="Path_76" data-name="Path 76" d="M658.89,85.33v81.07h-39.22v-15.69c-7.85,10.13-24.53,18.64-48.39,18.64-47.41,0-81.41-34-81.41-84.68S523.87.65,574.22.65s84.68,33.99,84.68,84.68M574.54,36.62c-27.46,0-45.44,17.98-45.44,48.38s17.98,48.39,45.44,48.39,45.12-17.98,45.12-48.39-17.99-48.38-45.12-48.38" style="fill: #0a144b;"/>
    <path id="Path_77" data-name="Path 77" d="M809.28,26.16c10.13-14.72,27.13-26.16,55.58-26.16,53.94,0,75.19,40.54,75.19,68.98v97.42h-39.22v-96.44c0-23.22-17-33.68-35.96-33.68s-35.97,10.46-35.97,33.68v96.44h-39.22v-96.44c0-23.22-17-33.68-35.97-33.68s-35.96,10.46-35.96,33.68v96.44h-39.23v-97.42c0-28.44,21.25-68.98,75.19-68.98,28.45,0,45.45,11.44,55.58,26.16" style="fill: #0a144b;"/>
  </g>
  <g>
    <path d="M124.12,36.19c19.73,0,34.53,9.2,41.44,25.32h41.11C198.12,24.02,167.2.01,124.45.01,73.48.01,39.28,33.88,39.28,84.52c0,.09,0,.17,0,.26h39.45c.03-30.54,18.11-48.59,45.39-48.59Z" style="fill: #0a144b;"/>
    <path d="M165.88,107.22c-6.9,16.76-21.7,26.3-41.76,26.3h0c-.32,0-.62-.01-.94-.02v36.17h0c.42,0,.84.03,1.27.03,43.08,0,73.66-24.33,82.54-62.48h-41.11Z" style="fill: #0a144b;"/>
    <path d="M78.74,84.78s0,.05,0,.07c0-.02,0-.05,0-.07h0Z" style="fill: #0a144b;"/>
    <path d="M39.29,84.79s0,0,0-.01h0s0,0,0,.01Z" style="fill: #0a144b;"/>
  </g>
  <path d="M123.19,133.5c-26.77-.41-44.45-18.42-44.45-48.65,0-.02,0-.05,0-.07h-39.45s0,0,0,.01c.12,50.4,33.73,84.31,83.9,84.88h0v-36.17Z" style="fill: #990dce;"/>
</svg>