<?xml version="1.0" encoding="UTF-8" standalone="no"?><!DOCTYPE svg PUBLIC "-//W3C//DTD SVG 1.1//EN" "http://www.w3.org/Graphics/SVG/1.1/DTD/svg11.dtd"><svg width="100%" height="100%" viewBox="0 0 603 128" version="1.1" xmlns="http://www.w3.org/2000/svg" xmlns:xlink="http://www.w3.org/1999/xlink" xml:space="preserve" style="fill-rule:evenodd;clip-rule:evenodd;stroke-linejoin:round;stroke-miterlimit:1.41421;"><g id="Layer1"><path d="M49.689,42.915c-8.954,0 -17.374,3.738 -23.707,10.525c-6.333,6.787 -9.823,15.809 -9.823,25.406c0,3.427 0.452,6.819 1.344,10.087l0.948,3.477l2.453,-2.49c15.255,-15.495 35.208,-24.592 56.181,-25.617l3.381,-0.166l-1.685,-3.147c-1.478,-2.761 -3.292,-5.301 -5.39,-7.551c-6.332,-6.786 -14.748,-10.524 -23.702,-10.524m0,84.292c-12.055,0 -23.387,-5.033 -31.909,-14.162c-0.844,-0.901 -1.678,-1.874 -2.483,-2.889l-1.551,-1.957l-1.576,1.933c-0.5,0.611 -0.99,1.236 -1.478,1.861c-1.954,2.511 -3.782,5.1 -5.431,7.703l-0.763,1.195l0.006,0.013c-1.035,1.689 -2.028,3.418 -2.969,5.17c-0.529,-1.102 -0.805,-2.328 -0.805,-3.591c0,-1.066 0.194,-2.099 0.576,-3.071c0.437,-1.109 1.374,-3.138 2.059,-4.555c1.862,-3.841 3.982,-7.562 6.297,-11.059l0.737,-1.113l-0.598,-1.206c-3.427,-6.921 -5.238,-14.748 -5.238,-22.633c0,-12.915 4.694,-25.057 13.217,-34.193c8.523,-9.137 19.856,-14.169 31.909,-14.169c12.053,0 23.384,5.032 31.905,14.169c6.282,6.734 10.534,15.201 12.301,24.48c0.088,0.483 0.526,3.705 0.526,4.103c0,3.426 -1.124,3.397 -4.322,3.397l-8.955,0c-21.08,0 -40.899,7.451 -57.313,21.548l-1.612,1.384l1.292,1.726c0.776,1.043 1.607,2.034 2.471,2.962c6.333,6.785 14.752,10.519 23.707,10.519c8.954,0 23.37,-5.737 29.702,-12.519c0,0 8.55,9.43 8.204,9.792c-9.47,9.907 -24.341,15.498 -37.906,15.162l0,0Z" style="fill:#0a1f3d;fill-rule:nonzero;"/><path d="M108.418,78.793c0,27.729 21.577,48.049 48.217,48.049c13.68,0 25.56,-4.672 34.38,-13.658l-8.1,-9.363c-6.84,7.022 -16.02,10.623 -26.28,10.623c-20.16,0 -34.92,-15.305 -34.92,-35.651c0,-20.347 14.76,-35.651 34.92,-35.651c10.26,0 19.44,3.601 26.28,10.623l8.1,-9.363c-8.82,-8.986 -20.7,-13.658 -34.38,-13.658c-26.64,0 -48.217,20.32 -48.217,48.049Z" style="fill:#0a1f3d;fill-rule:nonzero;"/><path d="M203.998,78.793c0,27.729 21.58,48.049 48.228,48.049c26.649,0 48.229,-20.32 48.229,-48.049c0,-27.729 -21.58,-48.049 -48.229,-48.049c-26.648,0 -48.228,20.32 -48.228,48.049Zm13.297,0c0,-20.347 14.765,-35.651 34.931,-35.651c20.167,0 34.932,15.304 34.932,35.651c0,20.346 -14.765,35.651 -34.932,35.651c-20.166,0 -34.931,-15.305 -34.931,-35.651Z" style="fill:#0a1f3d;fill-rule:nonzero;"/><path d="M321.358,124.142l13.297,0l0,-54.18c0,-15.3 9.365,-25.56 21.792,-25.56c12.786,0 20.171,9.54 20.171,24.66l0,55.08l13.297,0l0,-54.18c0,-15.3 9.185,-25.56 21.612,-25.56c12.427,0 19.811,9.54 19.811,24.66l0,35.46c0,18.363 10.422,20.16 17.257,20.16c1.8,0 3.96,-0.18 5.76,-0.898l0,-10.96c-1.08,0.18 -2.34,0.36 -3.42,0.36c-5.22,0 -6.3,-2.521 -6.3,-9.543l0,-37.452c0,-20.346 -11.141,-34.185 -29.506,-34.185c-13.327,0 -23.233,6.828 -28.269,17.98c-4.492,-11.152 -13.664,-17.98 -26.631,-17.98c-12.607,0 -21.432,7.008 -25.574,16.72l0,-15.28l-13.297,0l0,90.698Z" style="fill:#0a1f3d;fill-rule:nonzero;"/><path d="M473.638,124.142l13.297,0l0,-54.18c0,-15.3 10.445,-25.56 25.212,-25.56c14.406,0 23.231,9.54 23.231,24.66l0,35.46c0,18.363 10.422,20.16 17.257,20.16c1.8,0 3.96,-0.18 5.76,-0.898l0,-10.96c-1.08,0.18 -2.34,0.36 -3.42,0.36c-5.4,0 -6.3,-2.521 -6.3,-9.543l0,-37.452c0,-20.346 -12.579,-34.185 -33.107,-34.185c-14.046,0 -23.951,7.008 -28.633,16.72l0,-15.28l-13.297,0l0,90.698Z" style="fill:#0a1f3d;fill-rule:nonzero;"/><path d="M577.858,107.064c0,17.441 9.883,19.238 16.357,19.238c2.88,0 5.58,-0.18 8.46,-1.438l0,-10.96c-1.26,0.18 -3.42,0.36 -4.68,0.36c-5.22,0 -6.84,-2.88 -6.84,-9.54l0,-71.28l-13.297,0l0,73.62Z" style="fill:#0a1f3d;"/><path d="M584.506,18.302c4.674,0 8.989,-3.775 8.989,-8.989c0,-5.213 -4.315,-8.989 -8.989,-8.989c-4.674,0 -8.988,3.776 -8.988,8.989c0,5.214 4.314,8.989 8.988,8.989Z" style="fill:#e6611a;"/></g></svg>