<?xml version="1.0" encoding="UTF-8"?>
<svg id="Laag_1" data-name="Laag 1" xmlns="http://www.w3.org/2000/svg" width="1000" height="286.8772" viewBox="0 0 1000 286.8772">
  <g>
    <path fill="#000D33" d="M113.8658,152.58c.4334,8.9042,2.9314,15.7155,7.4933,20.4687,4.562,4.7408,10.8528,7.1114,18.8784,7.1114,5.5448,0,10.3785-1.2487,14.5012-3.7236,4.1167-2.4861,7.459-6.1635,10.0085-11.0553l25.9383,8.3145c-4.1576,9.8528-10.9801,17.5083-20.4628,22.9892-9.488,5.4702-20.6475,8.1991-33.4891,8.1991-17.2188,0-31.061-5.3192-41.5265-15.9701-10.4709-10.6503-15.7037-24.7696-15.7037-42.3584,0-17.5776,5.215-31.6744,15.6457-42.2897,10.4365-10.6159,24.2964-15.9239,41.5845-15.9239,17.4385,0,31.2806,5.5969,41.5318,16.7913,10.2459,11.2051,15.3745,26.4351,15.3745,45.6894v1.7573h-79.7741ZM114.0855,133.7537h44.0991c-.4393-6.4175-2.6655-11.5289-6.678-15.3218-4.0125-3.7934-9.1879-5.6899-15.5361-5.6899-6.2736,0-11.3851,1.8964-15.3224,5.6899-3.9379,3.7928-6.1292,8.9042-6.5626,15.3218Z"/>
    <path fill="#000D33" d="M199.4624,69.9556h-14.3395v-23.753h47.7131v131.1131h15.4325v24.4001h-63.1456v-24.4001h14.3395v-107.3602Z"/>
    <path fill="#000D33" d="M320.1792,184.9707c-4.5276,5.6206-9.6674,9.8178-15.4325,12.5816-5.7645,2.7757-12.2228,4.1635-19.3692,4.1635-14.2241,0-25.5512-4.8917-33.9811-14.6634-8.4247-9.7829-12.6397-23.0584-12.6397-39.8379,0-15.9813,4.5797-29.3499,13.738-40.1044,9.1529-10.7657,20.5149-16.143,34.0853-16.143,6.5685,0,12.732,1.3991,18.4965,4.2091,5.7591,2.81,11.2347,7.1002,16.4153,12.8593v-17.0684h46.4005v23.7405h-14.5592v73.1079c0,9.5632-.7632,16.9411-2.2955,22.1567-1.5322,5.215-4.0474,9.7947-7.5514,13.738-5.0362,5.4696-11.7835,9.6674-20.2425,12.5816-8.4649,2.9255-18.1673,4.3826-29.1124,4.3826-9.3382,0-18.0921-1.1332-26.2622-3.3997-8.17-2.2546-15.3976-5.6082-21.6706-10.0606l16.6344-19.0459c5.8343,2.7058,11.3448,4.6833,16.5255,5.967,5.1807,1.2724,10.1068,1.9195,14.7729,1.9195,8.9735,0,15.6285-1.9775,19.9708-5.9089,4.3423-3.9432,6.5105-9.9682,6.5105-18.0631,0-.7981-.0343-1.6999-.1095-2.6827-.0693-.9828-.1794-2.463-.3239-4.4293ZM296.8662,179.7208c7.2216,0,12.9517-2.868,17.1839-8.5922,4.2268-5.7242,6.343-13.6219,6.343-23.6943,0-9.9913-2.0931-17.8203-6.2909-23.4753-4.1978-5.6543-9.9392-8.4762-17.236-8.4762-7.3666,0-13.1654,2.8218-17.3982,8.4762-4.2322,5.6549-6.3488,13.484-6.3488,23.4753,0,10.0724,2.1167,17.9701,6.3488,23.6943,4.2328,5.7242,10.0316,8.5922,17.3982,8.5922Z"/>
    <path fill="#000D33" d="M393.0787,152.58c.4334,8.9042,2.9314,15.7155,7.4934,20.4687,4.5619,4.7408,10.8528,7.1114,18.8783,7.1114,5.5449,0,10.3785-1.2487,14.5012-3.7236,4.1168-2.4861,7.459-6.1635,10.0085-11.0553l25.9384,8.3145c-4.1576,9.8528-10.9801,17.5083-20.4628,22.9892-9.488,5.4702-20.6475,8.1991-33.4891,8.1991-17.2188,0-31.061-5.3192-41.5265-15.9701-10.4709-10.6503-15.7037-24.7696-15.7037-42.3584,0-17.5776,5.215-31.6744,15.6462-42.2897,10.436-10.6159,24.2959-15.9239,41.584-15.9239,17.4385,0,31.2806,5.5969,41.5318,16.7913,10.2459,11.2051,15.3745,26.4351,15.3745,45.6894v1.7573h-79.7742ZM393.2984,133.7537h44.0991c-.4393-6.4175-2.6655-11.5289-6.678-15.3218-4.0125-3.7934-9.1878-5.6899-15.5361-5.6899-6.2737,0-11.3851,1.8964-15.3224,5.6899-3.9373,3.7928-6.1292,8.9042-6.5626,15.3218Z"/>
    <path fill="#000D33" d="M465.2151,201.7159v-24.4001h14.5533v-62.3878h-14.5533v-23.9608h47.7071v11.0553c6.0594-3.874,11.6562-6.684,16.8026-8.4306,5.1398-1.746,10.3726-2.6247,15.7037-2.6247,9.7716,0,17.2537,3.157,22.4344,9.459,5.1748,6.3139,7.7651,15.4153,7.7651,27.303v49.5865h15.7617v24.4001h-49.1353v-65.6608c0-6.5685-.9307-11.24-2.7928-14.0157-1.8616-2.7638-4.9433-4.1511-9.2454-4.1511-2.9201,0-5.8397.6128-8.7538,1.8615-2.9202,1.2374-5.6899,3.0297-8.3205,5.3542v52.2117h16.8547v24.4001h-64.7815Z"/>
    <path fill="#000D33" d="M623.1386,162.3173c0,6.0593.6596,10.0718,1.9716,12.0381,1.3126,1.9657,3.7182,2.9604,7.2222,2.9604,1.6768,0,3.411-.2433,5.1978-.717,1.7869-.4743,3.7354-1.2262,5.8574-2.2434v24.6198c-3.7242,1.9775-7.5744,3.4459-11.5467,4.4406-3.9782.9828-8.1932,1.4684-12.6397,1.4684-10.8699,0-18.4965-2.2896-22.8737-6.8918-4.3766-4.591-6.5626-12.767-6.5626-24.5161v-58.7684h-12.6971v-23.7405h12.6971v-12.4774l33.3736-28.2279v40.7053h20.249v23.7405h-20.249v47.6095Z"/>
    <path fill="#000D33" d="M752.2855,146.5556c0,17.4385-5.4175,31.5234-16.2472,42.2429-10.8356,10.7314-24.9726,16.0856-42.4052,16.0856-17.5829,0-31.7028-5.308-42.3531-15.9233-10.6509-10.6159-15.976-24.7471-15.976-42.4052,0-17.5083,5.3251-31.5814,15.976-42.2435,10.6503-10.6503,24.7701-15.9701,42.3531-15.9701s31.749,5.3198,42.5094,15.9701c10.7598,10.6621,16.143,24.7352,16.143,42.2435ZM693.6331,177.7432c7.655,0,13.674-2.7869,18.0513-8.372,4.3826-5.5738,6.5685-13.2525,6.5685-23.0359,0-9.6325-2.1859-17.172-6.5685-22.6535-4.3772-5.4702-10.3962-8.1991-18.0513-8.1991-7.5916,0-13.5935,2.7289-18.0051,8.1991-4.4122,5.4815-6.6206,13.021-6.6206,22.6535,0,9.7142,2.2084,17.3692,6.6206,22.9898,4.4116,5.62,10.4135,8.4182,18.0051,8.4182Z"/>
    <path fill="#000D33" d="M750.337,201.7159v-38.9593h26.0425v.4393c0,5.6893,2.006,10.176,6.0191,13.4603,4.0126,3.2843,9.523,4.9267,16.5249,4.9267,4.7414,0,8.4821-1.0065,11.2169-3.0184,2.7348-2.0006,4.1055-4.6833,4.1055-8.0369,0-5.1114-5.9847-8.9392-17.9476-11.4946-1.0983-.2197-1.9716-.3931-2.6306-.5435l-19.1501-4.2671c-8.6094-1.8964-15.2471-5.5507-19.9133-10.9511-4.6715-5.4003-7.0078-12.1423-7.0078-20.2372,0-10.4425,3.5039-18.8263,10.5064-25.1751,7.0072-6.3483,16.2353-9.517,27.6897-9.517,4.6662,0,9.3152.6359,13.9524,1.9083,4.6312,1.2836,9.3204,3.2381,14.0618,5.8627v-5.1457h24.8393v32.0669h-24.8393c-2.2612-4.0125-5.3832-7.0658-9.3555-9.147-3.9781-2.0699-8.6325-3.1108-13.9523-3.1108-3.868,0-6.9326.7632-9.1932,2.2896-2.2665,1.5382-3.3938,3.585-3.3938,6.1292,0,2.4861,1.1102,4.4175,3.3358,5.8047,2.2262,1.3878,6.4761,2.6596,12.7498,3.8278l18.1667,3.6081c11.0151,2.1161,19.1502,6.0481,24.406,11.7723,5.2499,5.7242,7.8752,13.4834,7.8752,23.255,0,11.0896-3.6661,20.0981-10.9978,27.0254-7.3311,6.938-16.8718,10.3957-28.6151,10.3957-4.7414,0-9.4649-.6128-14.1714-1.8615-4.7064-1.2374-9.4655-3.0995-14.2815-5.5738v4.2671h-26.0425Z"/>
  </g>
  <rect fill="#000D33" x="861.936" y="162.7566" width="39.0404" height="38.9593"/>
  <rect fill="#000D33" x="900.9764" y="143.2364" width="19.5202" height="19.5202"/>
</svg>
