<?xml version="1.0" encoding="UTF-8"?><svg id="Laag_1" xmlns="http://www.w3.org/2000/svg" viewBox="0 0 352.96 59.26"><defs><style>.cls-1{stroke:#000;}.cls-1,.cls-2{stroke-miterlimit:10;}.cls-1,.cls-2,.cls-3{fill:#0085ca;}.cls-2{stroke:#00283d;}.cls-4{fill:#00283d;}.cls-4,.cls-3{stroke-width:0px;}</style></defs><path class="cls-3" d="M71.81,51.87h6.2v1.29h-4.72v1.45h4.18v1.22h-4.18v2.03h4.82v1.29h-6.3v-7.28ZM71.81,51.87"/><rect class="cls-3" x="82.19" y="54.93" width="4.27" height="1.04"/><path class="cls-3" d="M90.59,55.47c0-.52.1-1,.29-1.45.2-.45.48-.84.85-1.17.37-.33.82-.59,1.36-.78.54-.19,1.14-.29,1.82-.29.59,0,1.14.06,1.63.18.5.12.96.3,1.38.55l-.68,1.12c-.13-.08-.28-.16-.44-.22-.17-.07-.34-.12-.53-.16-.19-.05-.38-.08-.58-.1-.2-.02-.4-.04-.59-.04-.47,0-.89.06-1.27.18-.37.12-.68.28-.93.49-.25.21-.45.46-.58.75-.13.29-.2.61-.2.96s.07.69.2.99c.14.3.34.56.59.78.26.22.58.39.95.52.37.12.8.18,1.27.18.21,0,.43-.02.64-.05.21-.03.41-.07.61-.13.2-.05.39-.12.57-.2.18-.08.35-.16.51-.25l.68,1.12c-.4.26-.86.46-1.38.6-.52.14-1.07.21-1.66.21-.75,0-1.4-.1-1.97-.29-.57-.2-1.04-.46-1.42-.8-.38-.34-.66-.74-.86-1.2-.19-.46-.29-.96-.29-1.49h0ZM90.59,55.47"/><path class="cls-3" d="M102.46,55.49c0-.55.1-1.05.3-1.51.2-.46.48-.85.85-1.18.37-.33.81-.58,1.32-.76.51-.18,1.07-.27,1.69-.27s1.18.09,1.7.27c.51.18.95.43,1.32.76.36.33.65.72.85,1.18.2.46.31.96.31,1.51s-.1,1.06-.31,1.52c-.2.46-.48.86-.85,1.19-.37.33-.8.59-1.32.77-.52.19-1.08.28-1.7.28s-1.19-.09-1.69-.28c-.51-.18-.95-.44-1.32-.77-.36-.33-.65-.73-.85-1.19-.2-.46-.3-.97-.3-1.52h0ZM103.93,55.49c0,.38.07.71.2,1.02.14.3.32.55.56.77.24.21.53.37.86.49.33.11.68.17,1.07.17s.74-.06,1.07-.17c.33-.12.61-.28.85-.49.24-.21.43-.47.56-.77.14-.31.21-.64.21-1.02s-.07-.71-.21-1.01c-.14-.3-.32-.55-.56-.76-.24-.21-.52-.36-.85-.47-.33-.11-.68-.16-1.07-.16s-.74.06-1.07.16c-.33.11-.61.27-.86.47-.24.21-.43.46-.56.76-.14.3-.2.63-.2,1.01h0ZM103.93,55.49"/><path class="cls-3" d="M115.61,51.87h1.48l2.65,2.66,2.65-2.66h1.48v7.28h-1.48v-5.24l-2.65,2.55-2.65-2.55v5.24h-1.48v-7.28ZM115.61,51.87"/><path class="cls-3" d="M129.15,51.87h1.48l2.64,2.66,2.65-2.66h1.48v7.28h-1.48v-5.24l-2.65,2.55-2.64-2.55v5.24h-1.48v-7.28ZM129.15,51.87"/><path class="cls-3" d="M142.59,51.87h6.2v1.29h-4.72v1.45h4.18v1.22h-4.18v2.03h4.82v1.29h-6.3v-7.28ZM142.59,51.87"/><path class="cls-3" d="M153.54,51.87h3.71c.56,0,1.04.06,1.45.17.41.12.75.29,1.02.51.27.22.47.49.6.8.13.32.2.68.2,1.08,0,.27-.03.53-.1.77-.07.25-.16.47-.3.67-.13.21-.3.39-.51.55-.21.16-.45.29-.72.4l1.58,2.33h-1.81l-1.37-2.07h-2.28s0,2.07,0,2.07h-1.48v-7.28ZM157.28,55.8c.28,0,.52-.03.73-.1.21-.06.39-.16.53-.27.14-.12.25-.26.32-.43.07-.17.11-.36.11-.57,0-.41-.14-.72-.42-.95-.28-.22-.7-.33-1.26-.33h-2.27v2.64h2.27ZM157.28,55.8"/><path class="cls-3" d="M164.87,55.47c0-.52.1-1,.29-1.45.19-.45.48-.84.85-1.17.37-.33.82-.59,1.36-.78.54-.19,1.14-.29,1.82-.29.59,0,1.14.06,1.63.18.5.12.96.3,1.38.55l-.68,1.12c-.12-.08-.27-.16-.44-.22-.17-.07-.34-.12-.53-.16-.19-.05-.38-.08-.58-.1-.2-.02-.4-.04-.6-.04-.47,0-.89.06-1.26.18-.37.12-.68.28-.93.49-.25.21-.45.46-.58.75-.13.29-.2.61-.2.96s.07.69.21.99c.14.3.34.56.59.78.26.22.58.39.95.52.38.12.8.18,1.27.18.21,0,.43-.02.64-.05.21-.03.41-.07.61-.13.19-.05.39-.12.57-.2.18-.08.35-.16.51-.25l.68,1.12c-.4.26-.86.46-1.38.6-.52.14-1.07.21-1.66.21-.75,0-1.41-.1-1.97-.29-.57-.2-1.04-.46-1.42-.8-.38-.34-.66-.74-.86-1.2-.19-.46-.29-.96-.29-1.49h0ZM164.87,55.47"/><path class="cls-3" d="M177.11,51.87h6.2v1.29h-4.72v1.45h4.18v1.22h-4.18v2.03h4.82v1.29h-6.3v-7.28ZM177.11,51.87"/><path class="cls-3" d="M196.19,51.87h1.57l3.52,7.28h-1.55l-.59-1.23h-4.25l-.56,1.23h-1.55l3.42-7.28ZM198.56,56.71l-1.57-3.31-1.53,3.31h3.1ZM198.56,56.71"/><path class="cls-3" d="M205.5,51.87h1.48l4.54,2.38v-2.38h1.48v7.28h-1.48v-3.34l-4.54-2.36v5.7h-1.48v-7.28ZM205.5,51.87"/><path class="cls-3" d="M218.18,51.87h2.67c.78,0,1.46.08,2.03.25.57.17,1.05.41,1.43.72.38.31.66.69.84,1.14.19.45.28.95.28,1.5s-.09,1.01-.27,1.46c-.18.45-.46.84-.84,1.17-.38.33-.85.58-1.43.77-.58.19-1.25.28-2.03.28h-2.68v-7.29ZM221.21,57.88c.44,0,.83-.05,1.16-.17.33-.11.61-.28.83-.48.22-.21.39-.46.5-.75.11-.3.17-.62.17-.99s-.05-.68-.17-.96c-.11-.29-.28-.53-.5-.74-.22-.2-.5-.35-.83-.46-.33-.11-.72-.16-1.16-.16h-1.56v4.72h1.56ZM221.21,57.88"/><path class="cls-3" d="M237.76,53.17h-2.69v-1.29h6.85v1.29h-2.69v5.99h-1.48v-5.99ZM237.76,53.17"/><path class="cls-3" d="M246.5,51.87h6.2v1.29h-4.73v1.45h4.18v1.22h-4.18v2.03h4.83v1.29h-6.3v-7.28ZM246.5,51.87"/><path class="cls-3" d="M257,55.47c0-.52.1-1,.29-1.45.19-.45.48-.84.85-1.17.37-.33.83-.59,1.36-.78.54-.19,1.14-.29,1.82-.29.59,0,1.14.06,1.63.18.5.12.95.3,1.38.55l-.68,1.12c-.12-.08-.27-.16-.44-.22-.16-.07-.34-.12-.53-.16-.19-.05-.38-.08-.58-.1-.2-.02-.4-.04-.59-.04-.47,0-.89.06-1.26.18-.37.12-.68.28-.93.49-.25.21-.44.46-.58.75-.13.29-.2.61-.2.96s.07.69.21.99c.14.3.33.56.59.78.26.22.57.39.95.52.38.12.8.18,1.27.18.21,0,.43-.02.64-.05.21-.03.41-.07.61-.13.2-.05.39-.12.57-.2.18-.08.35-.16.51-.25l.68,1.12c-.4.26-.86.46-1.38.6-.52.14-1.08.21-1.66.21-.75,0-1.41-.1-1.97-.29-.56-.2-1.04-.46-1.41-.8-.38-.34-.67-.74-.86-1.2-.19-.46-.29-.96-.29-1.49h0ZM257,55.47"/><path class="cls-3" d="M269.29,51.87h1.48v1.9h4.53v-1.9h1.48v7.28h-1.48v-4.12h-4.53v4.12h-1.48v-7.28ZM269.29,51.87"/><path class="cls-3" d="M281.97,51.87h1.48l4.54,2.38v-2.38h1.48v7.28h-1.48v-3.34l-4.54-2.36v5.7h-1.48v-7.28ZM281.97,51.87"/><path class="cls-3" d="M294.23,55.49c0-.55.1-1.05.3-1.51.2-.46.48-.85.85-1.18.36-.33.8-.58,1.31-.76.51-.18,1.08-.27,1.7-.27s1.18.09,1.7.27c.51.18.95.43,1.32.76.36.33.65.72.85,1.18.2.46.3.96.3,1.51s-.1,1.06-.3,1.52c-.2.46-.49.86-.85,1.19-.36.33-.8.59-1.32.77-.51.19-1.08.28-1.7.28s-1.19-.09-1.7-.28c-.51-.18-.95-.44-1.31-.77-.37-.33-.65-.73-.85-1.19-.2-.46-.3-.97-.3-1.52h0ZM295.71,55.49c0,.38.07.71.2,1.02.14.3.32.55.57.77.24.21.52.37.85.49.33.11.68.17,1.07.17s.74-.06,1.07-.17c.32-.12.61-.28.85-.49.24-.21.43-.47.57-.77.14-.31.2-.64.2-1.02s-.07-.71-.2-1.01c-.14-.3-.33-.55-.57-.76-.24-.21-.52-.36-.85-.47-.33-.11-.69-.16-1.07-.16s-.74.06-1.07.16c-.33.11-.61.27-.85.47-.24.21-.43.46-.57.76-.13.3-.2.63-.2,1.01h0ZM295.71,55.49"/><path class="cls-3" d="M307.26,51.87h1.48v5.98h4.23v1.3h-5.71v-7.28ZM307.26,51.87"/><path class="cls-3" d="M316.95,55.49c0-.55.1-1.05.3-1.51.2-.46.48-.85.85-1.18.37-.33.8-.58,1.32-.76.51-.18,1.07-.27,1.69-.27s1.18.09,1.7.27c.51.18.95.43,1.32.76.36.33.65.72.85,1.18.2.46.3.96.3,1.51s-.1,1.06-.3,1.52c-.2.46-.48.86-.85,1.19-.37.33-.8.59-1.32.77-.52.19-1.08.28-1.7.28s-1.19-.09-1.69-.28c-.51-.18-.95-.44-1.32-.77-.36-.33-.65-.73-.85-1.19-.2-.46-.3-.97-.3-1.52h0ZM318.43,55.49c0,.38.07.71.2,1.02.14.3.32.55.56.77.24.21.53.37.86.49.33.11.68.17,1.07.17s.74-.06,1.07-.17c.33-.12.61-.28.85-.49.24-.21.43-.47.56-.77.14-.31.21-.64.21-1.02s-.07-.71-.21-1.01c-.14-.3-.32-.55-.56-.76-.24-.21-.52-.36-.85-.47-.33-.11-.68-.16-1.07-.16s-.74.06-1.07.16c-.33.11-.61.27-.86.47-.24.21-.43.46-.56.76-.14.3-.2.63-.2,1.01h0ZM318.43,55.49"/><path class="cls-3" d="M329.56,55.45c0-.52.1-.99.29-1.44.19-.45.47-.84.84-1.16.37-.33.82-.59,1.36-.78.54-.19,1.16-.29,1.85-.29.25,0,.5.01.76.04.25.03.5.07.75.12.25.06.49.12.72.21.23.09.46.19.67.3l-.68,1.12c-.13-.07-.27-.14-.43-.2-.16-.06-.34-.11-.52-.16-.18-.04-.38-.07-.57-.09-.2-.02-.39-.04-.59-.04-.46,0-.87.06-1.23.18-.36.12-.66.28-.91.49-.25.21-.44.46-.57.75-.13.29-.2.61-.2.96s.07.69.2.99c.14.3.33.56.58.78.25.22.56.39.91.51.36.12.76.18,1.2.18.35,0,.67-.04.97-.12.29-.08.55-.19.76-.34.22-.15.39-.32.53-.53.14-.2.23-.44.27-.69h-2.54v-1.22h3.87s0,0,0,0c.07.37.1.74.07,1.09-.03.36-.11.69-.24,1-.13.31-.31.6-.54.86-.23.26-.5.48-.82.67-.32.19-.68.33-1.09.44-.41.11-.85.16-1.34.16-.68,0-1.28-.1-1.82-.3-.54-.2-.99-.47-1.36-.82-.38-.34-.66-.75-.86-1.21-.2-.46-.3-.96-.3-1.48h0ZM329.56,55.45"/><path class="cls-3" d="M344.9,57.35l-3.18-5.48h1.67l2.24,4.14,2.21-4.14h1.67l-3.14,5.47v1.81h-1.48v-1.8ZM344.9,57.35"/><path class="cls-4" d="M91.84,12.58v-6.78h-18.84v27.13h6.78v-10.17h9.8v-6.79h-9.8v-3.39h12.06ZM91.84,12.58"/><path class="cls-4" d="M103.52,5.79l-13.56,27.13h7.58l5.99-11.96,5.99,11.96h7.58l-13.57-27.13ZM103.52,5.79"/><path class="cls-4" d="M127.63,26.14V5.79h-6.78v27.13h18.84v-6.78h-12.06ZM127.63,26.14"/><path class="cls-4" d="M155.14,12.58h6.78v-6.78h-6.78c-7.48,0-13.57,6.09-13.57,13.57s6.09,13.56,13.57,13.56h6.78v-6.78h-6.78c-3.74,0-6.79-3.04-6.79-6.78s3.05-6.78,6.79-6.78h0ZM155.14,12.58"/><path class="cls-4" d="M177.75,5.42c-7.7,0-13.94,6.24-13.94,13.94s6.25,13.94,13.94,13.94,13.94-6.25,13.94-13.94-6.25-13.94-13.94-13.94h0ZM177.75,26.52c-3.95,0-7.16-3.21-7.16-7.16s3.21-7.16,7.16-7.16,7.16,3.21,7.16,7.16-3.21,7.16-7.16,7.16h0ZM177.75,26.52"/><path class="cls-4" d="M209.02,5.79v12.08l-13.57-12.45v27.5h6.79v-12.08l13.56,12.45V5.79h-6.78ZM209.02,5.79"/><path class="cls-4" d="M249.73,14.84l-13.56-9.04v27.13h6.78v-14.46l6.78,4.52,6.79-4.52v14.46h6.78V5.79l-13.57,9.04ZM249.73,14.84"/><path class="cls-4" d="M285.9,12.58v-6.78h-18.84v27.13h18.84v-6.78h-12.06v-3.39h9.8v-6.79h-9.8v-3.39h12.06ZM285.9,12.58"/><path class="cls-4" d="M298.37,5.79h-9.05v27.13h9.05c7.48,0,13.56-6.09,13.56-13.56s-6.09-13.57-13.56-13.57h0ZM296.11,12.58h2.26c3.73,0,6.78,3.04,6.78,6.78s-3.05,6.78-6.78,6.78h-2.26v-13.57ZM296.11,12.58"/><rect class="cls-4" x="315.71" y="5.79" width="6.78" height="27.13"/><path class="cls-4" d="M339.13,5.79l-13.56,27.13h7.58l5.98-11.96,5.99,11.96h7.58l-13.57-27.13ZM339.13,5.79"/><path class="cls-3" d="M21.87,3.17c2.58-1.49,5.15-1.49,7.73,0l18.01,10.4c1.94,1.12,3.15,2.67,3.63,4.64-2.24,2.37-5.92,5.11-11.24,5.56-5.1.45-9.11,2.38-11.85,5-.57-.72-1.43-1.19-2.42-1.19s-1.84.47-2.41,1.19c-2.74-2.62-6.75-4.55-11.86-5-5.32-.46-9-3.2-11.23-5.56.47-1.97,1.69-3.52,3.63-4.64L21.87,3.17Z"/><path class="cls-3" d="M51.47,41.06c0,2.97-1.29,5.2-3.86,6.68l-18.01,10.4c-2.58,1.49-5.15,1.49-7.73,0L3.86,47.74c-2.57-1.49-3.86-3.71-3.86-6.68v-15.53c.93,1.38,2.12,2.65,3.6,3.81,1.97,1.71,3.41,1.92,14.6,6.12,2.38.9,4.21,2.22,5.52,3.67-1.05,1.61-2.71,2.77-4.66,3.16,1.09,2.63,3.67,4.47,6.69,4.47s5.6-1.85,6.69-4.47c-1.95-.38-3.62-1.55-4.66-3.16,1.29-1.42,3.13-2.77,5.51-3.67,11.19-4.19,12.64-4.4,14.6-6.12,1.47-1.16,2.67-2.43,3.6-3.81v15.53Z"/><line class="cls-1" x1="71.1" y1="39.5" x2="352.59" y2="39.5"/><line class="cls-2" x1="60.71" y1="59.26" x2="60.34" y2="3.38"/></svg>