<svg id="Laag_1" data-name="Laag 1" xmlns="http://www.w3.org/2000/svg" viewBox="0 0 288.19 51.2"><defs><style>.cls-1{fill:#2d2d2b;}.cls-2{fill:#cd3425;}</style></defs><title>DEF_FMM_2018_logo_RGB</title><path class="cls-1" d="M67.12,40.74h1.25v7.32H67.12Z"/><path class="cls-1" d="M75.59,40.74l3.65,5v-5H80.5v7.32H79.37l-3.66-5v5H74.46V40.74Z"/><path class="cls-1" d="M87.83,41.93h-2V40.74H91.1v1.19h-2v6.13H87.83Z"/><path class="cls-1" d="M97.66,43.71h2.93V44.9H97.66v2h3.24v1.2H96.41V40.74h4.43v1.19H97.66Z"/><path class="cls-1" d="M106.5,40.74h2.41A2.24,2.24,0,0,1,111.33,43a2.11,2.11,0,0,1-1.63,2.19l1.83,2.85h-1.46l-1.74-2.76h-.57v2.76H106.5ZM110.06,43c0-.72-.5-1.09-1.31-1.09h-1V44.1h1C109.56,44.1,110.06,43.74,110.06,43Z"/><path class="cls-1" d="M118.12,40.74l3.66,5v-5H123v7.32H121.9l-3.66-5v5H117V40.74Z"/><path class="cls-1" d="M130.22,43.71h2.93V44.9h-2.93v2h3.24v1.2H129V40.74h4.43v1.19h-3.18Z"/><path class="cls-1" d="M140.45,41.93h-2V40.74h5.29v1.19h-2v6.13h-1.26Z"/><path class="cls-1" d="M155.69,40.74h2.49a2.34,2.34,0,1,1,0,4.68H157v2.64h-1.26Zm3.64,2.34c0-.69-.45-1.15-1.31-1.15H157v2.3H158C158.88,44.23,159.33,43.77,159.33,43.08Z"/><path class="cls-1" d="M166,40.74h2.4A2.25,2.25,0,0,1,170.83,43a2.12,2.12,0,0,1-1.63,2.19L171,48.06h-1.46l-1.73-2.76h-.58v2.76H166ZM169.55,43c0-.72-.5-1.09-1.31-1.09h-1V44.1h1C169.05,44.1,169.55,43.74,169.55,43Z"/><path class="cls-1" d="M183.46,44.4a3.7,3.7,0,1,1-3.7-3.79A3.64,3.64,0,0,1,183.46,44.4Zm-1.27,0A2.43,2.43,0,1,0,179.76,47,2.45,2.45,0,0,0,182.19,44.4Z"/><path class="cls-1" d="M190.24,43.72h2.87v1.19h-2.87v3.15H189V40.74h4.34v1.19h-3.08Z"/><path class="cls-1" d="M200.13,43.71h2.93V44.9h-2.93v2h3.24v1.2h-4.49V40.74h4.43v1.19h-3.18Z"/><path class="cls-1" d="M211.3,45c-1.08-.37-2.29-1-2.29-2.32a2.23,2.23,0,0,1,2.39-2.07,3.16,3.16,0,0,1,2.39,1.16l-.87.86a2.12,2.12,0,0,0-1.52-.83,1,1,0,0,0-1.12.88c0,.64.58.84,1.58,1.22s2,.91,2,2.24-1.17,2-2.55,2a3.21,3.21,0,0,1-2.68-1.49l.95-.8a2.22,2.22,0,0,0,1.73,1.1c.63,0,1.28-.25,1.28-.85S212.16,45.31,211.3,45Z"/><path class="cls-1" d="M221.91,45c-1.08-.37-2.29-1-2.29-2.32A2.23,2.23,0,0,1,222,40.61a3.13,3.13,0,0,1,2.38,1.16l-.86.86A2.12,2.12,0,0,0,222,41.8a1,1,0,0,0-1.12.88c0,.64.58.84,1.58,1.22s2.05.91,2.05,2.24-1.17,2-2.55,2a3.21,3.21,0,0,1-2.68-1.49l1-.8A2.22,2.22,0,0,0,222,47c.63,0,1.28-.25,1.28-.85S222.77,45.31,221.91,45Z"/><path class="cls-1" d="M230.34,40.74h1.26v7.32h-1.26Z"/><path class="cls-1" d="M244.66,44.4a3.7,3.7,0,1,1-3.7-3.79A3.64,3.64,0,0,1,244.66,44.4Zm-1.27,0A2.43,2.43,0,1,0,241,47,2.45,2.45,0,0,0,243.39,44.4Z"/><path class="cls-1" d="M251.31,40.74l3.66,5v-5h1.25v7.32h-1.13l-3.65-5v5h-1.26V40.74Z"/><path class="cls-1" d="M264.29,40.74h1.28l2.84,7.32h-1.26l-.67-1.74h-3.1l-.67,1.74h-1.26Zm-.46,4.43H266l-1.1-2.85Z"/><path class="cls-1" d="M273.64,40.74h1.25v6.12H278v1.2h-4.37Z"/><path class="cls-1" d="M285.57,45c-1.07-.37-2.29-1-2.29-2.32a2.23,2.23,0,0,1,2.4-2.07,3.15,3.15,0,0,1,2.38,1.16l-.87.86a2.09,2.09,0,0,0-1.51-.83,1,1,0,0,0-1.12.88c0,.64.57.84,1.58,1.22s2.05.91,2.05,2.24-1.17,2-2.55,2A3.21,3.21,0,0,1,283,46.69l.94-.8a2.24,2.24,0,0,0,1.74,1.1c.62,0,1.27-.25,1.27-.85S286.44,45.31,285.57,45Z"/><path class="cls-1" d="M72.2,14.41h9.08l-.66,3.76H71.54L69.79,28.1h-4L69.89,5h13.7l-.66,3.76H73.19Z"/><path class="cls-1" d="M86.12,12.46h4L87.35,28.1h-4ZM88.83,4.8a2.61,2.61,0,1,1-2.61,2.61A2.6,2.6,0,0,1,88.83,4.8Z"/><path class="cls-1" d="M105.4,12.56l-1.69,3.56a7.33,7.33,0,0,0-2.17-.36,5.16,5.16,0,0,0-3.87,2.11L95.89,28.1h-4l2.74-15.64h3.76L98,14.74s1.81-2.68,4.72-2.68A7.79,7.79,0,0,1,105.4,12.56Z"/><path class="cls-1" d="M121,18.66a14.63,14.63,0,0,1-.43,3H108.86a3.65,3.65,0,0,0,3.9,3.17,7.14,7.14,0,0,0,4.49-1.59l1.84,3a10.47,10.47,0,0,1-6.33,2.18c-5.25,0-7.76-3.53-7.76-7.43a9.07,9.07,0,0,1,8.81-9C118.2,12.06,121,14.7,121,18.66Zm-3.86.17c0-.1,0-.2,0-.3,0-1.32-1-2.87-3.4-2.87a4.74,4.74,0,0,0-4.52,3.17Z"/><path class="cls-1" d="M127.87,5l7.52,11.62L142.92,5h3.66V28.1h-4V12.59l-7.23,11-7.22-11V28.1h-4V5Z"/><path class="cls-1" d="M150.84,22.59V12.46h4v9c0,2.31,1.09,3.3,3.1,3.3a3.84,3.84,0,0,0,3.1-1.91V12.46h4V28.1h-3.69V25.83a5.64,5.64,0,0,1-10.43-3.24Z"/><path class="cls-1" d="M169.22,3.15h4v25h-4Z"/><path class="cls-1" d="M176.18,12.46h3.07V7.8h4v4.66h4.72V16h-4.72v6.31c0,1.91,1,2.47,2,2.47a3.14,3.14,0,0,0,1.65-.56l1.45,3.24a7.16,7.16,0,0,1-3.76,1A5.24,5.24,0,0,1,179.25,23V16h-3.07Z"/><path class="cls-1" d="M193.6,4.8A2.61,2.61,0,1,1,191,7.41,2.59,2.59,0,0,1,193.6,4.8Zm-2,7.66h4V28.1h-4Z"/><path class="cls-1" d="M223.64,18V28.1h-4v-9c0-2.15-.83-3.3-2.81-3.3a3.71,3.71,0,0,0-3.07,2V28.1h-4v-9c0-2.15-.82-3.3-2.8-3.3a3.71,3.71,0,0,0-3.07,2V28.1h-4V12.46h3.7v2.28a5.43,5.43,0,0,1,4.62-2.68,5,5,0,0,1,4.85,2.74,5.48,5.48,0,0,1,5-2.74C221.33,12.06,223.64,14.27,223.64,18Z"/><path class="cls-1" d="M242.12,20.22c0,.29,0,.89,0,1.48H230.4a4.46,4.46,0,0,0,4.39,3.17,6.28,6.28,0,0,0,4.29-1.59l2,3a10,10,0,0,1-6.27,2.24,8.23,8.23,0,0,1-8.42-8.22,7.88,7.88,0,1,1,15.75-.06Zm-4-1.39a4,4,0,0,0-7.75,0Z"/><path class="cls-1" d="M259.8,28.1h-3.66v-2a5.4,5.4,0,0,1-4.72,2.44c-4.06,0-7.62-3.4-7.62-8.22s3.56-8.22,7.62-8.22a5.57,5.57,0,0,1,4.42,2v-11h4Zm-4-10.16a4.33,4.33,0,0,0-3.73-2.18,4.19,4.19,0,0,0-4.29,4.52,4.18,4.18,0,0,0,4.29,4.52,4.33,4.33,0,0,0,3.73-2.18Z"/><path class="cls-1" d="M266.66,4.8a2.61,2.61,0,1,1-2.6,2.61A2.59,2.59,0,0,1,266.66,4.8Zm-2,7.66h4V28.1h-4Z"/><path class="cls-1" d="M286.8,17.9V28.1h-3.67v-2A6.32,6.32,0,0,1,278,28.5c-2.93,0-5.64-1.91-5.64-5.25,0-3,2.74-5.18,6.14-5.18a7.64,7.64,0,0,1,4.36,1.12V18.3c0-2.05-2-2.71-3.37-2.71a12.66,12.66,0,0,0-4.69,1.16l-1.28-3.27a15.81,15.81,0,0,1,6.17-1.42C284.16,12.06,286.8,14.34,286.8,17.9Zm-4,5.48V21.77a7.86,7.86,0,0,0-3.57-.8c-1.22,0-2.9.53-2.9,2.22s1.61,2,2.83,2A4.66,4.66,0,0,0,282.84,23.38Z"/><path class="cls-1" d="M20.85,28.26a46.58,46.58,0,0,0-8.77,5.64c7.7,9.17,17.27,16.68,24.2,17.25a8,8,0,0,0,6.52-2.09,120.9,120.9,0,0,1-7.25-13.79,6.92,6.92,0,0,1-2.95.34C28.78,35.3,24.37,32.26,20.85,28.26Z"/><path class="cls-2" d="M49.61,2.28c-1.08-.15-3.78.19-9.19-.21-2.72-.2-5.9-.53-9.3-.9a23.93,23.93,0,0,1,4.59,6c2.94.28,4.89.71,6.07,1.62C44.4,6.46,47,4.23,49.61,2.28Z"/><path class="cls-1" d="M27.16,7A37.11,37.11,0,0,0,22.21.29C11.16-.61.74.16.05,8.68c-.43,4.45,1.84,10.41,5.72,16.6a47.21,47.21,0,0,1,10.05-5,12.42,12.42,0,0,1-1-5.47C15.31,9.3,21.07,7.47,27.16,7Z"/><path class="cls-2" d="M40.31,30.54A85,85,0,0,0,46,43.79c3-8.62,2.42-22.52,3.18-31.15.4-5.82,1.19-8.55,1.16-9.63a99.73,99.73,0,0,0-6.84,9.53,26.88,26.88,0,0,1,0,4.55C43.07,21.37,42.23,26.66,40.31,30.54Z"/><path class="cls-1" d="M37.09,24.27c1.91-2.4,3.29-5.69,2.85-8.42-2.18.8-4.25,1.6-6.2,2.38a1.87,1.87,0,0,1,.11.89A2,2,0,0,1,31.78,21a2.16,2.16,0,0,1-1.92-2.11A2,2,0,0,1,32,17a2.09,2.09,0,0,1,.56.14,51.1,51.1,0,0,1,4-5.41c-3.72-1.59-9.54-.61-11.94,2.37-2.86,3.47,0,8.29,3.42,11.1S34.28,27.73,37.09,24.27Z"/></svg>