<svg width="500" height="380" viewBox="0 0 500 380" fill="none" xmlns="http://www.w3.org/2000/svg"><g clip-path="url(#clip0_18_2207)" fill-rule="evenodd" clip-rule="evenodd" fill="#000"><path d="M35.0544 178.841h-4.3819V0h4.3819v178.841zM4.38184 190.026H0V.000204h4.38184V190.026zm89.82806-33.555h4.3819V0h-4.3819v156.471zm-26.2918 11.182h-4.3818V0h4.3818v167.653zM0 380.28h4.38184v-87.239H0v87.239zm35.0544-.602h-4.3819V279.619h4.3819v100.059zm59.1555-.143h4.3819V255.014h-4.3819v124.521zm-26.2918-.316h-4.3818V266.201h4.3818v113.018zM288.574 380.281h-4.381V0h4.381v380.281zm-30.67 0h-4.384V.000204h4.384V380.281zm89.826 0h4.382V0h-4.382v380.281zm-26.292 0h-4.382V0h4.382v380.281zM495.618 380.28H500V112.675h-4.382V380.28zm-59.155.008h-4.382V135.57h4.382v244.718zm-30.673-.029h-4.382V147.02h4.382v233.239zm63.539-.008h-4.385V124.125h4.385v256.126z"/><path d="M0 195.556v-4.601l253.521-92.3622v4.7482L0 195.556zm0 100.223v-4.817l253.521-92.148v4.75L0 295.779zm0-38.161v4.751l253.521-92.213v-4.751L0 257.618zm0-28.655v-4.748l253.521-92.214v4.749L0 228.963zM401.409 44.5448v4.7279l98.592-36.0937V8.45117L401.409 44.5448zm-.001 69.9982v-4.723l98.591-36.094v4.7257l-98.591 36.0913zm0 34.753v-4.726l98.591-36.094v4.726l-98.591 36.094zm0-66.6799v-4.7256l98.591-36.0937v4.7257l-98.591 36.0936z"/></g><defs><clipPath id="clip0_18_2207"><path fill="#fff" d="M0 0h500v380H0z"/></clipPath></defs></svg>