<svg width="233" height="62" viewBox="0 0 233 62" fill="none" xmlns="http://www.w3.org/2000/svg">
<rect width="233" height="62" rx="10" fill="white" fill-opacity="0.35"/>
<path d="M62.0592 23.1467C61.4688 23.1467 60.9965 23.6191 60.9965 24.2096V30.4686C60.9965 30.941 60.6422 31.2953 60.1699 31.2953H50.9593C50.487 31.2953 50.1328 30.941 50.1328 30.4686V24.2096C50.1328 23.6191 49.6604 23.1467 49.07 23.1467C48.4796 23.1467 47.8892 23.6191 47.8892 24.2096V30.4686C47.8892 32.122 49.1881 33.421 50.8413 33.421H54.3838V38.9715C54.3838 39.562 54.8561 40.0343 55.4465 40.0343C56.0369 40.0343 56.5093 39.562 56.5093 38.9715V33.421H60.0518C61.705 33.421 63.0039 32.122 63.0039 30.4686V24.2096C63.122 23.6191 62.6496 23.1467 62.0592 23.1467Z" fill="#EB690B"/>
<path d="M199.745 19.4857C198.328 19.4857 197.265 20.6667 197.265 21.9657C197.265 23.3829 198.446 24.4457 199.745 24.4457C201.162 24.4457 202.225 23.2648 202.225 21.9657C202.225 20.5486 201.162 19.4857 199.745 19.4857ZM199.745 24.0914C198.564 24.0914 197.619 23.1467 197.619 21.9657C197.619 20.7848 198.564 19.84 199.745 19.84C200.926 19.84 201.87 20.7848 201.87 21.9657C201.87 23.1467 200.926 24.0914 199.745 24.0914ZM199.863 21.021H198.918L198.8 21.1391L198.682 21.2571V23.0286C198.682 23.1467 198.8 23.2648 198.918 23.2648C199.036 23.2648 199.155 23.1467 199.155 23.0286V21.3752H199.863C200.099 21.3752 200.217 21.4933 200.217 21.7295C200.217 21.9657 200.099 22.0838 199.863 22.0838H199.627C199.509 22.0838 199.391 22.2019 199.391 22.32C199.391 22.4381 199.509 22.5562 199.627 22.5562H199.863H199.981C200.099 22.5562 200.217 22.6743 200.217 22.7924V23.2648C200.217 23.3829 200.335 23.501 200.453 23.501C200.572 23.501 200.69 23.3829 200.69 23.2648V22.6743C200.69 22.5562 200.572 22.4381 200.572 22.32C200.69 22.2019 200.808 22.0838 200.808 21.8476C200.69 21.2571 200.335 21.021 199.863 21.021ZM41.867 23.1467C41.2766 23.1467 40.8042 23.6191 40.8042 24.2095V30.4686H31.5937V24.2095C31.5937 23.6191 31.1214 23.1467 30.5309 23.1467C29.9405 23.1467 29.3501 23.6191 29.3501 24.2095V38.9714C29.3501 39.5619 29.8224 40.0343 30.4129 40.0343C31.0033 40.0343 31.4756 39.5619 31.4756 38.9714V32.7124H40.8042V38.9714C40.8042 39.5619 41.2766 40.0343 41.867 40.0343C42.4574 40.0343 42.9297 39.5619 42.9297 38.9714V24.2095C43.0478 23.6191 42.4574 23.1467 41.867 23.1467ZM88.2739 25.2724H96.6578C97.2483 25.2724 97.7206 24.8 97.7206 24.2095C97.7206 23.6191 97.2483 23.1467 96.6578 23.1467H88.2739C86.7388 23.1467 85.558 24.3276 85.558 25.8629V37.2C85.558 38.7352 86.7388 39.9162 88.2739 39.9162H96.6578C97.2483 39.9162 97.7206 39.4438 97.7206 38.8533C97.7206 38.2629 97.2483 37.7905 96.6578 37.7905H88.2739C87.9196 37.7905 87.6835 37.5543 87.6835 37.2V32.4762H95.0047C95.5951 32.4762 96.0674 32.0038 96.0674 31.4133C96.0674 30.8229 95.5951 30.3505 95.0047 30.3505H87.6835V25.8629C87.6835 25.5086 87.9196 25.2724 88.2739 25.2724ZM135.271 23.1467C134.681 23.1467 134.208 23.6191 134.208 24.2095V35.901L124.053 23.501C123.817 23.1467 123.345 23.0286 122.872 23.1467C122.4 23.2648 122.164 23.7371 122.164 24.2095V38.9714C122.164 39.5619 122.636 40.0343 123.227 40.0343C123.817 40.0343 124.289 39.5619 124.289 38.9714V27.1619L134.445 39.5619C134.681 39.9162 135.153 40.0343 135.625 39.9162C136.098 39.7981 136.334 39.3257 136.334 38.8533V24.2095C136.334 23.6191 135.862 23.1467 135.271 23.1467ZM184.748 25.2724H193.132C193.723 25.2724 194.195 24.8 194.195 24.2095C194.195 23.6191 193.723 23.1467 193.132 23.1467H184.748C183.213 23.1467 182.032 24.3276 182.032 25.8629V37.2C182.032 38.7352 183.213 39.9162 184.748 39.9162H193.132C193.723 39.9162 194.195 39.4438 194.195 38.8533C194.195 38.2629 193.723 37.7905 193.132 37.7905H184.748C184.394 37.7905 184.158 37.5543 184.158 37.2V32.4762H191.479C192.07 32.4762 192.542 32.0038 192.542 31.4133C192.542 30.8229 192.07 30.3505 191.479 30.3505H184.158V25.8629C184.158 25.5086 184.512 25.2724 184.748 25.2724ZM77.6464 23.8552C76.5836 23.3829 75.4028 23.1467 73.8677 23.1467H68.9082C68.3177 23.1467 67.8454 23.6191 67.8454 24.2095V38.9714C67.8454 39.5619 68.3177 40.0343 68.9082 40.0343C69.4986 40.0343 69.9709 39.5619 69.9709 38.9714V34.1295H73.8677C75.6389 34.1295 77.2921 33.6571 78.4729 32.7124C79.6538 31.7676 80.3623 30.3505 80.3623 28.6971V28.5791C80.3623 27.7524 80.2442 27.0438 80.008 26.3352C79.5357 25.2724 78.7091 24.3276 77.6464 23.8552ZM78.2368 28.5791C78.2368 29.6419 77.8825 30.3505 77.174 30.941C76.4655 31.5314 75.4028 31.8857 73.8677 31.8857H69.9709V25.2724H73.8677C75.5209 25.2724 76.5836 25.6267 77.174 26.0991C77.4102 26.3352 77.6464 26.5714 77.8825 27.0438C78.1187 27.3981 78.1187 27.9886 78.2368 28.5791ZM113.898 23.8552C112.953 23.3829 111.654 23.1467 110.356 23.1467H104.333C103.743 23.1467 103.271 23.6191 103.271 24.2095V38.9714C103.271 39.5619 103.743 40.0343 104.333 40.0343C104.924 40.0343 105.278 39.5619 105.278 38.9714V25.2724H110.356C112.009 25.2724 112.953 25.6267 113.544 26.0991C113.78 26.3352 114.016 26.5714 114.134 26.9257C114.252 27.28 114.37 27.7524 114.37 28.3429C114.37 29.2876 114.016 29.9962 113.308 30.4686C112.599 30.941 111.654 31.2952 110.237 31.2952H108.23C107.64 31.2952 107.167 31.7676 107.167 32.3581C107.167 32.9486 107.64 33.421 108.23 33.421H112.245C113.308 33.421 114.134 34.2476 114.134 35.3105V38.6171C114.134 39.2076 114.607 39.68 115.197 39.68C115.787 39.68 116.26 39.2076 116.26 38.6171V35.4286C116.26 34.0114 115.551 32.8305 114.607 32.1219C115.787 31.1771 116.378 29.8781 116.378 28.3429C116.378 27.5162 116.26 26.8076 116.024 26.2171C115.669 25.1543 114.843 24.3276 113.898 23.8552ZM149.441 22.6743C147.08 22.6743 144.954 23.6191 143.419 25.2724C141.884 26.8076 140.939 29.0514 140.939 31.4133C140.939 33.7752 141.884 36.0191 143.419 37.5543C144.954 39.0895 147.08 40.1524 149.441 40.1524C151.803 40.1524 153.928 39.2076 155.464 37.5543C156.999 36.0191 157.943 33.7752 157.943 31.4133C157.943 29.0514 156.999 26.8076 155.464 25.2724C153.928 23.6191 151.803 22.6743 149.441 22.6743ZM153.928 36.0191C152.748 37.2 151.213 37.9086 149.441 37.9086C147.67 37.9086 146.135 37.2 144.954 36.0191C143.773 34.8381 143.065 33.1848 143.065 31.4133C143.065 29.6419 143.773 27.9886 144.954 26.8076C146.135 25.6267 147.67 24.9181 149.441 24.9181C151.213 24.9181 152.748 25.6267 153.928 26.8076C155.109 27.9886 155.818 29.6419 155.818 31.4133C155.818 33.1848 155.109 34.8381 153.928 36.0191ZM168.689 23.1467H163.257C163.021 23.1467 162.667 23.2648 162.549 23.501C162.312 23.7371 162.194 23.9733 162.194 24.2095V38.9714C162.194 39.2076 162.312 39.5619 162.549 39.68C162.785 39.9162 163.021 40.0343 163.257 40.0343H168.689C173.294 40.0343 177.073 36.2552 177.073 31.6495C177.191 26.9257 173.412 23.1467 168.689 23.1467ZM173.176 36.0191C171.995 37.2 170.46 37.7905 168.689 37.7905H164.32V25.2724H168.689C170.46 25.2724 171.995 25.981 173.176 27.0438C174.357 28.1067 174.947 29.76 174.947 31.5314C174.947 33.3029 174.357 34.8381 173.176 36.0191Z" fill="#00366C"/>
</svg>
