<svg xmlns="http://www.w3.org/2000/svg" xml:space="preserve" id="Laag_1" x="0" y="0" version="1.1"
     viewBox="0 0 6576 1631">
<path d="M3877.06 1533.77C3865.93 1522.64 3860.37 1509.42 3860.37 1494.09V144.58C3860.37 129.256 3865.93 116.03 3877.06 104.902C3888.18 93.7737 3901.41 88.2096 3916.73 88.2096H4988.18C5003.5 88.2096 5016.72 93.7737 5027.85 104.902C5038.98 116.03 5044.54 129.256 5044.54 144.58V439.11C5044.54 454.434 5038.98 467.66 5027.85 478.788C5016.72 489.916 5003.5 495.48 4988.18 495.48H4361.58V627.102H4800.23C4815.55 627.102 4828.77 632.666 4839.9 643.794C4851.02 654.922 4856.58 668.149 4856.58 683.472V955.017C4856.58 970.341 4851.02 983.567 4839.9 994.695C4828.77 1005.82 4815.55 1011.39 4800.23 1011.39H4361.58V1143.01H5004.87C5020.19 1143.01 5033.41 1148.57 5044.54 1159.7C5055.66 1170.83 5061.23 1184.06 5061.23 1199.38V1493.91C5061.23 1509.23 5055.66 1522.46 5044.54 1533.59C5033.41 1544.72 5020.19 1550.28 5004.87 1550.28H3916.73C3901.41 1550.28 3888.18 1544.72 3877.06 1533.59V1533.77Z"
      fill="#242738"></path>
    <path d="M1836.12 1532.22C1822.54 1532.22 1810.77 1526.75 1800.92 1515.71C1790.98 1504.67 1786.06 1491.63 1786.06 1476.4V1068.4L1369.3 146.678C1368.02 143.941 1367.11 140.84 1366.47 137.374C1365.83 133.999 1365.56 130.807 1365.56 128.07C1365.56 115.665 1369.57 104.993 1377.59 95.9628C1385.62 87.0238 1395.2 82.4631 1406.32 82.4631H1754.6C1779.31 82.4631 1797.82 89.3954 1810.13 103.169C1822.44 116.942 1829.83 127.34 1832.38 134.273L2017.69 550.574L2202.91 134.273C2205.37 127.34 2212.76 117.033 2225.16 103.169C2237.47 89.3954 2255.99 82.4631 2280.7 82.4631H2628.97C2640.1 82.4631 2649.68 86.9326 2657.7 95.9628C2665.73 104.902 2669.74 115.665 2669.74 128.07C2669.74 130.898 2669.37 133.999 2668.83 137.374C2668.19 140.84 2667.28 143.941 2666 146.678L2249.24 1068.3V1476.31C2249.24 1491.54 2244.31 1504.58 2234.37 1515.62C2224.43 1526.66 2212.76 1532.13 2199.17 1532.13H1836.12V1532.22Z"
          fill="#242738"></path>
    <path d="M114.361 1532.95C100.956 1532.95 89.4649 1527.75 79.7983 1517.44C70.0404 1507.04 65.207 1493.64 65.207 1477.03V138.377C65.207 123.145 70.0404 110.101 79.7983 98.9729C89.4649 88.0272 100.956 82.4632 114.361 82.4632H470.934C484.249 82.4632 495.739 88.0272 505.497 99.0641C515.164 110.101 520.089 123.236 520.089 138.469V573.651H814.831V138.377C814.831 123.145 819.665 110.101 829.423 98.9729C839.089 87.936 850.58 82.3719 863.985 82.3719H1220.56C1233.87 82.3719 1245.36 87.936 1255.12 98.9729C1264.79 110.01 1269.71 123.145 1269.71 138.377V1476.94C1269.71 1492.18 1264.88 1505.31 1255.12 1516.35C1245.36 1527.38 1233.87 1532.95 1220.56 1532.95H863.985C850.671 1532.95 839.089 1527.48 829.423 1516.35C819.665 1505.31 814.831 1492.18 814.831 1476.94V1029.36H520.089V1476.94C520.089 1492.18 515.255 1505.31 505.497 1516.35C495.739 1527.38 484.249 1532.95 470.934 1532.95H114.361Z"
          fill="#242738"></path>
    <path d="M3696.72 313.964C3650.85 238.074 3586.65 181.704 3504.21 144.762C3421.68 107.912 3324.83 89.3954 3213.57 89.3954H2873.78C2873.78 89.3954 2873.59 90.0339 2873.41 90.3075L2601.83 690.77V1495.28C2601.83 1510.6 2606.67 1523.83 2616.51 1534.96C2626.27 1546.08 2637.85 1551.65 2651.35 1551.65H3035.56C3048.96 1551.65 3060.63 1546.08 3070.39 1534.96C3080.15 1523.83 3085.08 1510.6 3085.08 1495.28V1096.31H3213.48C3324.74 1096.31 3421.59 1079.25 3504.12 1045.14C3586.65 1011.02 3650.85 957.388 3696.63 884.235C3742.5 811.081 3765.39 716.766 3765.39 601.197C3765.39 485.629 3742.41 389.854 3696.63 313.964H3696.72ZM3261.17 683.655C3248.31 695.786 3235.91 702.08 3222.42 705.911C3212.48 708.739 3202.08 709.833 3191.77 709.833H3075.96V477.967H3191.14C3203.72 477.967 3216.31 479.609 3228.16 483.623C3246.22 489.825 3260.08 500.132 3271.2 517.645C3286.71 541.999 3288.62 570.549 3288.62 597.002C3288.62 637.409 3279.41 666.324 3261.17 683.655Z"
          fill="#242738"></path>
    <path d="M6508.22 1477.67L6256.07 1000.72C6324.37 956.111 6378.36 899.285 6418.03 830.236C6457.7 761.187 6477.49 681.375 6477.49 590.708C6477.49 431.722 6422.13 307.306 6311.42 217.278C6200.71 127.34 6046.95 82.3719 5850.16 82.3719H5243.25C5228.2 82.3719 5215.25 87.936 5204.31 99.0641C5193.37 110.283 5187.9 123.509 5187.9 138.833V1490.17C5187.9 1505.49 5193.37 1518.81 5204.31 1529.94C5215.25 1541.16 5228.2 1546.63 5243.25 1546.63H5645.06C5660.11 1546.63 5673.06 1541.07 5684 1529.94C5694.94 1518.81 5700.41 1505.58 5700.41 1490.17V1090.65H5784.5L5960.78 1490.17C5966.25 1504.13 5976.1 1517.08 5990.51 1528.84C6004.91 1540.7 6024.34 1546.63 6048.96 1546.63H6469.28C6481.59 1546.63 6492.17 1542.16 6501.02 1533.04C6509.86 1524.01 6514.33 1513.16 6514.33 1500.66C6514.33 1493.73 6512.23 1486.07 6508.22 1477.67ZM5992.33 705.638C5949.38 759.91 5874.23 769.943 5809.48 757.994C5746.1 746.137 5683.09 722.147 5634.3 679.733C5628 673.074 5625.36 667.693 5631.11 665.959C5635.03 664.956 5639.49 665.595 5643.69 666.142C5658.1 668.605 5673.78 670.064 5686.19 663.77C5706.8 653.828 5711.9 627.376 5707.53 606.67C5701.69 574.745 5681.54 546.013 5655.82 525.49C5611.95 492.562 5538.82 467.66 5483.64 474.866C5477.81 475.869 5474.16 476.599 5474.07 476.234C5590.89 417.401 5773.64 346.163 5909.98 394.233L5910.71 394.506C6035.28 439.019 6072.76 604.664 5992.42 705.638H5992.33Z"
          fill="#242738"></path>
</svg>
