<svg xmlns="http://www.w3.org/2000/svg" xml:space="preserve" id="Laag_1" x="0" y="0" version="1.1" viewBox="0 0 384.9 100.41">
  <style>
    .st0{fill:#242738}.st1{fill:#01fe87}
  </style>
  <path d="M3.39 100.4c-.92 0-1.72-.36-2.39-1.07-.67-.72-1-1.64-1-2.79V4.15C0 3.1.33 2.19 1 1.43 1.67.67 2.46.29 3.39.29h24.62c.92 0 1.72.38 2.39 1.14.67.76 1 1.67 1 2.72v30.04h20.35V4.15c0-1.05.33-1.95 1-2.72.67-.76 1.46-1.14 2.39-1.14h24.62c.92 0 1.72.38 2.39 1.14.67.76 1 1.67 1 2.72v92.4c0 1.05-.34 1.96-1 2.72-.67.76-1.47 1.14-2.39 1.14H55.13c-.92 0-1.72-.38-2.39-1.14-.67-.76-1-1.67-1-2.72v-30.9H31.4v30.89c0 1.05-.34 1.96-1 2.72-.67.76-1.47 1.14-2.39 1.14H3.39zM122.32 100.4c-.92 0-1.72-.38-2.39-1.14-.67-.76-1-1.67-1-2.72V68.37L90.68 4.72c-.08-.19-.15-.4-.19-.64-.04-.24-.06-.45-.06-.64 0-.86.27-1.6.82-2.22.54-.62 1.19-.93 1.95-.93h23.61c1.67 0 2.93.48 3.77 1.43.84.95 1.34 1.67 1.51 2.15l12.56 28.75 12.56-28.75c.17-.48.67-1.19 1.51-2.15.84-.95 2.09-1.43 3.77-1.43h23.61c.75 0 1.4.31 1.95.93.54.62.82 1.36.82 2.22 0 .19-.02.41-.06.64-.04.24-.11.45-.19.64l-28.26 63.65v28.18c0 1.05-.34 1.96-1 2.72-.67.76-1.47 1.14-2.39 1.14h-24.65zM189.51 100.41c-.92 0-1.72-.38-2.39-1.14-.67-.76-1-1.67-1-2.72V4.15c0-1.05.33-1.95 1-2.72.67-.76 1.46-1.14 2.39-1.14h38.5c7.62 0 14.25 1.26 19.91 3.79 5.65 2.53 10.05 6.39 13.19 11.59 3.14 5.2 4.71 11.75 4.71 19.67 0 7.92-1.57 14.37-4.71 19.38-3.14 5.01-7.54 8.68-13.19 11.01-5.65 2.34-12.29 3.5-19.91 3.5h-8.79v27.32c0 1.05-.34 1.96-1 2.72-.67.76-1.47 1.14-2.39 1.14h-26.32zm29.08-57.64h7.89c.77 0 1.54-.08 2.27-.3.87-.26 1.69-.69 2.53-1.49 1.25-1.19 1.88-3.17 1.88-5.94 0-1.81-.13-3.77-1.19-5.44-.75-1.17-1.67-1.87-2.87-2.3-.87-.31-1.79-.42-2.71-.42h-7.79v15.89zM313.22 66.85c.47-.05.93-.11 1.39-.17.14-.02.29-.03.43-.05.52-.08 1.03-.17 1.55-.27.09-.02.17-.03.26-.05.54-.11 1.08-.23 1.62-.37.05-.01.11-.02.16-.04.53-.13 1.05-.28 1.57-.44.06-.02.12-.03.18-.05.5-.15 1-.32 1.5-.5.07-.03.15-.05.23-.08.47-.17.93-.35 1.39-.54l.3-.12c.43-.18.84-.37 1.26-.56.13-.06.27-.12.4-.18.38-.18.75-.38 1.13-.57.16-.08.33-.16.49-.25.33-.18.66-.37.99-.56.2-.11.4-.22.59-.34.28-.17.56-.36.84-.54.23-.15.46-.29.69-.44.24-.16.47-.34.71-.5.26-.18.51-.36.76-.55.2-.15.4-.31.6-.47.28-.22.55-.43.82-.65.17-.14.33-.29.5-.44.29-.25.58-.5.86-.76.15-.14.29-.29.44-.43.27-.26.54-.51.79-.77.02-.02.04-.05.07-.07l.03-.03c.11-.11.21-.23.32-.35.26-.27.51-.54.76-.82.12-.13.22-.27.34-.4.24-.28.48-.56.71-.85.11-.14.21-.28.32-.41.22-.29.45-.58.66-.87.11-.15.21-.3.31-.45.2-.29.41-.58.6-.87l.3-.48c.18-.29.37-.58.54-.87.1-.17.19-.34.28-.51.16-.29.33-.58.49-.88.09-.17.17-.35.26-.52.15-.3.3-.6.44-.9.08-.17.15-.35.23-.52.14-.31.27-.62.4-.93.07-.17.13-.35.2-.52.12-.32.24-.63.36-.95.06-.17.11-.34.17-.52.11-.33.22-.65.31-.98.05-.17.09-.34.14-.51.09-.34.19-.67.27-1.01.04-.17.07-.34.11-.51.08-.34.15-.69.22-1.03l.09-.51c.06-.35.12-.69.17-1.04l.06-.54c.04-.34.08-.68.11-1.03.02-.19.03-.39.04-.58.02-.33.05-.66.06-.99.01-.22.01-.44.01-.66 0-.26.02-.51.01-.77v-.27c-.01-.6-.04-1.19-.08-1.77-.02-.34-.06-.68-.1-1.02-.04-.42-.1-.84-.16-1.26-.02-.13-.03-.27-.05-.4h-.01C342.05 12.46 326.97 0 309 0h-22.59c-1.96 0-3.77 1.02-4.75 2.67l-9.11 15.43c-.72 1.22-.74 2.69-.05 3.92.71 1.28 2.08 2.08 3.57 2.08h33.46c4.88 0 9.03 3.2 10.01 7.49.05.23.1.47.13.7 0 .01 0 .03.01.04.04.28.06.55.08.83.01.16.01.31.01.47 0 .17-.02.34-.03.52-.01.15-.02.29-.04.44-.01.11-.04.21-.05.32-.28 1.66-1.03 3.23-2.23 4.55-2.02 2.22-5.01 3.49-8.22 3.49h-25.93l-.02-.01-.01.01-.28.47-5.93 10.07-5.08 8.63c-.96 1.63-.64 3.65.76 4.91l35.31 31.89c1.02.92 2.34 1.42 3.73 1.42h28.95c1.73 0 3.22-1.03 3.8-2.63.56-1.53.12-3.22-1.12-4.3l-31.52-26.45c.15-.01.3-.02.46-.03.31-.03.61-.05.9-.08z" class="st0"/>
  <path id="Path_188_00000021105142540770144350000014305438618768095381_" d="M367.13 9.13v4.9h-4.9c-.4 0-.73.33-.73.73v2.28c0 .4.33.73.73.73h4.9v4.9c0 .4.33.73.73.73h2.28c.4 0 .73-.33.73-.73v-4.9h4.89c.4 0 .73-.33.73-.73v-2.28c0-.4-.33-.73-.73-.73h-4.89v-4.9c0-.4-.33-.73-.73-.73h-2.28c-.4 0-.73.33-.73.73z" class="st1"/>
  <path d="M369 31.79c-8.76 0-15.9-7.13-15.9-15.9S360.23-.01 369-.01s15.9 7.13 15.9 15.9-7.13 15.9-15.9 15.9zm0-28.71c-7.07 0-12.81 5.75-12.81 12.81 0 7.06 5.75 12.81 12.81 12.81 7.07 0 12.81-5.75 12.81-12.81.01-7.06-5.74-12.81-12.81-12.81z" class="st1"/>
</svg>
