<svg xmlns="http://www.w3.org/2000/svg" xml:space="preserve" viewBox="149.88 119.78 256.82 58.3" class="h-10 lg:h-14"><defs><clipPath id="a" clipPathUnits="userSpaceOnUse"><path d="M0 223.397h417.44V0H0Z"></path></clipPath></defs><path d="M0 0h417.44v223.397H0Z" style="fill:none;fill-opacity:1;fill-rule:nonzero;stroke:none;" transform="matrix(1.33333 0 0 -1.33333 0 297.863)"></path><g clip-path="url(#a)" transform="matrix(1.33333 0 0 -1.33333 0 297.863)"><path d="M0 0a5.737 5.737 0 0 1-3.872-10.801l5.4-1.936 1.936 5.401A5.736 5.736 0 0 1 0 0" style="fill:#e33f5a;fill-opacity:1;fill-rule:nonzero;stroke:none;" transform="translate(130.473 123.8)"></path><path d="M0 0a5.737 5.737 0 0 0-3.872-10.801l-5.4 1.936 1.936 5.4A5.737 5.737 0 0 0 0 0" style="fill:#e33f5a;fill-opacity:1;fill-rule:nonzero;stroke:none;" transform="translate(144.818 118.657)"></path><path d="M0 0a7.328 7.328 0 0 1-.97 2.286 7.789 7.789 0 0 1-4.017 3.252 7.779 7.779 0 0 1-5.164.05 7.667 7.667 0 0 1-2.224-1.151A7.86 7.86 0 0 1-15.087.776c-1.468-4.094.67-8.622 4.775-10.093 4.105-1.472 8.612.673 10.08 4.768A7.867 7.867 0 0 1 0 0" style="fill:#e33f5a;fill-opacity:1;fill-rule:nonzero;stroke:none;" transform="translate(140.664 110.168)"></path><path d="M0 0c-4.072 1.46-8.354 1.503-12.382.125a18.5 18.5 0 0 1-5.347-2.764 18.857 18.857 0 0 1-6.506-8.784c-3.523-9.827 1.617-20.691 11.458-24.219C-2.965-39.16 7.884-34.027 11.406-24.2a18.854 18.854 0 0 1 .557 10.915l-.004.017a17.447 17.447 0 0 1-2.313 5.451A18.579 18.579 0 0 1 0 0m-13.737-38.32c-11.318 4.057-17.229 16.554-13.177 27.857A21.704 21.704 0 0 0-19.431-.359a21.333 21.333 0 0 0 6.152 3.184C-8.657 4.406-3.725 4.358.96 2.678c4.665-1.672 8.501-4.777 11.094-8.98a20.2 20.2 0 0 0 2.673-6.311 21.692 21.692 0 0 0-.643-12.547C10.032-36.463-2.449-42.367-13.737-38.32" style="fill:#e33f5a;fill-opacity:1;fill-rule:nonzero;stroke:none;" transform="translate(140.62 129.445)"></path><path d="m0 0-4.752 7.646H-9.04v-18.081h3.901V1.292l5.035-7.646H0l5.089 7.722v-11.803H9.04V7.646H4.752Z" style="fill:currentColor;fill-opacity:1;fill-rule:nonzero;stroke:none;" transform="translate(174.532 125.775)"></path><path d="m0 0 2.4-5.864.478-1.18H-2.88l.477 1.18zm-4.289-10.52h8.578l1.187-2.911h4.157L1.884 4.777h-3.668l-7.748-18.208h4.056z" style="fill:currentColor;fill-opacity:1;fill-rule:nonzero;stroke:none;" transform="translate(201.057 128.77)"></path><path d="M0 0h3.073c3.249 0 5.466-2.242 5.466-5.44v-.051c0-3.199-2.217-5.39-5.466-5.39H0Zm12.695-5.44v.05c0 5.088-3.929 8.992-9.622 8.992h-7.052v-18.085h7.052c5.693 0 9.622 3.954 9.622 9.043" style="fill:currentColor;fill-opacity:1;fill-rule:nonzero;stroke:none;" transform="translate(222.613 129.823)"></path><path d="M0 0h-9.815v3.798h8.526v3.537h-8.526v3.67h9.687v3.538h-13.638v-18.08H0Z" style="fill:currentColor;fill-opacity:1;fill-rule:nonzero;stroke:none;" transform="translate(257.771 118.877)"></path><path d="M0 0c0-2.267-1.965-3.703-5.063-3.703h-6.574v7.255h6.121C-1.915 3.552 0 2.292 0 .05Zm-11.637 11.915h6.095c2.922 0 4.535-1.361 4.535-3.351v-.05c0-2.393-1.965-3.703-4.66-3.703h-5.97zm8.916-7.558C-1.26 4.987.352 6.171.352 8.64v.05c0 1.134-.377 2.065-1.158 2.847-1.007 1.007-2.645 1.611-4.71 1.611h-7.456V-4.937h7.858c3.88 0 6.474 1.914 6.474 4.937v.05c0 2.469-1.914 3.753-4.081 4.307" style="fill:currentColor;fill-opacity:1;fill-rule:nonzero;stroke:none;" transform="translate(279.968 120.277)"></path><path d="M0 0h1.343v7.18l7.749 10.9H7.49L.699 8.369l-6.77 9.711h-1.678L0 7.153Z" style="fill:currentColor;fill-opacity:1;fill-rule:nonzero;stroke:none;" transform="translate(295.919 115.34)"></path><path d="m0 0-4.752 7.646H-9.04v-18.081h3.901V1.292l5.035-7.646H0l5.089 7.722v-11.803H9.04V7.646H4.752Z" style="fill:currentColor;fill-opacity:1;fill-rule:nonzero;stroke:none;" transform="translate(174.532 100.586)"></path><path d="M0 0c0-3.098-2.216-5.642-5.415-5.642s-5.466 2.595-5.466 5.693v.05c0 3.098 2.216 5.617 5.415 5.617S0 3.149 0 .051Zm-5.415 9.396c-5.567 0-9.623-4.207-9.623-9.345V0c0-5.139 3.98-9.294 9.572-9.294 5.567 0 9.623 4.206 9.623 9.345v.05c0 5.138-3.98 9.295-9.572 9.295" style="fill:currentColor;fill-opacity:1;fill-rule:nonzero;stroke:none;" transform="translate(207.323 99.143)"></path><path d="M0 0c0-2.893-1.446-4.339-3.899-4.339-2.452 0-3.899 1.495-3.899 4.467v10.228h-3.98V.024c0-5.347 2.972-8.033 7.827-8.033C.905-8.009 3.98-5.323 3.98.152v10.204H0Z" style="fill:currentColor;fill-opacity:1;fill-rule:nonzero;stroke:none;" transform="translate(231.687 97.875)"></path><path d="M0 0c-3.126.827-3.899 1.161-3.899 2.376v.05c0 .905.773 1.576 2.322 1.576 1.55 0 3.075-.671 4.703-1.783l2.066 2.996c-1.859 1.473-4.056 2.3-6.715 2.3-3.719 0-6.329-2.17-6.329-5.449v-.054c0-3.562 2.325-4.622 5.992-5.525 3.024-.75 3.643-1.294 3.643-2.299v-.052c0-1.058-.957-1.705-2.61-1.705-2.066 0-3.746.854-5.399 2.197l-2.349-2.817c2.169-1.963 4.907-2.893 7.672-2.893 3.899 0 6.637 2.015 6.637 5.606v.05C5.734-2.273 3.667-.984 0 0" style="fill:currentColor;fill-opacity:1;fill-rule:nonzero;stroke:none;" transform="translate(252.22 100.974)"></path><path d="M0 0h8.521v3.537H0v3.67h9.685v3.538H-3.953v-18.08H9.815v3.537H0Z" style="fill:currentColor;fill-opacity:1;fill-rule:nonzero;stroke:none;" transform="translate(270.533 97.487)"></path><path d="M0 0c-3.126.827-3.899 1.161-3.899 2.376v.05c0 .905.773 1.576 2.322 1.576 1.55 0 3.075-.671 4.703-1.783l2.067 2.996c-1.86 1.473-4.056 2.3-6.715 2.3-3.72 0-6.33-2.17-6.33-5.449v-.054c0-3.562 2.325-4.622 5.993-5.525 3.023-.75 3.643-1.294 3.643-2.299v-.052c0-1.058-.957-1.705-2.61-1.705-2.067 0-3.747.854-5.4 2.197l-2.349-2.817c2.17-1.963 4.908-2.893 7.672-2.893 3.899 0 6.637 2.015 6.637 5.606v.05C5.734-2.273 3.668-.984 0 0" style="fill:currentColor;fill-opacity:1;fill-rule:nonzero;stroke:none;" transform="translate(296.384 100.974)"></path></g></svg>