<?xml version="1.0" encoding="UTF-8"?><svg id="Layer_2" xmlns="http://www.w3.org/2000/svg" viewBox="0 0 850.3034 177.7203"><g id="Layer_1-2"><path d="M110,175.7203h-32.5v-65.75c0-10.1641-1.793-17.625-5.375-22.375-3.5859-4.75-9.293-7.125-17.125-7.125s-13.543,2.375-17.125,7.125c-3.5859,4.75-5.375,12.2109-5.375,22.375v65.75H0v-65.75c0-20.332,5-35.625,15-45.875s23.332-15.375,40-15.375,30,5.125,40,15.375,15,25.543,15,45.875v65.75Z" style="fill:#000; stroke-width:0px;"/><path d="M219.25,57.3453c9.9141,5.75,17.75,13.5859,23.5,23.5,5.75,9.918,8.625,20.7109,8.625,32.375s-2.875,22.4609-8.625,32.375c-5.75,9.918-13.5859,17.75-23.5,23.5-9.918,5.75-20.7109,8.625-32.375,8.625s-22.4609-2.875-32.375-8.625c-9.918-5.75-17.75-13.582-23.5-23.5-5.75-9.9141-8.625-20.707-8.625-32.375s2.875-22.457,8.625-32.375c5.75-9.9141,13.582-17.75,23.5-23.5,9.9141-5.75,20.707-8.625,32.375-8.625s22.457,2.875,32.375,8.625ZM164.125,89.8453c-6.168,6.25-9.25,14.043-9.25,23.375s3.082,17.125,9.25,23.375c6.1641,6.25,13.832,9.375,23,9.375s16.75-3.125,22.75-9.375,9-14.0391,9-23.375-3-17.125-9-23.375-13.5859-9.375-22.75-9.375-16.8359,3.125-23,9.375Z" style="fill:#000; stroke-width:0px;"/><path d="M450.9515,169.0953c-9.8359-5.75-17.668-13.582-23.5-23.5-5.8359-9.9141-8.75-20.707-8.75-32.375s2.9141-22.457,8.75-32.375c5.832-9.9141,13.6641-17.75,23.5-23.5,9.832-5.75,20.582-8.625,32.25-8.625s22.4141,2.875,32.25,8.625c9.832,5.75,17.625,13.5859,23.375,23.5,5.75,9.918,8.625,20.7109,8.625,32.375v62.5h-32.5v-13.25c-1.8359,4.168-5.8359,7.75-12,10.75-6.168,3-12.75,4.5-19.75,4.5-11.668,0-22.418-2.875-32.25-8.625ZM506.2015,136.5953c6-6.25,9-14.0391,9-23.375s-3-17.125-9-23.375-13.5859-9.375-22.75-9.375-16.8359,3.125-23,9.375c-6.168,6.25-9.25,14.043-9.25,23.375s3.082,17.125,9.25,23.375c6.1641,6.25,13.832,9.375,23,9.375s16.75-3.125,22.75-9.375Z" style="fill:#000; stroke-width:0px;"/><path d="M563.2697,175.7203V.7203h32.5v175h-32.5Z" style="fill:#000; stroke-width:0px;"/><path d="M729.8877,81.3453c5.582-9.9141,13.25-17.832,23-23.75,9.75-5.9141,20.457-8.875,32.125-8.875,10.6641,0,20.9141,2.4609,30.75,7.375,9.832,4.918,17.957,12.043,24.375,21.375,6.4141,9.3359,9.7891,20.3359,10.125,33,.1641,5.3359-.168,10.5-1,15.5h-92.75c1.5,6.168,4.7891,11.043,9.875,14.625,5.082,3.5859,11.2891,5.375,18.625,5.375,5.1641,0,9.375-.6641,12.625-2,3.25-1.332,6.207-3.082,8.875-5.25l38.75.25c-5.168,11.5-13.0859,20.8359-23.75,28-10.668,7.168-22.5,10.75-35.5,10.75-11.8359,0-22.668-2.875-32.5-8.625-9.8359-5.75-17.625-13.5391-23.375-23.375-5.75-9.832-8.625-20.582-8.625-32.25,0-11.5,2.7891-22.207,8.375-32.125ZM815.5127,99.9703c-2.5-5.832-6.4609-10.5391-11.875-14.125-5.418-3.582-11.293-5.375-17.625-5.375-7,0-13,1.75-18,5.25s-8.8359,8.25-11.5,14.25h59Z" style="fill:#000; stroke-width:0px;"/><rect x="347.8322" y="92.5048" width="32" height="83.2215" style="fill:#000; stroke-width:0px;"/><path d="M381.9252,48.9744c-1.382,3.3361-2.093,6.9117-2.093,10.5227h-32c0-7.8133,1.539-15.5501,4.529-22.7686,2.99-7.2185,7.372-13.7774,12.897-19.3022,5.525-5.5248,12.084-9.9073,19.302-12.8974C391.7792,1.5389,399.5152,0,407.3292,0v32c-3.611,0-7.187.7112-10.523,2.0931-3.336,1.3818-6.367,3.4073-8.921,5.9606-2.553,2.5533-4.578,5.5846-5.96,8.9207Z" style="fill:#000; fill-rule:evenodd; stroke-width:0px;"/><rect x="379.8322" y="59.5046" width="33" height="33" style="fill:#000; stroke-width:0px;"/><path d="M333.8191,92.5046v-33h-33.006V.9704h-32.5v115.75c0,20.168,4.957,35.168,14.875,45,9.9141,9.8359,23.2891,14.75,40.125,14.75v-31.75c-8,0-13.75-2.1641-17.25-6.5-3.5-4.332-5.25-11.5-5.25-21.5v-24.2158h33.006Z" style="fill:#000; stroke-width:0px;"/><path d="M633.3906,172.8453c-8.168-3.25-14.7109-8.082-19.625-14.5-4.918-6.4141-7.375-14.125-7.375-23.125h31c0,4,2.207,7.25,6.625,9.75,4.4141,2.5,10.0391,3.75,16.875,3.75,6.5,0,11.5391-1.125,15.125-3.375,3.582-2.25,5.375-5.125,5.375-8.625,0-3.6641-2-6.25-6-7.75s-10.418-3-19.25-4.5c-9.8359-1.6641-18-3.5391-24.5-5.625-6.5-2.082-12.125-5.6641-16.875-10.75-4.75-5.082-7.125-12.2891-7.125-21.625,0-7.1641,2.2891-13.625,6.875-19.375,4.582-5.75,10.7891-10.25,18.625-13.5,7.832-3.25,16.582-4.875,26.25-4.875,15,0,27.25,3.625,36.75,10.875s14.25,17.293,14.25,30.125h-31c0-3.5-2.043-6.4141-6.125-8.75-4.0859-2.332-8.875-3.5-14.375-3.5-5.3359,0-9.793,1.0859-13.375,3.25-3.5859,2.168-5.375,4.918-5.375,8.25,0,3,1.9141,5.25,5.75,6.75,3.832,1.5,9.9141,2.918,18.25,4.25,9.832,1.668,18.082,3.543,24.75,5.625,6.6641,2.0859,12.5,5.668,17.5,10.75,5,5.0859,7.5,12.125,7.5,21.125.1641,13.3359-4.7109,23.375-14.625,30.125-9.918,6.75-22.9609,10.125-39.125,10.125-9.668,0-18.5859-1.625-26.75-4.875Z" style="fill:#000; stroke-width:0px;"/></g></svg>