<svg width="752" height="237" viewBox="0 0 752 237" fill="none" xmlns="http://www.w3.org/2000/svg">
<path d="M201.2 136C196.1 165.4 210.9 184.3 233.6 184.3C247.6 184.3 258.6 177.9 265.2 169.7L262.7 182.8L291.3 182.8L307.8 89.3999L279.2 89.3999L276.9 102.5C273.3 94.1999 264.6 87.8999 250.6 87.8999C227.9 88.0999 206.5 106.6 201.2 136ZM271.3 136C268.5 150.8 257.5 159.1 246.7 159.1C235.9 159.1 227.9 150.6 230.4 135.8C232.9 121 244.2 112.9 254.8 112.9C265.8 112.9 273.9 121.2 271.3 136Z" fill="url(#paint0_linear)" fill-opacity="0.95"/>
<path d="M348.2 102.5L350.5 89.3999L322 89.3999L297.6 227.3L326.2 227.3L336.4 169.7C340.2 177.5 348.9 184.1 362.7 184.1C385.6 184.1 407 165.5 412.3 135.8C417.6 106.2 402.6 87.8999 379.7 87.8999C366 88.0999 354.8 94.4999 348.2 102.5ZM383.4 136C380.6 150.8 369.4 159.3 358.6 159.3C347.8 159.3 339.8 151 342.3 136.2C345.1 121.4 356.1 113.1 366.9 113.1C377.7 112.9 385.9 121 383.4 136Z" fill="url(#paint1_linear)" fill-opacity="0.95"/>
<path d="M457.7 136C452.6 165.4 467.4 184.3 490.3 184.3C504.1 184.3 514.9 178.2 521.6 169.5L519.3 182.8L547.9 182.8L569.7 58.8999L541.1 58.8999L533.5 102.3C529.3 93.7999 519.5 88.0999 507.2 88.0999C484.4 88.0999 462.8 106.6 457.7 136ZM527.6 136C524.8 150.8 513.8 159.1 503 159.1C492.2 159.1 484.2 150.6 486.7 135.8C489.2 121 500.5 112.9 511.1 112.9C522.1 112.9 530.4 121.2 527.6 136Z" fill="url(#paint2_linear)" fill-opacity="0.95"/>
<path d="M615.5 111C625.2 111 632 116.9 630.3 128.2L594.3 128.2C597.9 117 606 111 615.5 111ZM653.2 151.9L622.7 151.9C619.5 157 614.2 161 606.4 161C597.1 161 590.5 155.1 591.8 142.8L656.6 142.8C657.4 140 658.1 137.3 658.5 134.5C663.6 106.1 647.3 88.1001 620 88.1001C592.3 88.1001 569.6 106.5 564.5 136.2C559.2 165.8 575.7 184.3 603 184.3C626.5 184.1 645.4 170.1 653.2 151.9Z" fill="url(#paint3_linear)" fill-opacity="0.95"/>
<path d="M741.1 89.4004L669.9 89.4004L665.7 112.9L704.2 112.9L657.2 159.9L653 182.6L725.4 182.6L729.8 159.1L689.1 159.1L737 112.1L741.1 89.4004Z" fill="url(#paint4_linear)" fill-opacity="0.95"/>
<path d="M64.3999 65.2998L77.0999 65.2998C81.7999 65.2998 85.5999 69.0998 85.5999 73.7998C85.5999 78.4998 81.7999 82.2998 77.0999 82.2998L64.3999 82.2998C59.6999 82.2998 55.8999 78.4998 55.8999 73.7998C55.8999 69.0998 59.7999 65.2998 64.3999 65.2998Z" fill="url(#paint5_linear)"/>
<path d="M32.7 132.4L72.9 132.4C77.6 132.4 81.4 136.2 81.4 140.9C81.3999 145.6 77.5999 149.4 72.8999 149.4L32.6999 149.4C27.9999 149.4 24.1999 145.6 24.1999 140.9C24.2 136 28 132.4 32.7 132.4Z" fill="url(#paint6_linear)"/>
<path d="M165 65.2998L116.9 65.2998L102.5 65.2998C97.8 65.2998 94 69.0998 94 73.7998C94 77.7998 97 81.1998 100.8 82.0998L113.1 82.0998C113.3 82.0998 113.7 82.0998 113.9 82.0998C114.1 82.0998 114.5 82.0998 114.7 82.0998C118.5 82.8998 121.5 86.2998 121.5 90.3998C121.5 95.0998 117.7 98.8998 113 98.8998L112.6 98.8998L111 98.8998L58.5 98.8998C54.7 99.6998 51.7 103.1 51.7 107.2C51.7 111.3 54.7 114.6 58.5 115.5L108 115.5L112.7 115.5L117.4 115.5C122.1 115.5 125.9 119.3 125.9 124C125.9 128.7 122.1 132.5 117.4 132.5L108.5 132.5L105.1 132.5L96.6 132.5C92.8 133.3 89.8 136.7 89.8 140.8C89.8 144.9 92.8 148.2 96.6 149.1L102.1 149.1L104.6 149.1C105.2 149.1 105.7 149.1 106.3 149.3C106.5 149.3 106.5 149.3 106.7 149.5C107.1 149.5 107.3 149.7 107.8 149.7C108 149.7 108.2 149.9 108.4 149.9C108.6 150.1 109 150.1 109.2 150.3C109.4 150.5 109.6 150.5 109.8 150.7C110 150.9 110.2 151.1 110.4 151.3C110.6 151.5 110.6 151.5 110.8 151.7C111 151.9 111.2 152.1 111.4 152.3C111.6 152.5 111.6 152.7 111.8 152.9C112 153.1 112 153.5 112.2 153.7C112.2 153.9 112.4 154.1 112.4 154.3C112.6 154.7 112.6 154.9 112.6 155.4C112.6 155.6 112.6 155.8 112.8 155.8C112.8 156.2 113 156.9 113 157.5C113 162.2 109.2 166 104.5 166L104.1 166L99 166L24.2 166C23.6 166 23.1 166 22.5 165.8L11.5 165.8C6.79998 165.8 2.99998 169.6 2.99998 174.3C2.99998 179 6.79998 182.8 11.5 182.8L96.2 182.8L124.8 182.8L132.6 138.5L139.4 138.5L155.9 182.8L188.1 182.8L169.3 136C188.4 130.7 199 116.7 201.5 102.1C205.3 81.7998 193.8 65.2998 165 65.2998ZM172.2 103.4C170.5 112.5 164.6 118.2 153.8 118.2L136 118.2L141.1 88.7998L158.9 88.7998C169.9 88.7998 173.9 94.4998 172.2 103.4Z" fill="url(#paint7_linear)" fill-opacity="0.95"/>
<path d="M426.4 175.3C431.9 175.3 436.7 178.3 439.5 182.8L441 182.8L454.4 105.9C455.9 97.2999 449.3 89.3999 440.5 89.3999C433.7 89.3999 427.8 94.2999 426.6 101.1L412.3 182.8L413.3 182.8C416.2 178.3 421 175.3 426.4 175.3Z" fill="url(#paint8_linear)" fill-opacity="0.95"/>
<path d="M349.8 226.8C351.8 225.1 354.3 224 357 224C357.2 219.3 360.8 215.5 365.3 215.5C365.8 215.5 366.4 215.5 366.9 215.7C368.9 214 371.4 212.7 373.9 212.1C375.5 205.1 381.5 200 388.7 200C394.8 200 400.2 203.8 402.6 209.5C404.6 209.7 406.4 210.4 407.8 211.4C408.5 203.1 415.2 196.4 423.3 196.4C432 196.4 439 203.8 439 212.9C439 213.3 439 213.7 439 213.8C440.4 213.2 442.1 212.9 443.7 212.9C445.9 212.9 447.7 213.5 449.5 214.4C452.2 209.5 457.3 206.3 463 206.3C471.7 206.3 478.9 213.7 478.9 223C478.9 224.3 478.7 225.7 478.4 227L349.8 227L349.8 226.8Z" fill="url(#paint9_linear)"/>
<path d="M453.9 73.5L465.6 81.1L469.1 68.3L463.3 56.6C464.7 51.7 465.5 47.6 465.5 47.6C470.1 16.8 457.8 4.70001 457.3 4.20001C457.1 4.00001 457.1 4.00001 456.9 4.00001C456.7 4.00001 456.6 4.00001 456.4 4.00001C455.8 4.30001 440.5 11.9 435.1 42.7C435.1 42.7 434.5 46.8 434.3 52L425.1 61.3L424.3 74.4L437.7 70.9L453.9 73.5Z" fill="url(#paint10_linear)" fill-opacity="0.95"/>
<path d="M450.6 35.3999C454.5 35.3999 457.7 38.5999 457.7 42.4999C457.7 46.3999 454.5 49.5999 450.6 49.5999C446.7 49.5999 443.5 46.3999 443.5 42.4999C443.5 38.5999 446.7 35.3999 450.6 35.3999Z" fill="url(#paint11_linear)"/>
<defs>
<linearGradient id="paint0_linear" x1="253.999" y1="87.9359" x2="253.999" y2="184.3" gradientUnits="userSpaceOnUse">
<stop stop-color="#202F60"/>
<stop offset="1" stop-color="#205060"/>
</linearGradient>
<linearGradient id="paint1_linear" x1="355.418" y1="87.9359" x2="355.418" y2="227.293" gradientUnits="userSpaceOnUse">
<stop stop-color="#202F60"/>
<stop offset="1" stop-color="#205060"/>
</linearGradient>
<linearGradient id="paint2_linear" x1="513.227" y1="58.9211" x2="513.227" y2="184.3" gradientUnits="userSpaceOnUse">
<stop stop-color="#202F60"/>
<stop offset="1" stop-color="#205060"/>
</linearGradient>
<linearGradient id="paint3_linear" x1="611.438" y1="88.1481" x2="611.438" y2="184.3" gradientUnits="userSpaceOnUse">
<stop stop-color="#202F60"/>
<stop offset="1" stop-color="#205060"/>
</linearGradient>
<linearGradient id="paint4_linear" x1="697.03" y1="89.4194" x2="697.03" y2="182.606" gradientUnits="userSpaceOnUse">
<stop stop-color="#202F60"/>
<stop offset="1" stop-color="#205060"/>
</linearGradient>
<linearGradient id="paint5_linear" x1="70.7723" y1="65.2746" x2="70.7723" y2="82.2178" gradientUnits="userSpaceOnUse">
<stop stop-color="#27AE60"/>
<stop offset="1" stop-color="#34CDB1"/>
</linearGradient>
<linearGradient id="paint6_linear" x1="52.7701" y1="132.412" x2="52.7701" y2="149.355" gradientUnits="userSpaceOnUse">
<stop stop-color="#27AE60"/>
<stop offset="1" stop-color="#34CDB1"/>
</linearGradient>
<linearGradient id="paint7_linear" x1="102.578" y1="65.2746" x2="102.578" y2="182.605" gradientUnits="userSpaceOnUse">
<stop stop-color="#202F60"/>
<stop offset="1" stop-color="#205060"/>
</linearGradient>
<linearGradient id="paint8_linear" x1="433.457" y1="89.3999" x2="433.457" y2="182.8" gradientUnits="userSpaceOnUse">
<stop stop-color="#202F60"/>
<stop offset="1" stop-color="#205060"/>
</linearGradient>
<linearGradient id="paint9_linear" x1="414.377" y1="196.35" x2="414.377" y2="226.835" gradientUnits="userSpaceOnUse">
<stop stop-color="#27AE60"/>
<stop offset="1" stop-color="#34CDB1"/>
</linearGradient>
<linearGradient id="paint10_linear" x1="446.747" y1="4" x2="446.747" y2="81.03" gradientUnits="userSpaceOnUse">
<stop stop-color="#202F60"/>
<stop offset="1" stop-color="#205060"/>
</linearGradient>
<linearGradient id="paint11_linear" x1="450.624" y1="35.4206" x2="450.624" y2="49.5815" gradientUnits="userSpaceOnUse">
<stop stop-color="#27AE60"/>
<stop offset="1" stop-color="#34CDB1"/>
</linearGradient>
</defs>
</svg>
