<?xml version="1.0" encoding="UTF-8"?>
<svg xmlns="http://www.w3.org/2000/svg" version="1.0" viewBox="0 0 788.000000 126.000000" class="logo  no-lazy" role="presentation">
  <g xmlns="http://www.w3.org/2000/svg" transform="translate(0.000000,126.000000) scale(0.100000,-0.100000)" fill="#39dfed" stroke="none" class="svg-rum">
    <path xmlns="http://www.w3.org/2000/svg" d="M220 1224 c-93 -34 -164 -103 -196 -191 -10 -30 -13 -141 -14 -525 l0 -488 95 0 95 0 0 465 c0 501 0 503 52 539 28 20 252 23 293 4 27 -12 55 -54 55 -83 0 -12 16 -15 101 -15 l102 0 -7 43 c-16 101 -89 197 -185 240 -39 19 -68 22 -196 24 -118 2 -160 -1 -195 -13z"></path>
    <path xmlns="http://www.w3.org/2000/svg" d="M972 743 l3 -498 24 -47 c31 -63 86 -119 147 -149 46 -23 60 -24 258 -27 175 -3 217 0 263 14 72 23 152 95 184 166 l24 53 3 493 3 492 -101 0 -100 0 0 -470 c0 -522 1 -513 -65 -544 -30 -15 -62 -17 -205 -14 -153 3 -171 5 -197 24 -52 39 -54 57 -51 550 l3 454 -98 0 -98 0 3 -497z"></path>
    <path xmlns="http://www.w3.org/2000/svg" d="M2263 1219 c-70 -27 -145 -96 -174 -161 l-24 -53 -3 -493 -3 -492 101 0 100 0 0 470 c0 510 0 513 54 538 19 8 182 12 597 12 636 1 606 4 635 -67 13 -30 15 -107 12 -494 l-3 -459 98 0 98 0 -3 498 c-3 453 -5 500 -21 535 -26 55 -94 125 -152 155 l-50 27 -605 2 c-586 2 -607 2 -657 -18z"></path>
    <path xmlns="http://www.w3.org/2000/svg" d="M3113 688 c-5 -7 -34 -56 -65 -108 -30 -52 -87 -149 -125 -215 -39 -66 -82 -141 -97 -166 -28 -49 -33 -87 -15 -122 19 -38 51 -57 97 -57 55 0 96 37 106 95 13 77 69 371 90 478 13 59 22 107 20 107 -1 0 -6 -6 -11 -12z"></path>
  </g>
  <g xmlns="http://www.w3.org/2000/svg" transform="translate(0.000000,126.000000) scale(0.100000,-0.100000)" fill="#191e5f" stroke="none" class="svg-vision">
    <path d="M4000 746 c0 -7 183 -416 274 -611 l55 -120 79 -3 78 -3 72 158 c39 87 112 248 162 358 50 110 94 206 97 213 4 9 -19 12 -96 12 l-102 0 -32 -72 c-18 -40 -64 -146 -103 -235 -38 -90 -71 -163 -74 -163 -3 0 -50 106 -105 235 l-100 235 -102 0 c-57 0 -103 -2 -103 -4z"></path>
    <path d="M4892 383 l3 -368 100 0 100 0 3 368 2 367 -105 0 -105 0 2 -367z"></path>
    <path d="M5445 751 c-82 -21 -159 -84 -186 -151 -17 -45 -16 -128 4 -165 34 -66 81 -92 239 -135 62 -17 121 -38 130 -47 41 -37 4 -81 -75 -90 -71 -8 -162 14 -259 65 -4 2 -18 -21 -32 -51 -41 -94 -42 -90 18 -119 76 -38 159 -51 279 -46 120 6 175 26 230 87 57 64 72 144 38 216 -35 75 -87 106 -256 150 -54 14 -107 33 -117 42 -25 23 -19 51 15 77 44 33 137 27 223 -13 36 -17 67 -31 69 -31 1 0 15 32 30 71 34 83 34 82 -64 121 -60 23 -228 34 -286 19z"></path>
    <path d="M5982 383 l3 -368 100 0 100 0 3 368 2 367 -105 0 -105 0 2 -367z"></path>
    <path d="M6563 742 c-113 -40 -188 -122 -218 -237 -43 -168 8 -346 122 -429 72 -52 142 -69 259 -64 119 5 176 28 245 99 68 69 94 146 94 274 0 170 -54 271 -179 335 -63 32 -76 35 -170 38 -79 2 -113 -2 -153 -16z m226 -161 c57 -41 80 -99 81 -202 0 -145 -80 -232 -198 -214 -96 14 -153 120 -138 257 9 93 51 159 112 178 40 12 114 3 143 -19z"></path>
    <path d="M7212 383 l3 -368 93 -3 92 -3 0 206 0 206 163 -205 162 -205 73 -1 72 0 0 370 0 370 -95 0 -95 0 -2 -194 -3 -194 -155 194 -155 194 -78 0 -77 0 2 -367z"></path>
  </g>
</svg>
