<?xml version="1.0" encoding="utf-8"?>
<!-- Generator: Adobe Illustrator 27.8.0, SVG Export Plug-In . SVG Version: 6.00 Build 0)  -->
<svg version="1.1" id="shopcommerce" xmlns="http://www.w3.org/2000/svg" xmlns:xlink="http://www.w3.org/1999/xlink" x="0px"
	 y="0px" viewBox="0 0 300 240" style="enable-background:new 0 0 300 240;" xml:space="preserve">
<style type="text/css">
	.st0{fill:#59B78F;}
	.st1{fill:#1D1D1B;}
</style>
<script  xmlns=""></script>
<g>
	<path class="st0" d="M291.7,111.5L291.7,111.5c3.8,0,6.9-3.1,6.9-6.9l0,0c0-3.8-3.1-6.9-6.9-6.9l0,0c-3.8,0-6.9,3.1-6.9,6.9l0,0
		C284.8,108.4,287.9,111.5,291.7,111.5z"/>
	<g>
		<path class="st1" d="M5.5,123.1c0,1,0.2,1.9,0.5,2.6c0.4,0.7,0.9,1.3,1.5,1.8s1.4,0.8,2.2,1s1.7,0.3,2.7,0.3c1.1,0,2-0.1,2.7-0.4
			c0.7-0.2,1.3-0.5,1.8-0.9s0.8-0.8,1-1.3s0.3-1,0.3-1.5c0-1-0.2-1.8-0.7-2.3s-1-0.8-1.6-1c-1-0.3-2.1-0.7-3.4-1s-2.9-0.7-4.8-1.2
			c-1.2-0.3-2.2-0.7-2.9-1.2c-0.8-0.5-1.4-1-1.9-1.6s-0.8-1.2-1-1.9c-0.2-0.7-0.3-1.4-0.3-2.1c0-1.3,0.3-2.5,0.9-3.5
			s1.3-1.8,2.3-2.5c1-0.6,2-1.1,3.2-1.4s2.4-0.5,3.7-0.5c1.4,0,2.8,0.2,4.1,0.5c1.3,0.4,2.4,0.9,3.4,1.6s1.7,1.6,2.3,2.7
			c0.6,1.1,0.8,2.3,0.8,3.7h-4.8c-0.1-1.7-0.7-2.9-1.8-3.7c-1.1-0.7-2.5-1.1-4.1-1.1c-0.6,0-1.1,0.1-1.7,0.2
			c-0.6,0.1-1.1,0.3-1.6,0.6s-0.9,0.6-1.2,1.1c-0.3,0.4-0.5,1-0.5,1.7c0,0.9,0.3,1.7,0.9,2.2s1.4,0.9,2.4,1.2c0.1,0,0.5,0.1,1.2,0.3
			s1.5,0.4,2.4,0.6s1.7,0.4,2.6,0.7c0.8,0.2,1.4,0.4,1.8,0.5c0.9,0.3,1.7,0.6,2.4,1.1c0.7,0.5,1.2,1,1.7,1.6c0.4,0.6,0.8,1.3,1,2
			s0.3,1.4,0.3,2.1c0,1.5-0.3,2.8-0.9,3.8c-0.6,1.1-1.5,1.9-2.5,2.6s-2.2,1.2-3.5,1.5s-2.6,0.5-4,0.5c-1.6,0-3-0.2-4.4-0.6
			c-1.4-0.4-2.6-0.9-3.6-1.7s-1.9-1.8-2.5-3s-0.9-2.6-1-4.3h4.6V123.1z"/>
		<path class="st1" d="M26.7,105.3h4.4v9.9h0.1c0.5-0.9,1.3-1.6,2.4-2.2c1.1-0.6,2.3-0.9,3.6-0.9c2.2,0,3.9,0.5,5.2,1.6
			s1.9,2.7,1.9,4.9V132h-4.4v-12.2c-0.1-1.5-0.4-2.6-1-3.3c-0.6-0.7-1.6-1-2.9-1c-0.7,0-1.4,0.1-2,0.4s-1.1,0.6-1.5,1.1
			s-0.7,1-1,1.6c-0.2,0.6-0.3,1.3-0.3,2V132h-4.4v-26.7H26.7z"/>
		<path class="st1" d="M57.9,132.5c-1.6,0-3-0.3-4.3-0.8c-1.2-0.5-2.3-1.2-3.2-2.1c-0.9-0.9-1.5-2-2-3.2s-0.7-2.6-0.7-4.1
			s0.2-2.8,0.7-4.1c0.4-1.2,1.1-2.3,2-3.2c0.9-0.9,1.9-1.6,3.2-2.1c1.2-0.5,2.7-0.8,4.3-0.8s3,0.3,4.3,0.8c1.2,0.5,2.3,1.2,3.2,2.1
			s1.5,2,2,3.2c0.4,1.2,0.7,2.6,0.7,4.1s-0.2,2.9-0.7,4.1c-0.4,1.2-1.1,2.3-2,3.2s-1.9,1.6-3.2,2.1
			C60.9,132.3,59.5,132.5,57.9,132.5z M57.9,129.2c1,0,1.8-0.2,2.5-0.6c0.7-0.4,1.3-0.9,1.8-1.6c0.5-0.6,0.8-1.4,1-2.2
			c0.2-0.8,0.3-1.6,0.3-2.5c0-0.8-0.1-1.6-0.3-2.5c-0.2-0.8-0.6-1.6-1-2.2c-0.5-0.6-1.1-1.2-1.8-1.6s-1.6-0.6-2.5-0.6
			c-1,0-1.8,0.2-2.5,0.6s-1.3,0.9-1.8,1.6c-0.5,0.6-0.8,1.4-1,2.2c-0.2,0.8-0.3,1.6-0.3,2.5c0,0.8,0.1,1.7,0.3,2.5s0.6,1.5,1,2.2
			c0.5,0.7,1.1,1.2,1.8,1.6C56.1,129,57,129.2,57.9,129.2z"/>
		<path class="st1" d="M71.8,112.6H76v2.6l0,0c0.6-1.1,1.5-1.9,2.6-2.4s2.3-0.7,3.6-0.7c1.6,0,2.9,0.3,4.1,0.8s2.1,1.3,2.9,2.2
			c0.8,0.9,1.3,2,1.7,3.3c0.4,1.2,0.6,2.6,0.6,4c0,1.3-0.2,2.6-0.5,3.8c-0.3,1.2-0.9,2.3-1.6,3.2c-0.7,0.9-1.6,1.7-2.7,2.2
			s-2.4,0.8-3.8,0.8c-0.6,0-1.3-0.1-1.9-0.2c-0.6-0.1-1.3-0.3-1.9-0.5s-1.1-0.6-1.6-1s-0.9-0.8-1.3-1.4h-0.1v9.7h-4.4v-26.4H71.8z
			 M87.1,122.3c0-0.9-0.1-1.7-0.3-2.5s-0.6-1.6-1-2.2c-0.5-0.6-1-1.1-1.7-1.5s-1.5-0.6-2.4-0.6c-1.9,0-3.2,0.6-4.2,1.9
			c-0.9,1.2-1.4,2.9-1.4,5c0,1,0.1,1.9,0.4,2.7c0.2,0.8,0.6,1.6,1.1,2.2s1.1,1.1,1.8,1.4c0.7,0.3,1.5,0.5,2.4,0.5
			c1,0,1.9-0.2,2.5-0.6c0.7-0.4,1.3-0.9,1.7-1.6c0.4-0.6,0.8-1.4,1-2.2S87.1,123.2,87.1,122.3z"/>
		<path class="st1" d="M108.7,119.1c-0.2-1.2-0.7-2.1-1.5-2.7s-1.8-0.9-3.1-0.9c-0.6,0-1.2,0.1-1.8,0.3c-0.6,0.2-1.2,0.5-1.8,1
			c-0.5,0.5-1,1.2-1.3,2.1c-0.4,0.9-0.5,2.1-0.5,3.6c0,0.8,0.1,1.6,0.3,2.4s0.5,1.5,0.9,2.1s1,1.1,1.6,1.5c0.7,0.4,1.5,0.6,2.4,0.6
			c1.3,0,2.3-0.4,3.2-1.2c0.8-0.8,1.4-1.9,1.6-3.3h4.4c-0.4,2.5-1.4,4.5-2.9,5.8s-3.6,2-6.2,2c-1.6,0-2.9-0.3-4.1-0.8
			s-2.2-1.2-3-2.1c-0.8-0.9-1.4-1.9-1.9-3.2c-0.4-1.2-0.6-2.5-0.6-4c0-1.4,0.2-2.8,0.6-4.1c0.4-1.3,1-2.4,1.9-3.3
			c0.8-0.9,1.8-1.7,3.1-2.2c1.2-0.5,2.7-0.8,4.3-0.8c1.2,0,2.3,0.1,3.3,0.4s2,0.7,2.8,1.3c0.8,0.6,1.5,1.3,2,2.2
			c0.5,0.9,0.8,1.9,0.9,3.1h-4.6V119.1z"/>
		<path class="st1" d="M125.8,132.5c-1.6,0-3-0.3-4.3-0.8c-1.2-0.5-2.3-1.2-3.2-2.1c-0.9-0.9-1.5-2-2-3.2s-0.7-2.6-0.7-4.1
			s0.2-2.8,0.7-4.1c0.4-1.2,1.1-2.3,2-3.2c0.9-0.9,1.9-1.6,3.2-2.1c1.2-0.5,2.7-0.8,4.3-0.8c1.6,0,3,0.3,4.3,0.8
			c1.2,0.5,2.3,1.2,3.2,2.1s1.5,2,2,3.2c0.4,1.2,0.7,2.6,0.7,4.1s-0.2,2.9-0.7,4.1c-0.4,1.2-1.1,2.3-2,3.2s-1.9,1.6-3.2,2.1
			C128.8,132.3,127.4,132.5,125.8,132.5z M125.8,129.2c1,0,1.8-0.2,2.5-0.6c0.7-0.4,1.3-0.9,1.8-1.6c0.5-0.6,0.8-1.4,1-2.2
			c0.2-0.8,0.3-1.6,0.3-2.5c0-0.8-0.1-1.6-0.3-2.5c-0.2-0.8-0.6-1.6-1-2.2c-0.5-0.6-1.1-1.2-1.8-1.6s-1.6-0.6-2.5-0.6
			c-1,0-1.8,0.2-2.5,0.6s-1.3,0.9-1.8,1.6c-0.5,0.6-0.8,1.4-1,2.2c-0.2,0.8-0.3,1.6-0.3,2.5c0,0.8,0.1,1.7,0.3,2.5
			c0.2,0.8,0.6,1.5,1,2.2c0.5,0.7,1.1,1.2,1.8,1.6C124,129,124.8,129.2,125.8,129.2z"/>
		<path class="st1" d="M139.5,112.6h4.2v2.7h0.1c0.3-0.5,0.7-0.9,1.1-1.3c0.4-0.4,0.8-0.7,1.3-1s1-0.5,1.6-0.7s1.3-0.2,2.1-0.2
			c1.2,0,2.3,0.3,3.4,0.8s1.8,1.3,2.2,2.4c0.7-1,1.6-1.8,2.6-2.4s2.2-0.9,3.7-0.9c2.1,0,3.7,0.5,4.9,1.5s1.8,2.7,1.8,5V132H164
			v-11.3c0-0.8,0-1.5-0.1-2.1s-0.2-1.2-0.4-1.6s-0.6-0.8-1.1-1.1c-0.5-0.2-1.2-0.4-2-0.4c-1.5,0-2.6,0.4-3.2,1.3s-1,2.2-1,3.8V132
			h-4.4v-12.4c0-1.3-0.3-2.4-0.8-3.1s-1.4-1-2.8-1c-0.6,0-1.1,0.1-1.6,0.3c-0.5,0.2-1,0.5-1.4,1c-0.4,0.4-0.7,0.9-1,1.6
			c-0.2,0.6-0.4,1.3-0.4,2.1V132h-4.4L139.5,112.6L139.5,112.6z"/>
		<path class="st1" d="M173.1,112.6h4.2v2.7h0.1c0.3-0.5,0.7-0.9,1.1-1.3c0.4-0.4,0.8-0.7,1.3-1s1-0.5,1.6-0.7s1.3-0.2,2.1-0.2
			c1.2,0,2.3,0.3,3.4,0.8s1.8,1.3,2.2,2.4c0.7-1,1.6-1.8,2.6-2.4s2.2-0.9,3.7-0.9c2.1,0,3.7,0.5,4.9,1.5s1.8,2.7,1.8,5V132h-4.4
			v-11.3c0-0.8,0-1.5-0.1-2.1s-0.2-1.2-0.4-1.6s-0.6-0.8-1.1-1.1c-0.5-0.2-1.2-0.4-2-0.4c-1.5,0-2.6,0.4-3.2,1.3
			c-0.7,0.9-1,2.2-1,3.8V132h-4.4v-12.4c0-1.3-0.3-2.4-0.8-3.1s-1.4-1-2.8-1c-0.6,0-1.1,0.1-1.6,0.3c-0.5,0.2-1,0.5-1.4,1
			c-0.4,0.4-0.7,0.9-1,1.6c-0.2,0.6-0.4,1.3-0.4,2.1V132h-4.4L173.1,112.6L173.1,112.6z"/>
		<path class="st1" d="M210,123.4c0,0.7,0.1,1.5,0.3,2.2s0.5,1.3,1,1.8c0.4,0.5,1,0.9,1.7,1.3c0.7,0.3,1.5,0.5,2.4,0.5
			c1.3,0,2.3-0.3,3.1-0.8s1.4-1.3,1.8-2.4h4.2c-0.2,1-0.6,2-1.2,2.8c-0.6,0.8-1.2,1.5-2,2.1s-1.7,1-2.7,1.3s-2,0.4-3.1,0.4
			c-1.6,0-3-0.2-4.2-0.7s-2.2-1.2-3.1-2.1c-0.8-0.9-1.5-2-1.9-3.2s-0.6-2.6-0.6-4.1c0-1.4,0.2-2.7,0.7-3.9c0.4-1.2,1.1-2.3,1.9-3.3
			c0.8-0.9,1.8-1.7,3-2.2s2.5-0.8,4-0.8c1.6,0,3,0.3,4.2,1s2.3,1.5,3.1,2.5s1.4,2.3,1.8,3.6c0.4,1.4,0.5,2.8,0.3,4.2H210V123.4z
			 M220.3,120.6c-0.1-0.7-0.2-1.3-0.4-1.9s-0.6-1.2-1-1.6c-0.4-0.5-0.9-0.8-1.5-1.1c-0.6-0.3-1.3-0.4-2-0.4c-0.8,0-1.5,0.1-2.1,0.4
			s-1.2,0.6-1.6,1.1c-0.5,0.5-0.8,1-1.1,1.6s-0.4,1.3-0.4,2L220.3,120.6L220.3,120.6z"/>
		<path class="st1" d="M228,112.6h4.1v3.7h0.1c0.1-0.5,0.4-1,0.8-1.5c0.4-0.5,0.8-1,1.3-1.4s1.1-0.7,1.8-1c0.6-0.2,1.3-0.4,2-0.4
			c0.5,0,0.9,0,1.1,0c0.2,0,0.4,0.1,0.6,0.1v4.1c-0.3,0-0.6-0.1-0.9-0.1s-0.6-0.1-0.9-0.1c-0.7,0-1.4,0.1-2.1,0.4
			c-0.7,0.3-1.2,0.7-1.7,1.3c-0.5,0.6-0.9,1.3-1.2,2.1c-0.3,0.8-0.4,1.8-0.4,2.8v9.2H228V112.6z"/>
		<path class="st1" d="M254.4,119.1c-0.2-1.2-0.7-2.1-1.5-2.7s-1.8-0.9-3.1-0.9c-0.6,0-1.2,0.1-1.8,0.3c-0.6,0.2-1.2,0.5-1.8,1
			c-0.5,0.5-1,1.2-1.3,2.1c-0.4,0.9-0.5,2.1-0.5,3.6c0,0.8,0.1,1.6,0.3,2.4s0.5,1.5,0.9,2.1s1,1.1,1.6,1.5c0.7,0.4,1.5,0.6,2.4,0.6
			c1.3,0,2.3-0.4,3.2-1.2c0.8-0.8,1.4-1.9,1.6-3.3h4.4c-0.4,2.5-1.4,4.5-3,5.8s-3.6,2-6.2,2c-1.6,0-2.9-0.3-4.1-0.8
			c-1.2-0.5-2.2-1.2-3-2.1s-1.4-1.9-1.9-3.2c-0.4-1.2-0.6-2.5-0.6-4c0-1.4,0.2-2.8,0.6-4.1c0.4-1.3,1-2.4,1.9-3.3
			c0.8-0.9,1.8-1.7,3.1-2.2c1.2-0.5,2.7-0.8,4.3-0.8c1.2,0,2.3,0.1,3.3,0.4s2,0.7,2.8,1.3c0.8,0.6,1.5,1.3,2,2.2
			c0.5,0.9,0.8,1.9,0.9,3.1h-4.5V119.1z"/>
		<path class="st1" d="M265.8,123.4c0,0.7,0.1,1.5,0.3,2.2c0.2,0.7,0.5,1.3,1,1.8c0.4,0.5,1,0.9,1.7,1.3c0.7,0.3,1.5,0.5,2.4,0.5
			c1.3,0,2.3-0.3,3.1-0.8c0.8-0.5,1.4-1.3,1.8-2.4h4.2c-0.2,1-0.6,2-1.2,2.8c-0.6,0.8-1.2,1.5-2,2.1s-1.7,1-2.7,1.3s-2,0.4-3.1,0.4
			c-1.6,0-3-0.2-4.2-0.7s-2.2-1.2-3.1-2.1c-0.8-0.9-1.5-2-1.9-3.2s-0.6-2.6-0.6-4.1c0-1.4,0.2-2.7,0.7-3.9c0.4-1.2,1.1-2.3,1.9-3.3
			c0.8-0.9,1.8-1.7,3-2.2s2.5-0.8,4-0.8c1.6,0,3,0.3,4.2,1s2.3,1.5,3.1,2.5c0.8,1,1.4,2.3,1.8,3.6c0.4,1.4,0.5,2.8,0.3,4.2h-14.7
			V123.4z M276,120.6c-0.1-0.7-0.2-1.3-0.4-1.9c-0.2-0.6-0.6-1.2-1-1.6c-0.4-0.5-0.9-0.8-1.5-1.1c-0.6-0.3-1.3-0.4-2-0.4
			c-0.8,0-1.5,0.1-2.1,0.4s-1.2,0.6-1.6,1.1c-0.5,0.5-0.8,1-1.1,1.6c-0.3,0.6-0.4,1.3-0.4,2L276,120.6L276,120.6z"/>
	</g>
</g>
</svg>
