<svg xmlns="http://www.w3.org/2000/svg" viewBox="25.99 26.8 351.21 350.41"><g fill-rule="evenodd"><path fill="#9cccd4" d="M227.4 27.6c-.427.472-.53.8-.252.8.356 0 .464 5.132.441 21.041-.033 23.626-.233 22.12 2.935 22.146.838.007 1.44.148 1.339.313-.102.165.466.348 1.263.407.796.058 1.624.283 1.841.5.216.216.976.393 1.689.393.713 0 1.408.18 1.544.4.136.22.766.4 1.4.4.634 0 1.264.18 1.4.4.136.22.599.4 1.029.4.43 0 1.139.18 1.576.4l1.59.8c.437.22 1.159.4 1.605.4.446 0 1.168.18 1.605.4l1.59.8c.437.22 1.077.4 1.423.4.346 0 .542.142.434.315-.107.173.288.355.877.404.589.048 1.131.266 1.204.484.074.219.344.396.6.394.451-.004 6.222 2.689 8.267 3.856.55.314 1.675.878 2.5 1.253.825.376 1.5.82 1.5.988 0 .168.36.306.8.306.44 0 .8.147.8.326 0 .179.675.691 1.5 1.138 3.293 1.784 4.585 2.584 5.399 3.342.469.437 1.008.794 1.2.794.299 0 3.322 2.185 3.901 2.819.11.121.83.652 1.6 1.181.77.529 1.49 1.061 1.6 1.183.11.122.92.758 1.8 1.414.88.655 2.391 1.959 3.358 2.897.967.938 1.923 1.706 2.124 1.706.201 0 .237.208.08.462-.168.271-.111.354.139.199.486-.3 8.756 7.972 8.589 8.591-.06.224.075.293.3.154.226-.139.41-.108.411.07 0 .178 1.089 1.475 2.42 2.882 2.732 2.887 5.032 6.044 4.841 6.642-.071.22.005.266.169.102.164-.163.899.557 1.635 1.6 4.183 5.936 6.134 8.928 6.134 9.407 0 .297.316.889.703 1.316.386.426 1.313 1.99 2.06 3.475.746 1.485 1.51 2.7 1.697 2.7.187 0 .34.225.339.5-.001.448.707 2.062 2.255 5.144.289.574.395 1.188.235 1.364-.159.176-.102.214.126.085.228-.129.649.337.934 1.036.285.699.691 1.634.902 2.078a5.64 5.64 0 0 1 .45 1.672c.036.476.208.777.382.67.174-.108.317.177.317.633s.208 1.231.462 1.723c.972 1.879 1.138 2.302 1.138 2.895 0 .336.208 1.013.462 1.505 1.022 1.977 1.138 2.33 1.138 3.466 0 .65.18 1.293.4 1.429.22.136.4.651.4 1.144 0 .493.17 1.067.379 1.276.208.209.422 1.134.476 2.056.054.922.244 1.586.422 1.477.178-.11.323.52.323 1.4 0 .88.18 1.711.4 1.847.22.136.4.946.4 1.8 0 .854.18 1.664.4 1.8.22.136.4 1.407.4 2.824v2.576h44v-2.376c0-1.307-.18-2.488-.4-2.624-.22-.136-.4-1.306-.4-2.6s-.18-2.464-.4-2.6c-.22-.136-.4-1.216-.4-2.4s-.18-2.264-.4-2.4c-.22-.136-.4-1.036-.4-2s-.18-1.864-.4-2c-.22-.136-.4-.957-.4-1.824 0-.867-.18-1.576-.4-1.576-.22 0-.4-.72-.4-1.6 0-.88-.18-1.6-.4-1.6-.22 0-.4-.72-.4-1.6 0-.88-.18-1.6-.4-1.6-.22 0-.4-.529-.4-1.176 0-.647-.18-1.288-.4-1.424-.22-.136-.4-.676-.4-1.2 0-.524-.18-1.064-.4-1.2-.22-.136-.4-.766-.4-1.4 0-.634-.18-1.264-.4-1.4-.22-.136-.4-.777-.4-1.424 0-.647-.18-1.176-.4-1.176-.22 0-.4-.439-.4-.976 0-.537-.18-1.088-.4-1.224-.22-.136-.4-.676-.4-1.2 0-.524-.18-1.064-.4-1.2-.22-.136-.4-.597-.4-1.024 0-.427-.18-.776-.4-.776-.22 0-.4-.272-.4-.605 0-.333-.165-.918-.367-1.3-.747-1.412-2.033-4.499-2.033-4.878 0-.216-.36-1.034-.8-1.817-.44-.783-.8-1.689-.8-2.012 0-.323-.18-.588-.4-.588-.22 0-.4-.36-.4-.8 0-.44-.18-.8-.4-.8-.22 0-.4-.36-.4-.8 0-.44-.18-.8-.4-.8-.22 0-.4-.36-.4-.8 0-.44-.18-.8-.4-.8-.22 0-.4-.36-.4-.8 0-.44-.18-.8-.4-.8-.22 0-.4-.36-.4-.8 0-.44-.15-.8-.332-.8-.316 0-.649-.589-1.751-3.1-.265-.605-.73-1.401-1.033-1.768-.727-.883-2.046-3.153-2.342-4.032-.129-.385-.366-.7-.526-.7-.16 0-.703-.802-1.207-1.782-.504-.981-1.252-2.143-1.663-2.584-.41-.44-.746-.911-.746-1.045 0-.27-2.4-3.869-2.793-4.189-.135-.11-.678-.83-1.207-1.6-.529-.77-1.065-1.49-1.192-1.6-.127-.11-1.283-1.612-2.569-3.337-1.287-1.725-2.905-3.705-3.596-4.4a25.188 25.188 0 0 1-2.245-2.663c-1.223-1.732-16.367-16.8-16.885-16.8-.207 0-1.067-.72-1.913-1.6-.846-.88-1.687-1.6-1.871-1.6-.183 0-1.098-.72-2.032-1.6-.934-.88-1.852-1.6-2.038-1.6-.187 0-.877-.513-1.533-1.14-.656-.627-2.348-1.919-3.76-2.872-1.411-.953-2.626-1.88-2.699-2.06-.074-.181-.311-.328-.528-.328-.362 0-3.873-2.245-4.339-2.774-.11-.125-.695-.482-1.3-.794-.605-.312-1.1-.717-1.1-.9 0-.182-.36-.332-.8-.332-.44 0-.8-.146-.8-.325 0-.179-.622-.57-1.382-.868-.778-.305-1.274-.731-1.136-.975.136-.237.097-.296-.086-.131-.183.166-.74.035-1.239-.292-1.907-1.25-3.804-2.209-4.369-2.209-.323 0-.588-.15-.588-.333 0-.411-4.696-2.867-5.48-2.867-.327 0-.446-.196-.282-.462.157-.254.116-.356-.092-.228-.208.128-.911-.006-1.562-.299a99.908 99.908 0 0 0-2.484-1.07c-.715-.295-1.3-.672-1.3-.839 0-.166-.439-.302-.976-.302-.537 0-1.088-.18-1.224-.4-.136-.22-.597-.4-1.024-.4-.427 0-.776-.18-.776-.4 0-.22-.349-.4-.776-.4-.427 0-.888-.18-1.024-.4-.136-.22-.591-.4-1.011-.4-.421 0-1.406-.36-2.189-.8-.783-.44-1.779-.8-2.212-.8-.433 0-.788-.18-.788-.4 0-.22-.529-.4-1.176-.4-.647 0-1.288-.18-1.424-.4-.136-.22-.676-.4-1.2-.4-.524 0-1.064-.18-1.2-.4-.136-.22-.766-.4-1.4-.4-.634 0-1.264-.18-1.4-.4-.136-.22-.777-.4-1.424-.4-.647 0-1.176-.18-1.176-.4 0-.22-.619-.4-1.376-.4-.757 0-1.488-.18-1.624-.4-.136-.22-.766-.4-1.4-.4-.634 0-1.264-.18-1.4-.4-.136-.22-.856-.4-1.6-.4-.744 0-1.464-.18-1.6-.4-.136-.22-1.126-.4-2.2-.4-1.074 0-2.064-.18-2.2-.4-.136-.22-.856-.4-1.6-.4-.744 0-1.464-.18-1.6-.4-.136-.22-1.306-.4-2.6-.4s-2.464-.18-2.6-.4c-.369-.596-.795-.49-1.6.4m-38.022 69.235c-.124.201-1.914.365-3.978.365-2.07 0-3.864.179-4 .4-.136.22-1.306.4-2.6.4s-2.464.18-2.6.4c-.136.22-1.101.4-2.144.4-1.043 0-2.067.171-2.277.381-.209.209-1.044.425-1.854.48-.81.054-1.384.243-1.276.419.109.176-.205.32-.697.32-.941 0-3.268.654-4.447 1.249-.382.193-1.059.351-1.505.351-.446 0-1.213.208-1.705.462-1.926.996-2.312 1.138-3.09 1.138-.443 0-.805.18-.805.4 0 .22-.234.4-.52.4-.736 0-2.673.941-2.677 1.3-.002.165-.363.3-.803.3-.44 0-.8.18-.8.4 0 .22-.324.4-.72.4-.396 0-.894.174-1.107.387-.214.214-1.197.799-2.185 1.3-1.956.994-5.694 3.751-7.879 5.813-.758.715-1.524 1.3-1.704 1.3-.371 0-3.565 3.623-5.818 6.6-.833 1.1-1.666 2.06-1.851 2.133-.185.074-.336.355-.336.625s-.319.84-.709 1.267c-.389.426-1.171 1.718-1.737 2.871-.565 1.153-1.175 1.963-1.355 1.8-.18-.163-.217-.102-.082.135.134.236-.197 1.302-.736 2.367-.54 1.066-.981 2.256-.981 2.646 0 .39-.18.82-.4.956-.22.136-.4.777-.4 1.424 0 .647-.18 1.176-.4 1.176-.22 0-.4.594-.4 1.32 0 .726-.165 1.491-.366 1.7-.786.815-1.538 16.345-.813 16.793.209.129.379 1.178.379 2.331s.171 2.267.381 2.477c.209.209.425 1.044.48 1.854.054.81.243 1.384.419 1.276.176-.109.32.342.32 1.002 0 .66.18 1.311.4 1.447.22.136.4.676.4 1.2 0 .524.18 1.064.4 1.2.22.136.4.597.4 1.024 0 .427.18.776.4.776.22 0 .4.36.4.8 0 .44.18.8.4.8.22 0 .4.36.4.8 0 .44.18.8.4.8.22 0 .4.36.4.8 0 .44.18.8.4.8.22 0 .4.225.401.5 0 .275.54 1.13 1.199 1.9s1.199 1.526 1.199 1.679c.001.154.448.762.994 1.351.545.589.892 1.232.77 1.43-.122.198-.012.31.244.25.257-.061.676.219.93.622.707 1.118 5.76 6.152 7.404 7.377.802.597 1.549 1.189 1.659 1.315.422.483 3.961 2.776 4.284 2.776.187 0 .599.36.916.8.317.44.897.8 1.288.8.392 0 .712.18.712.4 0 .22.36.4.8.4.44 0 .8.18.8.4 0 .22.36.4.8.4.44 0 .8.18.8.4 0 .22.234.4.52.4.736 0 2.673.941 2.677 1.3.002.165.464.3 1.027.3.671 0 .925.159.738.462-.157.254-.116.356.092.228.34-.21 1.941.351 3.841 1.346.382.2.969.364 1.305.364.336 0 .923.159 1.305.353.382.195 1.235.576 1.895.847.66.271 1.513.652 1.895.847.382.194 1.136.353 1.676.353s1.093.18 1.229.4c.136.22.777.4 1.424.4.647 0 1.176.18 1.176.4 0 .22.529.4 1.176.4.647 0 1.288.18 1.424.4.136.22.676.4 1.2.4.524 0 1.064.18 1.2.4.136.22 1.036.4 2 .4s1.864.18 2 .4c.136.22.867.4 1.624.4.757 0 1.376.18 1.376.4 0 .22.619.4 1.376.4.757 0 1.476.161 1.598.358.121.197.942.467 1.823.6l3.206.484c.881.133 1.702.403 1.823.6.122.197 1.021.358 1.998.358.977 0 1.776.18 1.776.4 0 .22.619.4 1.376.4.757 0 1.488.18 1.624.4.136.22.946.4 1.8.4.854 0 1.664.18 1.8.4.136.22.856.4 1.6.4.744 0 1.464.18 1.6.4.136.22.946.4 1.8.4.854 0 1.664.18 1.8.4.136.22.779.4 1.429.4s1.494.158 1.876.351c1.156.584 3.499 1.249 4.4 1.249.466 0 .959.18 1.095.4.136.22.697.4 1.247.4.55 0 .912.143.804.317-.107.174.374.36 1.07.414.696.053 1.44.27 1.652.482.213.213.713.387 1.112.387.399 0 1.038.168 1.42.374.382.205 1.28.609 1.995.897.715.289 1.3.66 1.3.827 0 .166.36.302.8.302.44 0 .8.18.8.4 0 .22.232.4.515.4.283 0 1.138.533 1.9 1.184.762.651 1.552 1.191 1.757 1.2.556.024 3.828 3.647 3.828 4.238 0 .281.143.571.319.645 1.665.696 3.004 11.745 1.725 14.238-.196.382-.781 1.595-1.3 2.695-.519 1.1-1.079 2.06-1.244 2.133-.165.074-.3.353-.3.62 0 1.319-7.753 9.02-9.1 9.04-.275.004-.5.166-.5.36 0 .195-.315.454-.7.576-.385.122-1.15.482-1.7.799-.55.318-1.54.8-2.2 1.072-.66.271-1.513.652-1.895.847a3.88 3.88 0 0 1-1.476.353c-.43 0-.893.18-1.029.4-.136.22-.946.4-1.8.4-.854 0-1.664.18-1.8.4-.136.22-1.011.4-1.944.4s-1.867.169-2.076.376c-.322.319-6.515.766-11.38.823-3.524.04-10.638-.497-10.98-.83-.209-.203-1.143-.369-2.076-.369s-1.808-.18-1.944-.4c-.136-.22-.766-.4-1.4-.4-.634 0-1.264-.18-1.4-.4-.136-.22-.599-.4-1.029-.4a3.88 3.88 0 0 1-1.476-.353 34.518 34.518 0 0 0-1.895-.854c-2.16-.9-3.197-1.388-3.4-1.601-.11-.114-.65-.428-1.2-.697-1.516-.742-2.52-1.421-3.241-2.195-.359-.385-.867-.7-1.13-.7-.262 0-.348-.208-.191-.462.167-.269.111-.354-.134-.202-.463.286-3.42-2.473-5.177-4.83-.617-.828-1.213-1.596-1.325-1.706-.111-.11-.427-.605-.702-1.1-1.241-2.235-1.543-2.708-2.2-3.455-.385-.438-.7-1.026-.7-1.308 0-.282-.36-1.154-.8-1.937-.44-.783-.8-1.691-.8-2.018 0-.326-.18-.95-.4-1.387l-.8-1.59c-.22-.437-.4-1.236-.4-1.776s-.18-1.093-.4-1.229c-.22-.136-.4-.856-.4-1.6 0-.744-.18-1.464-.4-1.6-.22-.136-.4-.785-.4-1.443v-1.195l-4.395.065c-2.426.036-4.297.224-4.176.419.121.197-1.735.354-4.182.354-2.502 0-4.506.173-4.647.4-.139.225-2.063.4-4.4.4s-4.261.175-4.4.4c-.138.223-1.996.4-4.2.4s-4.062.177-4.2.4c-.139.225-2.044.4-4.344.4-2.652 0-4.265.169-4.576.48-.581.581-.639 2.975-.08 3.32.22.136.4 1.137.4 2.224 0 1.087.18 1.976.4 1.976.22 0 .4.799.4 1.776s.18 1.888.4 2.024c.22.136.4.856.4 1.6 0 .744.18 1.464.4 1.6.22.136.4.766.4 1.4 0 .634.18 1.264.4 1.4.22.136.4.599.4 1.029 0 .43.159 1.094.353 1.476.326.641.646 1.397 1.608 3.795.198.495 1.098 2.478 2 4.407.901 1.93 1.639 3.685 1.639 3.9 0 .216.159.393.353.393.195 0 .454.315.576.7.288.909 1.483 2.853 2.371 3.858.385.436.7 1.029.7 1.317 0 .289.141.525.314.525.172 0 .617.495.988 1.1.372.605 1.318 1.82 2.104 2.7.786.88 1.989 2.32 2.674 3.2.684.88 2.136 2.32 3.225 3.2 1.089.88 2.607 2.185 3.372 2.9.766.715 1.479 1.3 1.585 1.3.338 0 3.932 2.54 4.071 2.877.074.178.311.323.528.323.217 0 1.18.54 2.139 1.2.959.66 1.892 1.204 2.072 1.209.18.005.778.361 1.328.791.55.43 1.405.786 1.9.791.495.005.9.189.9.409 0 .22.272.4.605.4.588 0 1.013.167 2.89 1.138.492.254 1.167.462 1.5.462.333 0 .605.18.605.4 0 .22.439.4.976.4.537 0 1.088.18 1.224.4.136.22.777.4 1.424.4.647 0 1.176.18 1.176.4 0 .22.529.4 1.176.4.647 0 1.288.18 1.424.4.136.22.856.4 1.6.4.744 0 1.464.18 1.6.4.136.22.856.4 1.6.4.744 0 1.464.18 1.6.4.136.22 1.191.4 2.344.4 1.153 0 2.267.165 2.476.366.209.202 1.55.476 2.98.609l7 .655c6.245.585 26.709.87 26.399.368-.158-.255 1.407-.398 4.354-.398 2.635 0 4.705-.171 4.847-.4.136-.22 1.576-.4 3.2-.4s3.064-.18 3.2-.4c.136-.22 1.126-.4 2.2-.4 1.074 0 2.052-.161 2.174-.358.121-.197.897-.46 1.723-.584 3.754-.567 4.731-.776 5.13-1.093.234-.188.987-.384 1.672-.436.685-.052 1.157-.238 1.05-.412-.108-.174.344-.317 1.004-.317s1.311-.18 1.447-.4c.136-.22.597-.4 1.024-.4.427 0 .776-.18.776-.4 0-.22.429-.4.954-.4.525 0 1.457-.261 2.072-.58.614-.318 1.292-.47 1.507-.338.217.134.263.036.105-.22-.179-.29.012-.462.515-.462.44 0 .911-.18 1.047-.4.136-.22.582-.4.99-.4.409 0 .803-.135.877-.3.191-.43 4.028-2.321 4.444-2.19.192.06.234-.075.095-.3-.139-.226.027-.41.37-.41.343 0 .624-.18.624-.4 0-.22.32-.4.712-.4.391 0 .971-.36 1.288-.8.317-.44.764-.8.993-.8.229 0 1.129-.616 2-1.369s1.752-1.265 1.957-1.138c.206.127.245.023.088-.231s-.123-.462.076-.462c.402 0 7.286-6.781 7.286-7.177 0-.139.715-1.055 1.589-2.037.873-.983 1.593-2.011 1.6-2.286.006-.275.161-.5.343-.5.183 0 .588-.495.9-1.1.312-.605.658-1.19.77-1.3.455-.448 2.798-5.352 2.798-5.856 0-.299.18-.544.4-.544.22 0 .4-.36.4-.8 0-.44.18-.8.4-.8.22 0 .4-.349.4-.776 0-.427.18-.888.4-1.024.22-.136.4-.687.4-1.224 0-.537.18-.976.4-.976.22 0 .4-.529.4-1.176 0-.647.18-1.288.4-1.424.22-.136.4-.946.4-1.8 0-.854.18-1.664.4-1.8.22-.136.4-1.036.4-2s.173-1.86.385-1.99c.505-.313.259-16.03-.301-19.21-.233-1.32-.63-3.21-.882-4.2a45.303 45.303 0 0 1-.675-3.104c-.119-.717-.376-1.402-.571-1.523-.196-.121-.356-.536-.356-.921 0-.386-.36-1.447-.8-2.358-.44-.91-.804-1.889-.809-2.175-.005-.285-.361-.969-.791-1.519-.43-.55-.786-1.225-.791-1.5-.005-.275-.189-.5-.409-.5-.22 0-.4-.36-.4-.8 0-.44-.15-.8-.332-.8-.183 0-.588-.495-.9-1.1-.313-.605-1.062-1.64-1.666-2.3-.604-.66-1.099-1.332-1.1-1.493-.003-.404-1.852-2.482-3.968-4.458a432.838 432.838 0 0 1-3.536-3.349c-.974-.935-1.89-1.701-2.035-1.702-.145-.001-.838-.541-1.541-1.2-.703-.659-1.423-1.198-1.6-1.198-.177-.001-.862-.469-1.522-1.04-.66-.572-1.875-1.334-2.7-1.694-.825-.36-1.5-.792-1.5-.96 0-.168-.36-.306-.8-.306-.44 0-.8-.18-.8-.4 0-.22-.234-.4-.52-.4-.736 0-2.673-.941-2.677-1.3-.002-.165-.363-.3-.803-.3-.44 0-.8-.18-.8-.4 0-.22-.439-.4-.976-.4-.537 0-1.088-.18-1.224-.4-.136-.22-.597-.4-1.024-.4-.427 0-.776-.18-.776-.4 0-.22-.439-.4-.976-.4-.537 0-1.088-.18-1.224-.4-.136-.22-.599-.4-1.029-.4-.43 0-1.184-.208-1.676-.462-1.954-1.01-2.32-1.138-3.266-1.138-.54 0-1.093-.18-1.229-.4-.136-.22-.676-.4-1.2-.4-.524 0-1.064-.18-1.2-.4-.136-.22-.676-.4-1.2-.4-.524 0-1.064-.18-1.2-.4-.136-.22-.856-.4-1.6-.4-.744 0-1.464-.18-1.6-.4-.136-.22-.676-.4-1.2-.4-.524 0-1.064-.18-1.2-.4-.136-.22-.766-.4-1.4-.4-.634 0-1.264-.18-1.4-.4-.136-.22-.856-.4-1.6-.4-.744 0-1.464-.18-1.6-.4-.136-.22-.856-.4-1.6-.4-.744 0-1.464-.18-1.6-.4-.136-.22-.967-.4-1.847-.4s-1.51-.145-1.4-.323c.109-.178-.555-.368-1.477-.422-.922-.054-1.847-.268-2.056-.476-.209-.209-1.053-.379-1.876-.379s-1.608-.18-1.744-.4c-.136-.22-.946-.4-1.8-.4-.854 0-1.664-.18-1.8-.4-.136-.22-.766-.4-1.4-.4-.634 0-1.264-.18-1.4-.4-.136-.22-.946-.4-1.8-.4-.854 0-1.664-.18-1.8-.4-.136-.22-.856-.4-1.6-.4-.744 0-1.464-.18-1.6-.4-.136-.22-.856-.4-1.6-.4-.744 0-1.464-.18-1.6-.4-.136-.22-.766-.4-1.4-.4-.634 0-1.264-.18-1.4-.4-.136-.22-.766-.4-1.4-.4-.634 0-1.264-.18-1.4-.4-.136-.22-.777-.4-1.424-.4-.647 0-1.176-.18-1.176-.4 0-.22-.439-.4-.976-.4-.537 0-1.088-.18-1.224-.4-.136-.22-.777-.4-1.424-.4-.647 0-1.176-.18-1.176-.4 0-.22-.272-.4-.605-.4-.333 0-.918-.161-1.3-.358a245.57 245.57 0 0 0-3.395-1.66c-1.485-.716-2.7-1.455-2.7-1.642 0-.187-.294-.34-.653-.34-.359 0-.944-.327-1.3-.728-.356-.4-.962-.844-1.347-.987-.385-.143-.7-.536-.7-.872 0-.337-.246-.613-.547-.613-.785 0-2.365-2.542-3.803-6.119-.583-1.448-.575-4.44.015-6.253.814-2.501 1.322-3.628 1.633-3.628.166 0 .302-.259.302-.576 0-.785 4.201-4.427 6.408-5.556.985-.504 2.197-1.13 2.692-1.392 2.043-1.08 2.517-1.276 3.095-1.276.333 0 .605-.18.605-.4 0-.22.529-.4 1.176-.4.647 0 1.288-.18 1.424-.4.136-.22.946-.4 1.8-.4.854 0 1.664-.18 1.8-.4.136-.22 1.216-.4 2.4-.4s2.264-.18 2.4-.4c.154-.249 3.93-.4 10-.4s9.846.151 10 .4c.136.22 1.137.4 2.224.4 1.087 0 1.976.18 1.976.4 0 .22.709.4 1.576.4.867 0 1.688.18 1.824.4.136.22.599.4 1.029.4.43 0 1.094.168 1.476.374.382.205 1.267.604 1.966.885.699.281 1.181.657 1.07.836-.11.179-.052.299.129.268.926-.161 1.657.147 2.93 1.237.77.659 1.546 1.199 1.724 1.199.178.001.194.226.035.501-.158.275-.134.361.053.191.402-.366 3.788 2.844 3.788 3.592 0 .284.15.517.332.517.183 0 .588.495.9 1.1.312.605.657 1.19.767 1.3.465.463 2.001 3.721 2.001 4.243 0 .312.208.97.462 1.462 1.006 1.946 1.138 2.318 1.138 3.21 0 .509.169 1.096.375 1.305.206.209.431 1.19.5 2.18l.125 1.8 4.4-.108c2.42-.059 8.628-.201 13.795-.314 5.189-.115 9.567-.38 9.78-.593.221-.221 3.73-.385 8.229-.385 9.506 0 10.244-.375 8.668-4.4-.129-.33-.327-1.77-.44-3.2-.369-4.679-.703-6.8-1.071-6.8-.198 0-.361-.619-.361-1.376 0-.757-.18-1.488-.4-1.624-.22-.136-.4-.689-.4-1.229 0-.54-.159-1.294-.353-1.676a24.296 24.296 0 0 1-.75-1.695c-.217-.55-.808-1.858-1.313-2.907-.505-1.049-.917-2.166-.917-2.483 0-.316-.15-.482-.334-.369-.183.114-.333-.074-.333-.417 0-.343-.18-.624-.4-.624-.22 0-.4-.234-.4-.52 0-.736-.941-2.673-1.3-2.677-.165-.002-.3-.238-.3-.525 0-.287-.653-1.232-1.451-2.1-.798-.868-1.923-2.207-2.5-2.975-.928-1.237-4.102-4.448-7.612-7.703-.652-.605-1.377-1.1-1.611-1.1-.235 0-.426-.18-.426-.4 0-.22-.225-.401-.5-.402-.275-.001-1.048-.496-1.717-1.1-1.492-1.345-2.775-2.098-3.578-2.098-.333 0-.605-.155-.605-.343 0-.395-7.943-4.464-8.705-4.46-.278.002-.863-.177-1.3-.397l-1.59-.8c-.437-.22-1.247-.4-1.8-.4-.553 0-1.005-.18-1.005-.4 0-.22-.529-.4-1.176-.4-.647 0-1.288-.18-1.424-.4-.136-.22-.946-.4-1.8-.4-.854 0-1.664-.18-1.8-.4-.136-.22-.856-.4-1.6-.4-.744 0-1.464-.18-1.6-.4-.136-.22-1.137-.4-2.224-.4-1.087 0-1.976-.18-1.976-.4 0-.222-1.059-.4-2.376-.4-1.307 0-2.469-.149-2.582-.332-.112-.182-2.235-.375-4.716-.428-2.482-.053-4.722-.271-4.979-.484-.601-.499-22.459-.422-22.769.079"/><path fill="#2c7c9c" d="M175 27.2c-.136.22-1.317.4-2.624.4-1.317 0-2.376.178-2.376.4 0 .22-.889.4-1.976.4s-2.088.18-2.224.4c-.136.22-1.047.4-2.024.4-.977 0-1.776.18-1.776.4 0 .22-.72.4-1.6.4-.88 0-1.6.18-1.6.4 0 .22-.72.4-1.6.4-.88 0-1.6.18-1.6.4 0 .22-.529.4-1.176.4-.647 0-1.288.18-1.424.4-.136.22-.867.4-1.624.4-.757 0-1.376.18-1.376.4 0 .22-.54.4-1.2.4-.66 0-1.2.18-1.2.4 0 .22-.54.4-1.2.4-.66 0-1.2.18-1.2.4 0 .22-.54.4-1.2.4-.66 0-1.2.18-1.2.4 0 .22-.54.4-1.2.4-.66 0-1.2.18-1.2.4 0 .22-.349.4-.776.4-.427 0-.888.18-1.024.4-.136.22-.687.4-1.224.4-.537 0-.976.18-.976.4 0 .22-.349.4-.776.4-.427 0-.888.18-1.024.4-.136.22-.687.4-1.224.4-.537 0-.976.18-.976.4 0 .22-.36.4-.8.4-.44 0-.8.18-.8.4 0 .22-.36.4-.8.4-.44 0-.8.18-.8.4 0 .22-.355.4-.788.4-.433 0-1.429.36-2.212.8-.783.44-1.689.8-2.012.8-.323 0-.588.18-.588.4 0 .22-.345.4-.767.4-.421 0-.826.135-.9.3-.073.165-.988.733-2.033 1.263-1.045.529-1.9 1.114-1.9 1.3 0 .185-.36.337-.8.337-.44 0-.8.18-.8.4 0 .22-.36.4-.8.4-.44 0-.8.18-.8.4 0 .22-.32.4-.712.4-.391 0-.971.36-1.288.8-.317.44-.897.8-1.288.8-.392 0-.712.18-.712.4 0 .22-.32.4-.712.4-.391 0-.971.36-1.288.8-.317.44-.897.8-1.288.8-.392 0-.712.15-.712.332 0 .183-.495.588-1.1.9-.605.313-1.449.883-1.875 1.268-.427.385-.972.7-1.212.7s-.696.36-1.013.8c-.317.44-.857.8-1.2.8-.343 0-.883.36-1.2.8-.317.44-.78.8-1.029.8-.249 0-1.017.54-1.708 1.2-.691.66-1.416 1.2-1.611 1.2-.196 0-1.097.72-2.004 1.6-.907.88-1.813 1.6-2.014 1.6-.2 0-1.461 1.08-2.802 2.4-1.34 1.32-2.604 2.4-2.808 2.4C84.722 69.2 70 83.896 70 84.397c0 .219-1.08 1.495-2.4 2.835-1.32 1.341-2.4 2.62-2.4 2.842 0 .223-.54.909-1.2 1.526-.66.617-1.2 1.292-1.2 1.501 0 .209-.54.945-1.2 1.636-.66.691-1.2 1.411-1.2 1.6 0 .189-.54.909-1.2 1.6-.66.691-1.2 1.488-1.2 1.771 0 .283-.36.775-.8 1.092-.44.317-.8.857-.8 1.2 0 .343-.36.883-.8 1.2-.44.317-.8.857-.8 1.2 0 .343-.36.883-.8 1.2-.44.317-.8.814-.8 1.105 0 .291-.36.915-.8 1.387-.44.472-.8 1.095-.8 1.383 0 .289-.18.525-.4.525-.22 0-.4.278-.4.617 0 .339-.36 1.003-.8 1.475-.44.472-.8 1.095-.8 1.383 0 .289-.18.525-.4.525-.22 0-.4.36-.4.8 0 .44-.18.8-.4.8-.22 0-.4.36-.4.8 0 .44-.18.8-.4.8-.22 0-.4.36-.4.8 0 .44-.159.8-.353.8-.195 0-.454.315-.576.7-.122.385-.48 1.15-.796 1.7-1.157 2.014-2.275 4.49-2.275 5.038 0 .309-.18.562-.4.562-.22 0-.4.36-.4.8 0 .44-.18.8-.4.8-.22 0-.4.36-.4.8 0 .44-.18.8-.4.8-.22 0-.4.349-.4.776 0 .427-.18.888-.4 1.024-.22.136-.4.687-.4 1.224 0 .537-.18.976-.4.976-.22 0-.4.36-.4.8 0 .44-.18.8-.4.8-.22 0-.4.54-.4 1.2 0 .66-.18 1.2-.4 1.2-.22 0-.4.362-.4.805 0 .778-.142 1.164-1.138 3.09-.254.492-.462 1.257-.462 1.7 0 .443-.18.805-.4.805-.22 0-.4.54-.4 1.2 0 .66-.18 1.2-.4 1.2-.22 0-.4.529-.4 1.176 0 .647-.18 1.288-.4 1.424-.22.136-.4.766-.4 1.4 0 .634-.18 1.264-.4 1.4-.22.136-.4.766-.4 1.4 0 .634-.18 1.264-.4 1.4-.22.136-.4.867-.4 1.624 0 .757-.18 1.376-.4 1.376-.22 0-.4.709-.4 1.576 0 .867-.18 1.688-.4 1.824-.22.136-.4 1.047-.4 2.024 0 .977-.18 1.776-.4 1.776-.22 0-.4.889-.4 1.976s-.18 2.088-.4 2.224c-.22.136-.4 1.216-.4 2.4s-.18 2.264-.4 2.4c-.22.136-.4 1.587-.4 3.224 0 1.717-.169 2.976-.4 2.976-.242 0-.4 1.725-.4 4.376 0 2.487-.173 4.484-.4 4.624-.545.337-.545 23.263 0 23.6.227.14.4 2.137.4 4.624 0 2.651.158 4.376.4 4.376.233 0 .4 1.333.4 3.2 0 1.867.167 3.2.4 3.2.22 0 .4.979.4 2.176s.18 2.288.4 2.424c.22.136.4 1.137.4 2.224 0 1.087.18 1.976.4 1.976.22 0 .4.709.4 1.576 0 .867.18 1.688.4 1.824.22.136.4 1.047.4 2.024 0 .977.18 1.776.4 1.776.22 0 .4.619.4 1.376 0 .757.18 1.488.4 1.624.22.136.4.777.4 1.424 0 .647.18 1.176.4 1.176.22 0 .4.72.4 1.6 0 .88.18 1.6.4 1.6.22 0 .4.54.4 1.2 0 .66.18 1.2.4 1.2.22 0 .4.54.4 1.2 0 .66.18 1.2.4 1.2.22 0 .4.54.4 1.2 0 .66.18 1.2.4 1.2.22 0 .4.439.4.976 0 .537.18 1.088.4 1.224.22.136.4.597.4 1.024 0 .427.18.776.4.776.22 0 .4.54.4 1.2 0 .66.18 1.2.4 1.2.22 0 .4.36.4.8 0 .44.18.8.4.8.22 0 .4.54.4 1.2 0 .66.18 1.2.4 1.2.22 0 .4.36.4.8 0 .44.18.8.4.8.22 0 .4.36.4.8 0 .44.18.8.4.8.22 0 .4.36.4.8 0 .44.18.8.4.8.22 0 .4.355.4.789 0 .434.458 1.559 1.018 2.5.559.941 1.12 2.026 1.246 2.411.126.385.388.7.583.7.194 0 .353.36.353.8 0 .44.18.8.4.8.22 0 .4.36.4.8 0 .44.18.8.4.8.22 0 .4.36.4.8 0 .44.18.8.4.8.22 0 .4.36.4.8 0 .44.18.8.4.8.22 0 .4.236.4.525 0 .288.36.911.8 1.383.44.472.8 1.136.8 1.475 0 .339.18.617.4.617.22 0 .4.32.4.712 0 .391.36.971.8 1.288.44.317.8.857.8 1.2 0 .343.36.883.8 1.2.44.317.8.897.8 1.288 0 .392.15.712.332.712.183 0 .587.495.898 1.1.31.605.881 1.391 1.267 1.747.387.356.703.806.704 1 0 .194.54.983 1.199 1.753.659.77 1.199 1.537 1.199 1.704.001.167.541.868 1.201 1.559s1.2 1.427 1.2 1.636c0 .209.54.884 1.2 1.501.66.617 1.2 1.303 1.2 1.526 0 .222 1.08 1.501 2.4 2.842 1.32 1.34 2.4 2.613 2.4 2.827 0 .527 14.706 15.205 15.234 15.205.23 0 1.295.9 2.366 2 1.071 1.1 2.118 2 2.326 2 .208 0 1.119.72 2.026 1.6.907.88 1.846 1.6 2.088 1.6.241 0 .943.54 1.56 1.2.617.66 1.274 1.2 1.46 1.201.187 0 .97.54 1.74 1.199s1.559 1.199 1.753 1.199c.194.001.644.317 1 .704.356.386 1.142.957 1.747 1.267.605.311 1.1.715 1.1.898 0 .182.32.332.712.332.391 0 .971.36 1.288.8.317.44.857.8 1.2.8.343 0 .883.36 1.2.8.317.44.897.8 1.288.8.392 0 .712.18.712.4 0 .22.278.4.617.4.339 0 1.003.36 1.475.8.472.44 1.095.8 1.383.8.289 0 .525.18.525.4 0 .22.345.4.767.4.421 0 .826.135.9.3.113.255 2.883 1.791 6.23 3.454.493.245.898.581.9.746.002.165.363.3.803.3.44 0 .8.18.8.4 0 .22.439.4.976.4.537 0 1.088.18 1.224.4.136.22.597.4 1.024.4.427 0 .776.18.776.4 0 .22.36.4.8.4.44 0 .8.18.8.4 0 .22.36.4.8.4.44 0 .8.18.8.4 0 .22.54.4 1.2.4.66 0 1.2.18 1.2.4 0 .22.36.4.8.4.44 0 .8.18.8.4 0 .22.54.4 1.2.4.66 0 1.2.18 1.2.4 0 .22.36.4.8.4.44 0 .8.18.8.4 0 .22.54.4 1.2.4.66 0 1.2.18 1.2.4 0 .22.54.4 1.2.4.66 0 1.2.18 1.2.4 0 .22.54.4 1.2.4.66 0 1.2.18 1.2.4 0 .22.54.4 1.2.4.66 0 1.2.18 1.2.4 0 .22.529.4 1.176.4.647 0 1.288.18 1.424.4.136.22.867.4 1.624.4.757 0 1.376.18 1.376.4 0 .22.72.4 1.6.4.88 0 1.6.18 1.6.4 0 .22.72.4 1.6.4.88 0 1.6.18 1.6.4 0 .22.709.4 1.576.4.867 0 1.688.18 1.824.4.136.22 1.126.4 2.2.4 1.074 0 2.064.18 2.2.4.136.22 1.137.4 2.224.4 1.087 0 1.976.18 1.976.4 0 .233 1.333.4 3.2.4 1.867 0 3.2.167 3.2.4 0 .24 1.592.4 3.976.4 2.22 0 4.086.177 4.224.4.339.548 27 .548 27 0 0-.241 1.659-.4 4.176-.4 2.353 0 4.285-.175 4.424-.4.136-.22 1.396-.4 2.8-.4s2.664-.18 2.8-.4c.136-.22 1.317-.4 2.624-.4 1.317 0 2.376-.178 2.376-.4 0-.22.799-.4 1.776-.4s1.888-.18 2.024-.4c.136-.22.946-.4 1.8-.4.854 0 1.664-.18 1.8-.4.136-.22.867-.4 1.624-.4.757 0 1.376-.18 1.376-.4 0-.22.72-.4 1.6-.4.88 0 1.6-.18 1.6-.4 0-.22.72-.4 1.6-.4.88 0 1.6-.18 1.6-.4 0-.22.54-.4 1.2-.4.66 0 1.2-.18 1.2-.4 0-.22.54-.4 1.2-.4.66 0 1.2-.18 1.2-.4 0-.22.54-.4 1.2-.4.66 0 1.2-.18 1.2-.4 0-.22.54-.4 1.2-.4.66 0 1.2-.18 1.2-.4 0-.22.54-.4 1.2-.4.66 0 1.2-.18 1.2-.4 0-.22.439-.4.976-.4.537 0 1.088-.18 1.224-.4.136-.22.597-.4 1.024-.4.427 0 .776-.18.776-.4 0-.22.349-.4.776-.4.427 0 .888-.18 1.024-.4.136-.22.687-.4 1.224-.4.537 0 .976-.18.976-.4 0-.22.36-.4.8-.4.44 0 .8-.18.8-.4 0-.22.272-.4.605-.4.588 0 1.013-.167 2.89-1.138.492-.254 1.167-.462 1.5-.462.333 0 .605-.18.605-.4 0-.22.36-.4.8-.4.44 0 .8-.18.8-.4 0-.22.345-.4.767-.4.421 0 .826-.135.9-.3.12-.27 2.222-1.478 4.63-2.66.493-.242.898-.575.9-.74.002-.165.363-.3.803-.3.44 0 .8-.18.8-.4 0-.22.36-.4.8-.4.44 0 .8-.18.8-.4 0-.22.236-.4.525-.4.288 0 .911-.36 1.383-.8.472-.44 1.096-.8 1.387-.8.291 0 .788-.36 1.105-.8.317-.44.897-.8 1.288-.8.392 0 .712-.18.712-.4 0-.22.236-.4.525-.4.288 0 .911-.36 1.383-.8.472-.44 1.019-.8 1.216-.8.197 0 .922-.54 1.613-1.2.691-.66 1.488-1.2 1.771-1.2.283 0 .775-.36 1.092-.8.317-.44.78-.8 1.029-.8.249 0 1.017-.54 1.708-1.2.691-.66 1.416-1.2 1.611-1.2.196 0 1.097-.72 2.004-1.6.907-.88 1.807-1.6 2-1.6.193 0 1.048-.676 1.9-1.502.851-.826 2.178-1.95 2.948-2.498 1.75-1.245 16-15.462 16-15.962 0-.203 1.08-1.465 2.4-2.806 1.32-1.34 2.4-2.616 2.4-2.834 0-.218.72-1.139 1.6-2.046.88-.907 1.6-1.808 1.6-2.004 0-.195.54-.92 1.2-1.611.66-.691 1.2-1.459 1.2-1.708 0-.249.36-.712.8-1.029.44-.317.8-.762.801-.988 0-.227.54-1.042 1.199-1.812s1.199-1.543 1.199-1.717c.001-.174.361-.703.801-1.175.44-.472.8-1.095.8-1.383 0-.289.18-.525.4-.525.22 0 .4-.236.4-.525 0-.288.36-.911.8-1.383.44-.472.8-1.054.8-1.292s.36-.82.8-1.292c.44-.472.8-1.095.8-1.383 0-.289.18-.525.4-.525.22 0 .4-.36.4-.8 0-.44.18-.8.4-.8.22 0 .4-.36.4-.8 0-.44.152-.8.337-.8.186 0 .771-.855 1.3-1.9.53-1.045 1.098-1.96 1.263-2.033.165-.074.3-.479.3-.9 0-.422.18-.767.4-.767.22 0 .4-.36.4-.8 0-.44.18-.8.4-.8.22 0 .4-.36.4-.8 0-.44.18-.8.4-.8.22 0 .4-.36.4-.8 0-.44.18-.8.4-.8.22 0 .4-.36.4-.8 0-.44.18-.8.4-.8.22 0 .4-.54.4-1.2 0-.66.18-1.2.4-1.2.22 0 .4-.36.4-.8 0-.44.18-.8.4-.8.22 0 .4-.349.4-.776 0-.427.18-.888.4-1.024.22-.136.4-.687.4-1.224 0-.537.18-.976.4-.976.22 0 .4-.349.4-.776 0-.427.18-.888.4-1.024.22-.136.4-.687.4-1.224 0-.537.18-.976.4-.976.22 0 .4-.362.4-.805 0-.443.18-1.163.4-1.6l.8-1.59c.22-.437.4-1.159.4-1.605 0-.446.18-1.168.4-1.605l.8-1.59c.22-.437.4-1.337.4-2s.18-1.205.4-1.205c.22 0 .4-.529.4-1.176 0-.647.18-1.288.4-1.424.22-.136.4-.867.4-1.624 0-.757.18-1.376.4-1.376.22 0 .4-.72.4-1.6 0-.88.18-1.6.4-1.6.22 0 .4-.799.4-1.776s.18-1.888.4-2.024c.22-.136.4-1.036.4-2s.18-1.864.4-2c.22-.136.4-1.101.4-2.144 0-1.043.2-2.096.445-2.341 1.232-1.232-.176-1.315-22.269-1.315H331.6v1.2c0 .66-.18 1.2-.4 1.2-.22 0-.4.709-.4 1.576 0 .867-.18 1.688-.4 1.824-.22.136-.4.867-.4 1.624 0 .757-.18 1.376-.4 1.376-.22 0-.4.619-.4 1.376 0 .757-.18 1.488-.4 1.624-.22.136-.4.676-.4 1.2 0 .524-.18 1.064-.4 1.2-.22.136-.4.777-.4 1.424 0 .647-.18 1.176-.4 1.176-.22 0-.4.349-.4.776 0 .427-.18.888-.4 1.024-.22.136-.4.687-.4 1.224 0 .537-.18.976-.4.976-.22 0-.4.439-.4.976 0 .537-.18 1.088-.4 1.224-.22.136-.4.597-.4 1.024 0 .427-.18.776-.4.776-.22 0-.4.36-.4.8 0 .44-.18.8-.4.8-.22 0-.4.272-.4.605 0 .333-.18.963-.4 1.4l-.8 1.59c-.22.437-.4 1.067-.4 1.4 0 .333-.135.606-.3.608-.165.002-.498.407-.74.9-1.182 2.408-2.39 4.51-2.66 4.63-.165.074-.3.479-.3.9 0 .422-.18.767-.4.767-.22 0-.4.36-.4.8 0 .44-.15.8-.332.8-.183 0-.588.495-.9 1.1-.313.605-.883 1.449-1.268 1.875-.385.427-.7 1.012-.7 1.3 0 .289-.18.525-.4.525-.22 0-.4.272-.4.604 0 .332-.54 1.168-1.2 1.859-.66.691-1.2 1.459-1.2 1.708 0 .249-.36.712-.8 1.029-.44.317-.8.769-.8 1.004 0 .236-.72 1.224-1.6 2.196-.88.972-1.6 1.924-1.6 2.115 0 .191-.681 1.009-1.513 1.816-.832.808-1.956 2.099-2.497 2.869-1.276 1.815-9.375 9.914-11.19 11.19-.77.541-2.061 1.665-2.869 2.497-.807.832-1.641 1.513-1.851 1.513-.211 0-1.125.72-2.032 1.6-.907.88-1.879 1.6-2.16 1.6-.281 0-.771.36-1.088.8-.317.44-.78.8-1.029.8-.249 0-1.017.54-1.708 1.2-.691.66-1.445 1.2-1.676 1.2-.231 0-.807.36-1.279.8-.472.44-1.095.8-1.383.8-.289 0-.525.18-.525.4 0 .22-.236.4-.525.4-.288 0-.911.36-1.383.8-.472.44-1.121.8-1.442.8-.321 0-.643.135-.717.3-.167.376-2.297 1.675-3.233 1.971-.385.122-.7.381-.7.576 0 .194-.36.353-.8.353-.44 0-.8.18-.8.4 0 .22-.36.4-.8.4-.44 0-.8.18-.8.4 0 .22-.36.4-.8.4-.44 0-.8.18-.8.4 0 .22-.36.4-.8.4-.44 0-.8.18-.8.4 0 .22-.349.4-.776.4-.427 0-.888.18-1.024.4-.136.22-.687.4-1.224.4-.537 0-.976.18-.976.4 0 .22-.36.4-.8.4-.44 0-.8.18-.8.4 0 .22-.439.4-.976.4-.537 0-1.088.18-1.224.4-.136.22-.597.4-1.024.4-.427 0-.776.18-.776.4 0 .22-.54.4-1.2.4-.66 0-1.2.18-1.2.4 0 .22-.54.4-1.2.4-.66 0-1.2.18-1.2.4 0 .22-.54.4-1.2.4-.66 0-1.2.18-1.2.4 0 .22-.54.4-1.2.4-.66 0-1.2.18-1.2.4 0 .22-.619.4-1.376.4-.757 0-1.488.18-1.624.4-.136.22-.957.4-1.824.4-.867 0-1.576.18-1.576.4 0 .22-.72.4-1.6.4-.88 0-1.6.18-1.6.4 0 .22-.9.4-2 .4s-2 .18-2 .4c0 .225-1.125.4-2.576.4-1.417 0-2.688.18-2.824.4-.136.22-1.677.4-3.424.4-1.851 0-3.176.167-3.176.4 0 .257-3.867.4-10.8.4-6.933 0-10.8-.143-10.8-.4 0-.237-1.467-.4-3.6-.4s-3.6-.163-3.6-.4c0-.222-1.067-.4-2.4-.4s-2.4-.178-2.4-.4c0-.22-.979-.4-2.176-.4s-2.288-.18-2.424-.4c-.136-.22-.957-.4-1.824-.4-.867 0-1.576-.18-1.576-.4 0-.22-.72-.4-1.6-.4-.88 0-1.6-.18-1.6-.4 0-.22-.619-.4-1.376-.4-.757 0-1.488-.18-1.624-.4-.136-.22-.777-.4-1.424-.4-.647 0-1.176-.18-1.176-.4 0-.22-.54-.4-1.2-.4-.66 0-1.2-.18-1.2-.4 0-.22-.54-.4-1.2-.4-.66 0-1.2-.18-1.2-.4 0-.22-.349-.4-.776-.4-.427 0-.888-.18-1.024-.4-.136-.22-.687-.4-1.224-.4-.537 0-.976-.18-.976-.4 0-.22-.54-.4-1.2-.4-.66 0-1.2-.18-1.2-.4 0-.22-.36-.4-.8-.4-.44 0-.8-.18-.8-.4 0-.22-.36-.4-.8-.4-.44 0-.8-.18-.8-.4 0-.22-.253-.4-.562-.4-.537 0-2.899-1.061-5.038-2.262a40.77 40.77 0 0 0-2.5-1.244c-.825-.376-1.5-.82-1.5-.988 0-.168-.36-.306-.8-.306-.44 0-.8-.18-.8-.4 0-.22-.36-.4-.8-.4-.44 0-.8-.18-.8-.4 0-.22-.236-.4-.525-.4-.288 0-.911-.36-1.383-.8-.472-.44-1.096-.8-1.387-.8-.291 0-.788-.36-1.105-.8-.317-.44-.897-.8-1.288-.8-.392 0-.712-.15-.712-.332 0-.183-.495-.587-1.1-.898-.605-.31-1.391-.881-1.747-1.267-.356-.387-.869-.703-1.139-.703-.271 0-.997-.54-1.614-1.2-.617-.66-1.319-1.2-1.56-1.2-.242 0-1.181-.72-2.088-1.6-.907-.88-1.811-1.6-2.009-1.6-.198 0-1.324-.964-2.503-2.142-1.178-1.178-2.835-2.663-3.683-3.3-1.976-1.485-5.23-4.739-6.715-6.715-.637-.848-2.122-2.505-3.3-3.683-1.178-1.179-2.142-2.305-2.142-2.503 0-.198-.72-1.102-1.6-2.009-.88-.907-1.6-1.83-1.6-2.052 0-.222-.54-.968-1.2-1.659-.66-.691-1.2-1.433-1.2-1.649 0-.217-.316-.685-.703-1.041-.386-.356-.957-1.142-1.267-1.747-.311-.605-.715-1.1-.898-1.1-.182 0-.332-.32-.332-.712 0-.391-.36-.971-.8-1.288-.44-.317-.8-.897-.8-1.288 0-.392-.18-.712-.4-.712-.22 0-.4-.236-.4-.525 0-.288-.36-.911-.8-1.383-.44-.472-.8-1.136-.8-1.475 0-.339-.18-.617-.4-.617-.22 0-.4-.36-.4-.8 0-.44-.18-.8-.4-.8-.22 0-.4-.36-.4-.8 0-.44-.18-.8-.4-.8-.22 0-.4-.345-.4-.767 0-.421-.135-.826-.3-.9-.432-.192-2.1-3.505-2.1-4.171 0-.309-.18-.562-.4-.562-.22 0-.4-.36-.4-.8 0-.44-.18-.8-.4-.8-.22 0-.4-.36-.4-.8 0-.44-.18-.8-.4-.8-.22 0-.4-.439-.4-.976 0-.537-.18-1.088-.4-1.224-.22-.136-.4-.597-.4-1.024 0-.427-.18-.776-.4-.776-.22 0-.4-.362-.4-.805 0-.443-.208-1.208-.462-1.7-.994-1.921-1.138-2.311-1.138-3.066 0-.43-.18-.893-.4-1.029-.22-.136-.4-.676-.4-1.2 0-.524-.18-1.064-.4-1.2-.22-.136-.4-.867-.4-1.624 0-.757-.18-1.376-.4-1.376-.22 0-.4-.529-.4-1.176 0-.647-.18-1.288-.4-1.424-.22-.136-.4-.946-.4-1.8 0-.854-.18-1.664-.4-1.8-.22-.136-.4-.957-.4-1.824 0-.867-.18-1.576-.4-1.576-.22 0-.4-.889-.4-1.976s-.18-2.088-.4-2.224c-.22-.136-.4-1.407-.4-2.824 0-1.451-.175-2.576-.4-2.576-.24 0-.4-1.6-.4-4s-.16-4-.4-4c-.544 0-.544-17.064 0-17.4.223-.138.4-2.004.4-4.224 0-2.384.16-3.976.4-3.976.225 0 .4-1.125.4-2.576 0-1.417.18-2.688.4-2.824.22-.136.4-1.137.4-2.224 0-1.087.18-1.976.4-1.976.22 0 .4-.709.4-1.576 0-.867.18-1.688.4-1.824.22-.136.4-.856.4-1.6 0-.744.18-1.464.4-1.6.22-.136.4-.867.4-1.624 0-.757.18-1.376.4-1.376.22 0 .4-.529.4-1.176 0-.647.18-1.288.4-1.424.22-.136.4-.676.4-1.2 0-.524.18-1.064.4-1.2.22-.136.4-.676.4-1.2 0-.524.18-1.064.4-1.2.22-.136.4-.687.4-1.224 0-.537.18-.976.4-.976.22 0 .4-.54.4-1.2 0-.66.18-1.2.4-1.2.22 0 .4-.36.4-.8 0-.44.18-.8.4-.8.22 0 .4-.54.4-1.2 0-.66.18-1.2.4-1.2.22 0 .4-.36.4-.8 0-.44.18-.8.4-.8.22 0 .4-.36.4-.8 0-.44.18-.8.4-.8.22 0 .4-.36.4-.8 0-.44.18-.8.4-.8.22 0 .4-.36.4-.8 0-.44.18-.8.4-.8.22 0 .4-.36.4-.8 0-.44.18-.8.4-.8.22 0 .4-.36.4-.8 0-.44.18-.8.4-.8.22 0 .4-.36.4-.8 0-.44.18-.8.4-.8.22 0 .4-.36.4-.8 0-.44.18-.8.4-.8.22 0 .4-.236.4-.525 0-.288.36-.911.8-1.383.44-.472.8-1.054.8-1.292s.36-.82.8-1.292c.44-.472.8-1.095.8-1.383 0-.289.18-.525.4-.525.22 0 .4-.32.4-.712 0-.391.36-.971.8-1.288.44-.317.8-.762.801-.988 0-.227.54-1.042 1.199-1.812s1.199-1.537 1.199-1.704c.001-.167.541-.868 1.201-1.559s1.2-1.409 1.2-1.596c0-.187.72-1.082 1.6-1.989.88-.907 1.6-1.821 1.6-2.032 0-.5 16.22-16.72 16.72-16.72.211 0 1.125-.72 2.032-1.6.907-.88 1.802-1.6 1.989-1.6.187 0 .905-.54 1.596-1.2.691-.66 1.392-1.2 1.559-1.201.167 0 .934-.54 1.704-1.199.77-.659 1.543-1.199 1.717-1.199.174-.001.703-.361 1.175-.801.472-.44 1.095-.8 1.383-.8.289 0 .525-.18.525-.4 0-.22.236-.4.525-.4.288 0 .911-.36 1.383-.8.472-.44 1.054-.8 1.292-.8s.82-.36 1.292-.8c.472-.44 1.095-.8 1.383-.8.289 0 .525-.18.525-.4 0-.22.36-.4.8-.4.44 0 .8-.18.8-.4 0-.22.36-.4.8-.4.44 0 .8-.18.8-.4 0-.22.36-.4.8-.4.44 0 .8-.18.8-.4 0-.22.36-.4.8-.4.44 0 .8-.18.8-.4 0-.22.36-.4.8-.4.44 0 .8-.18.8-.4 0-.22.36-.4.8-.4.44 0 .8-.18.8-.4 0-.22.36-.4.8-.4.44 0 .8-.18.8-.4 0-.22.355-.4.788-.4.433 0 1.429-.36 2.212-.8.783-.44 1.689-.8 2.012-.8.323 0 .588-.18.588-.4 0-.22.54-.4 1.2-.4.66 0 1.2-.18 1.2-.4 0-.22.439-.4.976-.4.537 0 1.088-.18 1.224-.4.136-.22.676-.4 1.2-.4.524 0 1.064-.18 1.2-.4.136-.22.777-.4 1.424-.4.647 0 1.176-.18 1.176-.4 0-.22.529-.4 1.176-.4.647 0 1.288-.18 1.424-.4.136-.22.867-.4 1.624-.4.757 0 1.376-.18 1.376-.4 0-.22.72-.4 1.6-.4.88 0 1.6-.18 1.6-.4 0-.22.9-.4 2-.4s2-.18 2-.4c0-.22.823-.4 1.829-.4 3.161 0 2.971 1.445 2.971-22.571V26.8h-2.976c-1.637 0-3.088.18-3.224.4m51.986 21.6c0 11.33.051 15.965.114 10.3.062-5.665.062-14.935 0-20.6-.063-5.665-.114-1.03-.114 10.3m64.636 55.1c.012.165.597.738 1.3 1.274l1.278.975-1.175-1.275c-1.222-1.325-1.44-1.477-1.403-.974m5.578 5.425c0 .069.585.654 1.3 1.3l1.3 1.175-1.175-1.3c-1.095-1.212-1.425-1.484-1.425-1.175m-23.398 91.877c.4.442.809.72.91.619.216-.216-.924-1.421-1.345-1.421-.16 0 .036.361.435.802"/><path fill="#80d0bc" d="M227.107 49.1c-.059 11.385.019 20.862.173 21.06.153.197.293-9.118.309-20.7.017-11.583-.061-21.06-.172-21.06-.112 0-.251 9.315-.31 20.7"/><path fill="#80d0bc" d="M227.107 49.1c-.059 11.385.019 20.862.173 21.06.153.197.293-9.118.309-20.7.017-11.583-.061-21.06-.172-21.06-.112 0-.251 9.315-.31 20.7"/><path fill="#80d0bc" d="M227.107 49.1c-.059 11.385.019 20.862.173 21.06.153.197.293-9.118.309-20.7.017-11.583-.061-21.06-.172-21.06-.112 0-.251 9.315-.31 20.7"/></g></svg>