<?xml version="1.0" encoding="utf-8"?>
<!-- Generator: Adobe Illustrator 27.8.1, SVG Export Plug-In . SVG Version: 6.00 Build 0)  -->
<svg version="1.1" id="Laag_1" xmlns="http://www.w3.org/2000/svg" xmlns:xlink="http://www.w3.org/1999/xlink" x="0px" y="0px"
	 width="1180.6px" height="498px" viewBox="0 0 1180.6 498" style="enable-background:new 0 0 1180.6 498;" xml:space="preserve">
<style type="text/css">
	.st0{fill:#00E6F0;}
</style>
<polygon class="st0" points="615.7,50.4 601.8,128.9 706.5,128.9 720.4,50.4 "/>
<polygon class="st0" points="562.6,351.4 667.3,351.4 706.3,130.4 584.8,225.3 "/>
<polygon class="st0" points="906.8,351.4 961.5,351.4 1045.2,285.9 918.3,285.9 "/>
<polygon class="st0" points="1169.1,155.1 1180.6,89.7 991.2,89.7 942.3,127.9 942.3,127.9 926.1,219.3 950.6,245.5 1050.8,254.4 
	1045.2,285.9 1147,206.4 1136.8,195.6 1036.6,186.7 1042.1,155.1 "/>
<polygon class="st0" points="273.8,89.7 219.1,89.7 135.4,155.1 262.3,155.1 "/>
<polygon class="st0" points="254.5,221.7 230.1,195.6 129.8,186.7 135.4,155.1 33.6,234.6 43.8,245.5 144,254.4 138.5,285.9 
	11.5,285.9 0,351.4 189.1,351.4 189.2,351.3 238.4,312.9 "/>
<polygon class="st0" points="845.9,155.1 911.3,155.1 922.8,89.6 886.3,89.7 852.8,115.8 852.8,115.8 852.8,115.8 852.8,115.8 
	873.2,0 751.8,94.9 713.5,312.1 750.2,351.4 889.8,351.4 901.3,285.9 822.8,285.9 "/>
<path class="st0" d="M441.4,89.7l-33.5,26.2l4.6-26.2l-104.7,0l-72,408.3l121.4-94.9l13.7-77.9l24.4,26.2l84.4,0l0.1,0l50.5-39.5
	l32.3-183l-36.7-39.3L441.4,89.7L441.4,89.7z M430.2,285.9h-52.3l23.1-130.9h52.3L430.2,285.9L430.2,285.9z"/>
</svg>
