<svg preserveAspectRatio="xMidYMid meet" data-bbox="1.006 2.001 125.42 27.999" xmlns="http://www.w3.org/2000/svg" viewBox="1.006 2.001 125.42 27.999" height="32" width="128" data-type="color" role="img" aria-label="Sprinque">
    <g>
        <g clip-path="url(#380ff2a5-104e-40f2-9c83-fddcb271d8d0_comp-lmg02cvd)">
            <path fill="#000339" d="M11.682 12.615c-1.071-1.01-2.296-1.349-3.734-1.349-1.776 0-2.755.552-2.755 1.502s.887 1.53 2.822 1.668c2.848.185 6.46.826 6.46 4.837 0 2.663-2.174 4.959-6.489 4.959-2.388 0-4.783-.399-6.98-2.695l1.837-2.662c1.071 1.192 3.508 2.082 5.204 2.11 1.406.032 2.723-.701 2.723-1.804 0-1.04-.858-1.47-3-1.595-2.851-.226-6.25-1.269-6.25-4.697 0-3.488 3.613-4.712 6.377-4.712 2.357 0 4.145.459 5.877 1.99l-2.092 2.448Z" data-color="1"></path>
            <path fill="#000339" d="M16.857 30V8.604h3.489l.245 2.082c1.164-1.684 3.19-2.417 4.898-2.417 4.653 0 7.742 3.456 7.742 7.895s-2.783 7.898-7.62 7.898c-1.595 0-3.948-.49-5.02-2.142V30h-3.734Zm12.64-13.836c0-2.366-1.59-4.28-4.285-4.28-2.695 0-4.286 1.914-4.286 4.28a4.286 4.286 0 1 0 8.571 0Z" data-color="1"></path>
            <path fill="#000339" d="m39.446 8.604.278 1.744c1.164-1.866 2.723-2.14 4.253-2.14 1.531 0 3.062.61 3.897 1.445l-1.684 3.243a3.735 3.735 0 0 0-2.69-.98c-1.962 0-3.767 1.04-3.767 3.827v7.94H35.99V8.603h3.456Z" data-color="1"></path>
            <path fill="#000339" d="M67.488 23.683v-7.886c0-2.296-1.257-4.04-3.645-4.04-2.296 0-3.855 1.914-3.855 4.225v7.701h-3.705V8.575h3.338l.243 2.05c1.53-1.502 3.06-2.264 4.961-2.264 3.55 0 6.397 2.663 6.397 7.408v7.914h-3.734Z" data-color="1"></path>
            <path fill="#000339" d="M86.342 30v-8.08c-1.071 1.651-3.428 2.142-5.019 2.142-4.837 0-7.62-3.488-7.62-7.898s3.089-7.895 7.741-7.895c1.716 0 3.737.733 4.898 2.417l.246-2.082h3.488V30h-3.734Zm-.335-13.836c0-2.356-1.594-4.286-4.285-4.286s-4.286 1.92-4.286 4.286a4.286 4.286 0 1 0 8.571 0Z" data-color="1"></path>
            <path fill="#000339" d="M96.875 8.604v7.898c0 2.296 1.253 4.04 3.641 4.04 2.296 0 3.859-1.913 3.859-4.225V8.604h3.702v15.12h-3.336l-.245-2.05c-1.559 1.53-3.001 2.267-5.102 2.267-3.613 0-6.244-2.726-6.244-7.407v-7.93h3.725Z" data-color="1"></path>
            <path fill="#000339" d="M114.569 17.481c.242 1.869 1.865 3.214 4.499 3.214 1.378 0 3.189-.52 4.04-1.41l2.388 2.36c-1.594 1.652-4.196 2.45-6.489 2.45-5.204 0-8.29-3.215-8.29-8.052 0-4.592 3.122-7.898 8.019-7.898 5.051 0 8.205 3.121 7.621 9.336h-11.788Zm8.201-3.09c-.245-1.96-1.776-2.94-3.916-2.94-2.021 0-3.673.98-4.225 2.94h8.141Z" data-color="1"></path>
            <path fill="#000339" d="M53.406 4.26a2.26 2.26 0 1 1-4.52.001 2.26 2.26 0 0 1 4.52 0Z" data-color="1"></path>
            <path fill="#000339" d="M53.406 15.887a2.26 2.26 0 1 1-4.52 0 2.26 2.26 0 0 1 4.52 0Z" data-color="1"></path>
            <path fill="#000339" d="M53.406 21.7a2.26 2.26 0 1 1-4.52 0 2.26 2.26 0 0 1 4.52 0Z" data-color="1"></path>
            <path fill="#000339" d="M53.406 10.074a2.26 2.26 0 1 1-4.52 0 2.26 2.26 0 0 1 4.52 0Z" data-color="1"></path>
        </g>
        <defs fill="none">
            <clipPath id="380ff2a5-104e-40f2-9c83-fddcb271d8d0_comp-lmg02cvd">
                <path transform="translate(1 2)" fill="#ffffff" d="M125.421 0v28H0V0h125.421z"></path>
            </clipPath>
        </defs>
    </g>
</svg>