<svg width="289" height="37" viewBox="0 0 289 37" fill="none" xmlns="http://www.w3.org/2000/svg">
<g clip-path="url(#clip0_3105_923)">
<path d="M9.01684 4.51587V13.8044H0V19.9112H9.01684V29.8155H15.3696V19.9112H24.3865V13.8044H15.3696V4.51587H9.01684Z" fill="#FF3C00"/>
<mask id="mask0_3105_923" style="mask-type:luminance" maskUnits="userSpaceOnUse" x="0" y="0" width="289" height="37">
<path d="M289 0H0V37H289V0Z" fill="white"/>
</mask>
<g mask="url(#mask0_3105_923)">
<path d="M49.3877 26.6339C47.236 28.7892 43.9571 29.6616 40.5246 29.6616C37.5531 29.6616 34.4279 28.8919 32.1225 26.7878C30.4831 25.2996 29.2023 22.8877 29.2023 20.2192H34.4279C34.4279 21.6048 35.0427 22.8364 35.9137 23.6575C37.092 24.8378 38.9876 25.1457 40.627 25.1457C42.5738 25.1457 44.4182 24.7351 45.4941 23.6575C46.1088 22.9903 46.6212 22.3232 46.6212 20.9376C46.6212 18.8849 45.033 17.9099 43.2911 17.602C41.3955 17.2428 38.9364 17.1915 37.092 16.8322C33.1984 16.2164 29.9708 13.6505 29.9708 8.98064C29.9708 6.77398 30.9442 4.87523 32.4299 3.43834C34.2742 1.5909 37.3994 0.461914 40.6783 0.461914C43.7009 0.461914 46.6212 1.43695 48.5168 3.18175C50.1562 4.77259 51.3345 6.8253 51.3857 9.18591H46.0576C46.0064 8.21087 45.4941 7.1332 44.828 6.41476C43.9059 5.43972 42.0615 4.92655 40.5246 4.92655C38.9364 4.92655 37.1432 5.28577 35.9649 6.46608C35.3501 7.08189 34.9915 7.80033 34.9915 8.82669C34.9915 10.6741 36.1698 11.5978 37.8605 11.9057C39.6536 12.1623 42.164 12.3676 43.9571 12.6242C48.1581 13.24 51.6931 15.9598 51.6931 20.7837C51.7444 23.3496 50.771 25.197 49.3877 26.6339Z" fill="white"/>
</g>
<mask id="mask1_3105_923" style="mask-type:luminance" maskUnits="userSpaceOnUse" x="0" y="0" width="289" height="37">
<path d="M289 0H0V37H289V0Z" fill="white"/>
</mask>
<g mask="url(#mask1_3105_923)">
<path d="M68.0874 29.097L67.7288 26.3771C66.7553 28.3785 64.4499 29.6101 61.8371 29.6101C57.4311 29.6101 54.7158 26.6337 54.7158 22.2204V8.46729H59.6853V21.1427C59.6853 23.5547 60.6587 25.0942 63.2716 25.0942C64.3987 25.0942 65.2184 24.6323 65.7819 24.0678C66.9603 22.9389 67.2677 21.0914 67.2677 19.4493V8.46729H72.2372V29.097H68.0874Z" fill="white"/>
</g>
<mask id="mask2_3105_923" style="mask-type:luminance" maskUnits="userSpaceOnUse" x="0" y="0" width="289" height="37">
<path d="M289 0H0V37H289V0Z" fill="white"/>
</mask>
<g mask="url(#mask2_3105_923)">
<path d="M90.9881 27.9682C89.7073 28.9945 88.0679 29.6103 85.9674 29.6103C83.5083 29.6103 81.5102 28.7379 80.588 27.6089V37.0001H75.6185V8.46747H79.922L80.2294 10.7254C81.459 8.8267 83.7644 8.00562 86.0186 8.00562C88.0679 8.00562 89.7586 8.72406 90.9881 9.75041C93.4473 11.7518 94.6769 14.8822 94.6769 18.7823C94.6256 22.7851 93.3961 25.9155 90.9881 27.9682ZM88.3241 13.8045C87.6068 12.8808 86.531 12.1623 84.994 12.1623C81.1004 12.1623 80.3319 15.8572 80.3319 18.8336C80.3319 21.8101 81.1004 25.4536 84.994 25.4536C86.531 25.4536 87.6068 24.7352 88.3241 23.8114C89.3487 22.4772 89.6561 20.5784 89.6561 18.8336C89.6049 17.0375 89.3487 15.1388 88.3241 13.8045Z" fill="white"/>
</g>
<mask id="mask3_3105_923" style="mask-type:luminance" maskUnits="userSpaceOnUse" x="0" y="0" width="289" height="37">
<path d="M289 0H0V37H289V0Z" fill="white"/>
</mask>
<g mask="url(#mask3_3105_923)">
<path d="M112.096 27.9682C110.815 28.9945 109.176 29.6103 107.075 29.6103C104.616 29.6103 102.618 28.7379 101.696 27.6089V37.0001H96.7261V8.46747H101.03L101.337 10.7254C102.567 8.8267 104.872 8.00562 107.126 8.00562C109.176 8.00562 110.866 8.72406 112.096 9.75041C114.555 11.7518 115.784 14.8822 115.784 18.7823C115.784 22.7851 114.555 25.9155 112.096 27.9682ZM109.432 13.8045C108.714 12.8808 107.639 12.1623 106.102 12.1623C102.208 12.1623 101.439 15.8572 101.439 18.8336C101.439 21.8101 102.208 25.4536 106.102 25.4536C107.639 25.4536 108.714 24.7352 109.432 23.8114C110.456 22.4772 110.764 20.5784 110.764 18.8336C110.712 17.0375 110.456 15.1388 109.432 13.8045Z" fill="white"/>
</g>
<mask id="mask4_3105_923" style="mask-type:luminance" maskUnits="userSpaceOnUse" x="0" y="0" width="289" height="37">
<path d="M289 0H0V37H289V0Z" fill="white"/>
</mask>
<g mask="url(#mask4_3105_923)">
<path d="M134.945 26.4286C133.511 28.1734 130.847 29.6616 127.722 29.6616C124.596 29.6616 121.932 28.1734 120.498 26.4286C118.961 24.4786 118.09 22.3232 118.09 18.8336C118.09 15.344 118.961 13.1374 120.498 11.2386C121.932 9.49383 124.596 8.00562 127.722 8.00562C130.847 8.00562 133.511 9.49383 134.945 11.2386C136.482 13.1887 137.353 15.344 137.353 18.8336C137.353 22.2719 136.482 24.4786 134.945 26.4286ZM130.847 13.5992C130.181 12.8808 129.054 12.265 127.722 12.265C126.389 12.265 125.262 12.8808 124.596 13.5992C123.418 14.9335 123.111 16.8322 123.111 18.7823C123.111 20.7324 123.367 22.6825 124.596 23.9654C125.262 24.6838 126.389 25.2997 127.722 25.2997C129.054 25.2997 130.181 24.6838 130.847 23.9654C132.025 22.6311 132.332 20.7324 132.332 18.7823C132.332 16.8322 132.025 14.8822 130.847 13.5992Z" fill="white"/>
</g>
<mask id="mask5_3105_923" style="mask-type:luminance" maskUnits="userSpaceOnUse" x="0" y="0" width="289" height="37">
<path d="M289 0H0V37H289V0Z" fill="white"/>
</mask>
<g mask="url(#mask5_3105_923)">
<path d="M149.7 12.8806C146.216 12.8806 144.372 15.3952 144.372 18.7309V29.1483H139.402V8.46733H143.603L144.065 11.5464C145.038 9.18578 147.446 8.15942 149.905 8.15942C150.417 8.15942 150.93 8.21074 151.442 8.26206V13.0346C150.878 12.9833 150.264 12.8806 149.7 12.8806Z" fill="white"/>
</g>
<mask id="mask6_3105_923" style="mask-type:luminance" maskUnits="userSpaceOnUse" x="0" y="0" width="289" height="37">
<path d="M289 0H0V37H289V0Z" fill="white"/>
</mask>
<g mask="url(#mask6_3105_923)">
<path d="M163.481 29.4051C159.332 29.4051 157.282 27.0445 157.282 23.0417V12.5729H153.542V8.46748H157.282V3.23309L162.252 2.00146V8.46748H167.426V12.5729H162.252V22.5798C162.252 24.1707 162.969 24.8378 164.557 24.8378C165.582 24.8378 166.402 24.7865 167.785 24.6325V28.7893C166.35 29.1998 164.967 29.4051 163.481 29.4051Z" fill="white"/>
</g>
<mask id="mask7_3105_923" style="mask-type:luminance" maskUnits="userSpaceOnUse" x="0" y="0" width="289" height="37">
<path d="M289 0H0V37H289V0Z" fill="white"/>
</mask>
<g mask="url(#mask7_3105_923)">
<path d="M184.999 29.559H173.625V0.513184H184.999C188.329 0.513184 191.249 1.64217 193.196 3.69488C196.219 6.77393 196.629 11.1872 196.629 15.0361C196.629 18.9362 196.219 23.3495 193.196 26.4286C191.3 28.43 188.38 29.559 184.999 29.559ZM179.671 24.068H185.05C186.485 24.068 187.765 23.5548 188.688 22.6311C190.583 20.7323 190.583 17.448 190.583 15.0361C190.583 12.6755 190.583 9.39113 188.688 7.49238C187.765 6.56866 186.485 6.05549 185.05 6.05549H179.671V24.068Z" fill="#FF3C00"/>
</g>
<mask id="mask8_3105_923" style="mask-type:luminance" maskUnits="userSpaceOnUse" x="0" y="0" width="289" height="37">
<path d="M289 0H0V37H289V0Z" fill="white"/>
</mask>
<g mask="url(#mask8_3105_923)">
<path d="M208.105 30.0722C205.389 30.0722 203.186 29.1998 201.291 27.4037C199.139 25.351 197.961 22.2719 197.961 18.8336C197.961 15.344 199.088 12.3163 201.086 10.2636C202.828 8.46747 205.236 7.49243 208.002 7.49243C211.383 7.49243 214.201 8.92932 215.892 11.4952C217.275 13.5479 217.839 15.8572 217.736 18.9363C217.736 18.9363 217.685 19.86 217.685 20.3218V20.7837H203.904C203.955 22.0666 204.467 23.2469 205.287 24.0167C206.107 24.7865 206.977 25.1457 208.002 25.1457C209.334 25.1457 210.051 24.8891 210.666 24.2733C211.076 23.8627 211.383 23.3496 211.537 22.7338L211.64 22.3745H217.275L217.224 22.8877C217.07 24.2733 216.199 25.9668 215.38 26.9418C213.74 28.9945 211.127 30.0722 208.105 30.0722ZM203.904 16.2677H211.845C211.742 15.0874 211.383 14.1637 210.717 13.4453C210.103 12.7781 209.129 12.4189 207.951 12.4189C206.67 12.4189 205.543 12.9321 204.877 13.8045C204.313 14.5229 204.006 15.2414 203.904 16.2677Z" fill="#FF3C00"/>
</g>
<mask id="mask9_3105_923" style="mask-type:luminance" maskUnits="userSpaceOnUse" x="0" y="0" width="289" height="37">
<path d="M289 0H0V37H289V0Z" fill="white"/>
</mask>
<g mask="url(#mask9_3105_923)">
<path d="M228.7 30.0721C225.882 30.0721 223.423 29.1997 221.732 27.5576C220.247 26.1207 219.427 24.2732 219.427 22.4258V21.964H224.96V22.4258C224.96 23.1956 225.37 24.068 225.882 24.4785C226.599 25.043 227.419 25.2996 228.7 25.2996C230.391 25.2996 232.44 24.9404 232.44 23.1443C232.44 22.2205 231.825 21.6047 230.749 21.3995C230.083 21.2968 229.366 21.1942 228.597 21.1429C227.419 20.9889 226.138 20.8863 225.011 20.6297C222.04 20.0139 219.939 17.5506 219.939 14.6769C219.939 12.6755 220.708 10.982 222.193 9.69904C223.782 8.31347 226.138 7.5437 228.751 7.5437C231.518 7.5437 234.079 8.51874 235.565 10.1096C236.795 11.4438 237.512 13.086 237.512 14.6769V15.1387H231.876V14.6769C231.876 14.1124 231.62 13.5479 231.159 13.0347C230.698 12.5728 229.725 12.2136 228.802 12.2136C228.085 12.2136 227.522 12.2136 226.856 12.4702C226.446 12.6241 225.575 13.1373 225.575 14.215C225.575 14.8308 225.78 15.5492 227.573 15.8058C228.034 15.8572 228.444 15.9085 228.802 15.9598C229.827 16.0624 230.493 16.1651 231.979 16.4216C235.667 16.9861 237.973 19.3981 237.973 22.7337C237.973 24.6838 237.307 26.326 236.077 27.5576C234.438 29.1997 231.876 30.0721 228.7 30.0721Z" fill="#FF3C00"/>
</g>
<mask id="mask10_3105_923" style="mask-type:luminance" maskUnits="userSpaceOnUse" x="0" y="0" width="289" height="37">
<path d="M289 0H0V37H289V0Z" fill="white"/>
</mask>
<g mask="url(#mask10_3105_923)">
<path d="M261.591 29.5589H254.777L249.141 20.835L246.375 23.8627V29.5589H240.534V0H246.375V15.7032L253.547 8.00555H261.027L253.189 16.5243L261.591 29.5589Z" fill="#FF3C00"/>
</g>
<mask id="mask11_3105_923" style="mask-type:luminance" maskUnits="userSpaceOnUse" x="0" y="0" width="289" height="37">
<path d="M289 0H0V37H289V0Z" fill="white"/>
</mask>
<g mask="url(#mask11_3105_923)">
<path d="M289.154 29.1997H265.946V34.5367H289.154V29.1997Z" fill="#FF3C00"/>
</g>
</g>
<defs>
<clipPath id="clip0_3105_923">
<rect width="289" height="37" fill="white"/>
</clipPath>
</defs>
</svg>
