<svg width="782" height="101" viewBox="0 0 782 101" fill="none" xmlns="http://www.w3.org/2000/svg">
<path d="M24.3698 12.2053V37.3093H0V53.8142H24.3698V80.5826H41.5395V53.8142H65.9093V37.3093H41.5395V12.2053H24.3698Z" fill="#FF3C00"/>
<path d="M499.997 79.889H469.258V1.38696H499.997C508.997 1.38696 516.89 4.43828 522.151 9.98613C530.321 18.3079 531.429 30.2358 531.429 40.638C531.429 51.1789 530.321 63.1068 522.151 71.4286C517.028 76.8377 509.136 79.889 499.997 79.889ZM485.597 65.0485H500.136C504.013 65.0485 507.474 63.6616 509.967 61.165C515.09 56.0333 515.09 47.1567 515.09 40.638C515.09 34.258 515.09 25.3814 509.967 20.2497C507.474 17.7531 504.013 16.3662 500.136 16.3662H485.597V65.0485Z" fill="#FF3C00"/>
<path d="M562.445 81.2761C555.106 81.2761 549.152 78.9183 544.029 74.0639C538.214 68.5161 535.029 60.1943 535.029 50.9016C535.029 41.4703 538.075 33.2872 543.475 27.7394C548.183 22.885 554.691 20.2498 562.168 20.2498C571.307 20.2498 578.922 24.1332 583.492 31.0681C587.23 36.6159 588.753 42.8572 588.476 51.179C588.476 51.179 588.338 53.6756 588.338 54.9238V56.1721H551.091C551.229 59.6395 552.614 62.8295 554.829 64.9099C557.045 66.9904 559.399 67.9613 562.168 67.9613C565.768 67.9613 567.707 67.2678 569.368 65.6034C570.476 64.4939 571.307 63.1069 571.722 61.4425L571.999 60.4717H587.23L587.092 61.8586C586.676 65.6034 584.322 70.1804 582.107 72.8156C577.676 78.3635 570.614 81.2761 562.445 81.2761ZM551.091 43.9668H572.553C572.276 40.7768 571.307 38.2803 569.507 36.3385C567.845 34.5355 565.214 33.5646 562.029 33.5646C558.568 33.5646 555.522 34.9516 553.722 37.3094C552.198 39.2511 551.368 41.1929 551.091 43.9668Z" fill="#FF3C00"/>
<path d="M618.108 81.2761C610.492 81.2761 603.846 78.9183 599.276 74.48C595.261 70.5965 593.045 65.6034 593.045 60.6103V59.3621H608V60.6103C608 62.6908 609.107 65.0486 610.492 66.1582C612.431 67.6839 614.646 68.3773 618.108 68.3773C622.677 68.3773 628.216 67.4065 628.216 62.5521C628.216 60.0556 626.554 58.3912 623.646 57.8364C621.846 57.559 619.908 57.2816 617.831 57.1429C614.646 56.7268 611.184 56.4495 608.138 55.756C600.107 54.0916 594.43 47.4342 594.43 39.6672C594.43 34.2581 596.507 29.6811 600.523 26.2137C604.815 22.4689 611.184 20.3884 618.246 20.3884C625.723 20.3884 632.646 23.0237 636.662 27.3232C639.985 30.9293 641.924 35.3676 641.924 39.6672V40.9155H626.692V39.6672C626.692 38.1416 626 36.6159 624.754 35.2289C623.508 33.9807 620.877 33.0098 618.385 33.0098C616.446 33.0098 614.923 33.0098 613.123 33.7033C612.015 34.1194 609.661 35.5063 609.661 38.4189C609.661 40.0833 610.215 42.025 615.061 42.7185C616.308 42.8572 617.415 42.9959 618.385 43.1346C621.154 43.412 622.954 43.6894 626.969 44.3829C636.939 45.9085 643.17 52.4273 643.17 61.4425C643.17 66.713 641.37 71.1513 638.047 74.48C633.616 78.9183 626.692 81.2761 618.108 81.2761Z" fill="#FF3C00"/>
<path d="M707.002 79.889H688.587L673.355 56.3107L665.878 64.4938V79.889H650.093V0H665.878V42.4411L685.263 21.6366H705.479L684.294 44.6602L707.002 79.889Z" fill="#FF3C00"/>
<path d="M781.497 78.9182H718.772V93.3426H781.497V78.9182Z" fill="#FF3C00"/>
<mask id="path-2-outside-1_7393_121" maskUnits="userSpaceOnUse" x="77.925" y="0.248291" width="377" height="101" fill="black">
<rect fill="white" x="77.925" y="0.248291" width="377" height="101"/>
<path d="M133.48 71.9834C127.665 77.8086 118.803 80.1665 109.526 80.1665C101.495 80.1665 93.0485 78.086 86.8176 72.3995C82.3867 68.3773 78.925 61.8586 78.925 54.6463H93.0485C93.0485 58.3911 94.7101 61.7199 97.064 63.939C100.249 67.129 105.372 67.9612 109.803 67.9612C115.064 67.9612 120.049 66.8516 122.957 63.939C124.619 62.1359 126.003 60.3329 126.003 56.5881C126.003 51.0402 121.711 48.405 117.003 47.5728C111.88 46.602 105.233 46.4633 100.249 45.4924C89.7253 43.828 81.002 36.8932 81.002 24.2719C81.002 18.3079 83.6329 13.1762 87.6483 9.29267C92.6331 4.29961 101.079 1.24829 109.941 1.24829C118.111 1.24829 126.003 3.88352 131.126 8.59919C135.557 12.8988 138.742 18.4466 138.88 24.8267H124.48C124.342 22.1914 122.957 19.2788 121.157 17.3371C118.665 14.7018 113.68 13.3149 109.526 13.3149C105.233 13.3149 100.387 14.2857 97.2024 17.4758C95.5408 19.1401 94.5716 21.0819 94.5716 23.8558C94.5716 28.8488 97.7563 31.3454 102.326 32.1776C107.172 32.871 113.957 33.4258 118.803 34.1193C130.157 35.7837 139.711 43.1346 139.711 56.172C139.85 63.1068 137.219 68.0999 133.48 71.9834Z"/>
<path d="M184.02 78.6407L183.051 71.2898C180.42 76.6989 174.189 80.0276 167.127 80.0276C155.219 80.0276 147.881 71.9832 147.881 60.0554V22.8848H161.312V57.1427C161.312 63.6615 163.943 67.8224 171.004 67.8224C174.05 67.8224 176.266 66.5741 177.789 65.0484C180.974 61.9971 181.805 57.004 181.805 52.5658V22.8848H195.236V78.6407H184.02Z"/>
<path d="M245.914 75.5896C242.452 78.3635 238.021 80.0278 232.344 80.0278C225.698 80.0278 220.298 77.67 217.805 74.6187V100H204.374V22.885H216.005L216.836 28.9876C220.159 23.8559 226.39 21.6367 232.483 21.6367C238.021 21.6367 242.591 23.5785 245.914 26.3524C252.56 31.7615 255.883 40.222 255.883 50.7629C255.745 61.5812 252.422 70.0417 245.914 75.5896ZM238.714 37.3094C236.775 34.8129 233.867 32.8711 229.713 32.8711C219.19 32.8711 217.113 42.8572 217.113 50.9016C217.113 58.946 219.19 68.7934 229.713 68.7934C233.867 68.7934 236.775 66.8517 238.714 64.3552C241.483 60.7491 242.314 55.6173 242.314 50.9016C242.175 46.0473 241.483 40.9155 238.714 37.3094Z"/>
<path d="M302.961 75.5896C299.5 78.3635 295.069 80.0278 289.392 80.0278C282.745 80.0278 277.345 77.67 274.853 74.6187V100H261.422V22.885H273.053L273.884 28.9876C277.207 23.8559 283.438 21.6367 289.53 21.6367C295.069 21.6367 299.638 23.5785 302.961 26.3524C309.608 31.7615 312.931 40.222 312.931 50.7629C312.931 61.5812 309.608 70.0417 302.961 75.5896ZM295.761 37.3094C293.823 34.8129 290.915 32.8711 286.761 32.8711C276.238 32.8711 274.161 42.8572 274.161 50.9016C274.161 58.946 276.238 68.7934 286.761 68.7934C290.915 68.7934 293.823 66.8517 295.761 64.3552C298.531 60.7491 299.361 55.6173 299.361 50.9016C299.223 46.0473 298.531 40.9155 295.761 37.3094Z"/>
<path d="M364.717 71.4287C360.84 76.1444 353.64 80.1665 345.193 80.1665C336.747 80.1665 329.547 76.1444 325.67 71.4287C321.516 66.1582 319.162 60.333 319.162 50.9016C319.162 41.4703 321.516 35.5063 325.67 30.3746C329.547 25.6589 336.747 21.6367 345.193 21.6367C353.64 21.6367 360.84 25.6589 364.717 30.3746C368.871 35.645 371.225 41.4703 371.225 50.9016C371.225 60.1943 368.871 66.1582 364.717 71.4287ZM353.64 36.7546C351.84 34.8129 348.793 33.1485 345.193 33.1485C341.593 33.1485 338.547 34.8129 336.747 36.7546C333.562 40.3607 332.731 45.4925 332.731 50.7629C332.731 56.0334 333.424 61.3039 336.747 64.7713C338.547 66.713 341.593 68.3774 345.193 68.3774C348.793 68.3774 351.84 66.713 353.64 64.7713C356.824 61.1652 357.655 56.0334 357.655 50.7629C357.655 45.4925 356.824 40.222 353.64 36.7546Z"/>
<path d="M404.595 34.8128C395.179 34.8128 390.194 41.6089 390.194 50.6242V78.7795H376.763V22.8849H388.117L389.364 31.2067C391.994 24.8267 398.502 22.0527 405.149 22.0527C406.533 22.0527 407.918 22.1914 409.302 22.3301V35.2289C407.779 35.0902 406.118 34.8128 404.595 34.8128Z"/>
<path d="M441.842 79.473C430.626 79.473 425.087 73.093 425.087 62.2746V33.9806H414.979V22.8849H425.087V8.73789L438.519 5.40918V22.8849H452.503V33.9806H438.519V61.0264C438.519 65.326 440.457 67.129 444.749 67.129C447.519 67.129 449.734 66.9903 453.473 66.5742V77.8086C449.596 78.9182 445.857 79.473 441.842 79.473Z"/>
</mask>
<path d="M133.48 71.9834C127.665 77.8086 118.803 80.1665 109.526 80.1665C101.495 80.1665 93.0485 78.086 86.8176 72.3995C82.3867 68.3773 78.925 61.8586 78.925 54.6463H93.0485C93.0485 58.3911 94.7101 61.7199 97.064 63.939C100.249 67.129 105.372 67.9612 109.803 67.9612C115.064 67.9612 120.049 66.8516 122.957 63.939C124.619 62.1359 126.003 60.3329 126.003 56.5881C126.003 51.0402 121.711 48.405 117.003 47.5728C111.88 46.602 105.233 46.4633 100.249 45.4924C89.7253 43.828 81.002 36.8932 81.002 24.2719C81.002 18.3079 83.6329 13.1762 87.6483 9.29267C92.6331 4.29961 101.079 1.24829 109.941 1.24829C118.111 1.24829 126.003 3.88352 131.126 8.59919C135.557 12.8988 138.742 18.4466 138.88 24.8267H124.48C124.342 22.1914 122.957 19.2788 121.157 17.3371C118.665 14.7018 113.68 13.3149 109.526 13.3149C105.233 13.3149 100.387 14.2857 97.2024 17.4758C95.5408 19.1401 94.5716 21.0819 94.5716 23.8558C94.5716 28.8488 97.7563 31.3454 102.326 32.1776C107.172 32.871 113.957 33.4258 118.803 34.1193C130.157 35.7837 139.711 43.1346 139.711 56.172C139.85 63.1068 137.219 68.0999 133.48 71.9834Z" fill="white"/>
<path d="M184.02 78.6407L183.051 71.2898C180.42 76.6989 174.189 80.0276 167.127 80.0276C155.219 80.0276 147.881 71.9832 147.881 60.0554V22.8848H161.312V57.1427C161.312 63.6615 163.943 67.8224 171.004 67.8224C174.05 67.8224 176.266 66.5741 177.789 65.0484C180.974 61.9971 181.805 57.004 181.805 52.5658V22.8848H195.236V78.6407H184.02Z" fill="white"/>
<path d="M245.914 75.5896C242.452 78.3635 238.021 80.0278 232.344 80.0278C225.698 80.0278 220.298 77.67 217.805 74.6187V100H204.374V22.885H216.005L216.836 28.9876C220.159 23.8559 226.39 21.6367 232.483 21.6367C238.021 21.6367 242.591 23.5785 245.914 26.3524C252.56 31.7615 255.883 40.222 255.883 50.7629C255.745 61.5812 252.422 70.0417 245.914 75.5896ZM238.714 37.3094C236.775 34.8129 233.867 32.8711 229.713 32.8711C219.19 32.8711 217.113 42.8572 217.113 50.9016C217.113 58.946 219.19 68.7934 229.713 68.7934C233.867 68.7934 236.775 66.8517 238.714 64.3552C241.483 60.7491 242.314 55.6173 242.314 50.9016C242.175 46.0473 241.483 40.9155 238.714 37.3094Z" fill="white"/>
<path d="M302.961 75.5896C299.5 78.3635 295.069 80.0278 289.392 80.0278C282.745 80.0278 277.345 77.67 274.853 74.6187V100H261.422V22.885H273.053L273.884 28.9876C277.207 23.8559 283.438 21.6367 289.53 21.6367C295.069 21.6367 299.638 23.5785 302.961 26.3524C309.608 31.7615 312.931 40.222 312.931 50.7629C312.931 61.5812 309.608 70.0417 302.961 75.5896ZM295.761 37.3094C293.823 34.8129 290.915 32.8711 286.761 32.8711C276.238 32.8711 274.161 42.8572 274.161 50.9016C274.161 58.946 276.238 68.7934 286.761 68.7934C290.915 68.7934 293.823 66.8517 295.761 64.3552C298.531 60.7491 299.361 55.6173 299.361 50.9016C299.223 46.0473 298.531 40.9155 295.761 37.3094Z" fill="white"/>
<path d="M364.717 71.4287C360.84 76.1444 353.64 80.1665 345.193 80.1665C336.747 80.1665 329.547 76.1444 325.67 71.4287C321.516 66.1582 319.162 60.333 319.162 50.9016C319.162 41.4703 321.516 35.5063 325.67 30.3746C329.547 25.6589 336.747 21.6367 345.193 21.6367C353.64 21.6367 360.84 25.6589 364.717 30.3746C368.871 35.645 371.225 41.4703 371.225 50.9016C371.225 60.1943 368.871 66.1582 364.717 71.4287ZM353.64 36.7546C351.84 34.8129 348.793 33.1485 345.193 33.1485C341.593 33.1485 338.547 34.8129 336.747 36.7546C333.562 40.3607 332.731 45.4925 332.731 50.7629C332.731 56.0334 333.424 61.3039 336.747 64.7713C338.547 66.713 341.593 68.3774 345.193 68.3774C348.793 68.3774 351.84 66.713 353.64 64.7713C356.824 61.1652 357.655 56.0334 357.655 50.7629C357.655 45.4925 356.824 40.222 353.64 36.7546Z" fill="white"/>
<path d="M404.595 34.8128C395.179 34.8128 390.194 41.6089 390.194 50.6242V78.7795H376.763V22.8849H388.117L389.364 31.2067C391.994 24.8267 398.502 22.0527 405.149 22.0527C406.533 22.0527 407.918 22.1914 409.302 22.3301V35.2289C407.779 35.0902 406.118 34.8128 404.595 34.8128Z" fill="white"/>
<path d="M441.842 79.473C430.626 79.473 425.087 73.093 425.087 62.2746V33.9806H414.979V22.8849H425.087V8.73789L438.519 5.40918V22.8849H452.503V33.9806H438.519V61.0264C438.519 65.326 440.457 67.129 444.749 67.129C447.519 67.129 449.734 66.9903 453.473 66.5742V77.8086C449.596 78.9182 445.857 79.473 441.842 79.473Z" fill="white"/>
<path d="M133.48 71.9834C127.665 77.8086 118.803 80.1665 109.526 80.1665C101.495 80.1665 93.0485 78.086 86.8176 72.3995C82.3867 68.3773 78.925 61.8586 78.925 54.6463H93.0485C93.0485 58.3911 94.7101 61.7199 97.064 63.939C100.249 67.129 105.372 67.9612 109.803 67.9612C115.064 67.9612 120.049 66.8516 122.957 63.939C124.619 62.1359 126.003 60.3329 126.003 56.5881C126.003 51.0402 121.711 48.405 117.003 47.5728C111.88 46.602 105.233 46.4633 100.249 45.4924C89.7253 43.828 81.002 36.8932 81.002 24.2719C81.002 18.3079 83.6329 13.1762 87.6483 9.29267C92.6331 4.29961 101.079 1.24829 109.941 1.24829C118.111 1.24829 126.003 3.88352 131.126 8.59919C135.557 12.8988 138.742 18.4466 138.88 24.8267H124.48C124.342 22.1914 122.957 19.2788 121.157 17.3371C118.665 14.7018 113.68 13.3149 109.526 13.3149C105.233 13.3149 100.387 14.2857 97.2024 17.4758C95.5408 19.1401 94.5716 21.0819 94.5716 23.8558C94.5716 28.8488 97.7563 31.3454 102.326 32.1776C107.172 32.871 113.957 33.4258 118.803 34.1193C130.157 35.7837 139.711 43.1346 139.711 56.172C139.85 63.1068 137.219 68.0999 133.48 71.9834Z" stroke="black" stroke-width="2" mask="url(#path-2-outside-1_7393_121)"/>
<path d="M184.02 78.6407L183.051 71.2898C180.42 76.6989 174.189 80.0276 167.127 80.0276C155.219 80.0276 147.881 71.9832 147.881 60.0554V22.8848H161.312V57.1427C161.312 63.6615 163.943 67.8224 171.004 67.8224C174.05 67.8224 176.266 66.5741 177.789 65.0484C180.974 61.9971 181.805 57.004 181.805 52.5658V22.8848H195.236V78.6407H184.02Z" stroke="black" stroke-width="2" mask="url(#path-2-outside-1_7393_121)"/>
<path d="M245.914 75.5896C242.452 78.3635 238.021 80.0278 232.344 80.0278C225.698 80.0278 220.298 77.67 217.805 74.6187V100H204.374V22.885H216.005L216.836 28.9876C220.159 23.8559 226.39 21.6367 232.483 21.6367C238.021 21.6367 242.591 23.5785 245.914 26.3524C252.56 31.7615 255.883 40.222 255.883 50.7629C255.745 61.5812 252.422 70.0417 245.914 75.5896ZM238.714 37.3094C236.775 34.8129 233.867 32.8711 229.713 32.8711C219.19 32.8711 217.113 42.8572 217.113 50.9016C217.113 58.946 219.19 68.7934 229.713 68.7934C233.867 68.7934 236.775 66.8517 238.714 64.3552C241.483 60.7491 242.314 55.6173 242.314 50.9016C242.175 46.0473 241.483 40.9155 238.714 37.3094Z" stroke="black" stroke-width="2" mask="url(#path-2-outside-1_7393_121)"/>
<path d="M302.961 75.5896C299.5 78.3635 295.069 80.0278 289.392 80.0278C282.745 80.0278 277.345 77.67 274.853 74.6187V100H261.422V22.885H273.053L273.884 28.9876C277.207 23.8559 283.438 21.6367 289.53 21.6367C295.069 21.6367 299.638 23.5785 302.961 26.3524C309.608 31.7615 312.931 40.222 312.931 50.7629C312.931 61.5812 309.608 70.0417 302.961 75.5896ZM295.761 37.3094C293.823 34.8129 290.915 32.8711 286.761 32.8711C276.238 32.8711 274.161 42.8572 274.161 50.9016C274.161 58.946 276.238 68.7934 286.761 68.7934C290.915 68.7934 293.823 66.8517 295.761 64.3552C298.531 60.7491 299.361 55.6173 299.361 50.9016C299.223 46.0473 298.531 40.9155 295.761 37.3094Z" stroke="black" stroke-width="2" mask="url(#path-2-outside-1_7393_121)"/>
<path d="M364.717 71.4287C360.84 76.1444 353.64 80.1665 345.193 80.1665C336.747 80.1665 329.547 76.1444 325.67 71.4287C321.516 66.1582 319.162 60.333 319.162 50.9016C319.162 41.4703 321.516 35.5063 325.67 30.3746C329.547 25.6589 336.747 21.6367 345.193 21.6367C353.64 21.6367 360.84 25.6589 364.717 30.3746C368.871 35.645 371.225 41.4703 371.225 50.9016C371.225 60.1943 368.871 66.1582 364.717 71.4287ZM353.64 36.7546C351.84 34.8129 348.793 33.1485 345.193 33.1485C341.593 33.1485 338.547 34.8129 336.747 36.7546C333.562 40.3607 332.731 45.4925 332.731 50.7629C332.731 56.0334 333.424 61.3039 336.747 64.7713C338.547 66.713 341.593 68.3774 345.193 68.3774C348.793 68.3774 351.84 66.713 353.64 64.7713C356.824 61.1652 357.655 56.0334 357.655 50.7629C357.655 45.4925 356.824 40.222 353.64 36.7546Z" stroke="black" stroke-width="2" mask="url(#path-2-outside-1_7393_121)"/>
<path d="M404.595 34.8128C395.179 34.8128 390.194 41.6089 390.194 50.6242V78.7795H376.763V22.8849H388.117L389.364 31.2067C391.994 24.8267 398.502 22.0527 405.149 22.0527C406.533 22.0527 407.918 22.1914 409.302 22.3301V35.2289C407.779 35.0902 406.118 34.8128 404.595 34.8128Z" stroke="black" stroke-width="2" mask="url(#path-2-outside-1_7393_121)"/>
<path d="M441.842 79.473C430.626 79.473 425.087 73.093 425.087 62.2746V33.9806H414.979V22.8849H425.087V8.73789L438.519 5.40918V22.8849H452.503V33.9806H438.519V61.0264C438.519 65.326 440.457 67.129 444.749 67.129C447.519 67.129 449.734 66.9903 453.473 66.5742V77.8086C449.596 78.9182 445.857 79.473 441.842 79.473Z" stroke="black" stroke-width="2" mask="url(#path-2-outside-1_7393_121)"/>
</svg>
