<?xml version="1.0" encoding="UTF-8"?>
<!DOCTYPE svg PUBLIC "-//W3C//DTD SVG 1.1//EN" "http://www.w3.org/Graphics/SVG/1.1/DTD/svg11.dtd">
<svg xmlns="http://www.w3.org/2000/svg" version="1.1" width="4000px" height="697px" style="shape-rendering:geometricPrecision; text-rendering:geometricPrecision; image-rendering:optimizeQuality; fill-rule:evenodd; clip-rule:evenodd" xmlns:xlink="http://www.w3.org/1999/xlink">
<g><path style="opacity:0.995" fill="#002E33" d="M 2840.5,-0.5 C 2880.5,-0.5 2920.5,-0.5 2960.5,-0.5C 2921.83,228.167 2883.17,456.833 2844.5,685.5C 2656.17,685.667 2467.83,685.5 2279.5,685C 2231.16,680.664 2206.16,654.33 2204.5,606C 2205.17,597.816 2206,589.649 2207,581.5C 2223.78,482.128 2240.78,382.795 2258,283.5C 2273.02,222.212 2312.19,190.712 2375.5,189C 2519.83,188.5 2664.17,188.333 2808.5,188.5C 2819.27,125.52 2829.94,62.5201 2840.5,-0.5 Z M 2373.5,306.5 C 2511.83,306.5 2650.17,306.5 2788.5,306.5C 2773.4,393.76 2758.73,481.094 2744.5,568.5C 2606.17,568.5 2467.83,568.5 2329.5,568.5C 2344.17,481.165 2358.83,393.832 2373.5,306.5 Z"/></g>
<g><path style="opacity:0.157" fill="#002E33" d="M 584.5,92.5 C 585.525,92.8966 585.692,93.5632 585,94.5C 584.536,93.9056 584.369,93.2389 584.5,92.5 Z"/></g>
<g><path style="opacity:0.997" fill="#002E33" d="M 3476.5,184.5 C 3644.83,184.5 3813.17,184.5 3981.5,184.5C 3974.83,223.833 3968.17,263.167 3961.5,302.5C 3803.17,302.5 3644.83,302.5 3486.5,302.5C 3472.09,390.797 3457.09,478.963 3441.5,567C 3599.83,567.333 3758.17,567.667 3916.5,568C 3909.35,607.053 3902.69,646.22 3896.5,685.5C 3728.17,685.667 3559.83,685.5 3391.5,685C 3336.45,678.608 3311.62,647.774 3317,592.5C 3334.38,484.268 3353.05,376.268 3373,268.5C 3389.14,217.86 3423.64,189.86 3476.5,184.5 Z"/></g>
<g><path style="opacity:0.991" fill="#002E33" d="M -0.5,191.5 C 45.8381,191.167 92.1715,191.5 138.5,192.5C 183.667,298.167 228.833,403.833 274,509.5C 355.217,403.951 436.05,298.118 516.5,192C 563.17,191.167 609.837,191.333 656.5,192.5C 650.519,199.648 644.353,206.648 638,213.5C 521.667,365.833 405.333,518.167 289,670.5C 278.983,683.06 266.483,691.726 251.5,696.5C 245.167,696.5 238.833,696.5 232.5,696.5C 218.735,692.241 209.235,683.241 204,669.5C 135.782,511.077 67.6153,352.744 -0.5,194.5C -0.5,193.5 -0.5,192.5 -0.5,191.5 Z"/></g>
<g><path style="opacity:0.992" fill="#002E33" d="M 825.5,192.5 C 979.5,192.333 1133.5,192.5 1287.5,193C 1335.64,197.139 1360.3,223.305 1361.5,271.5C 1355.74,316.379 1348.58,361.045 1340,405.5C 1325.49,463.522 1288.32,494.355 1228.5,498C 1149.83,498.667 1071.17,498.667 992.5,498C 999.648,458.947 1006.31,419.78 1012.5,380.5C 1083.17,380.833 1153.84,380.5 1224.5,379.5C 1228.93,356.246 1232.93,332.912 1236.5,309.5C 1103.17,309.5 969.833,309.5 836.5,309.5C 822.049,396.204 807.383,482.871 792.5,569.5C 863.836,569.167 935.17,569.5 1006.5,570.5C 999.51,609.442 992.843,648.442 986.5,687.5C 908.833,687.667 831.166,687.5 753.5,687C 687.917,683.74 660.083,649.573 670,584.5C 686.333,488.833 702.667,393.167 719,297.5C 729.017,236.314 764.517,201.314 825.5,192.5 Z"/></g>
<g><path style="opacity:0.991" fill="#002E33" d="M 3098.5,192.5 C 3137.17,192.5 3175.83,192.5 3214.5,192.5C 3187.55,357.524 3160.38,522.524 3133,687.5C 3094.39,689.49 3055.55,690.157 3016.5,689.5C 3043.51,523.771 3070.84,358.104 3098.5,192.5 Z"/></g>
<g><path style="opacity:0.994" fill="#002E33" d="M 1499.5,193.5 C 1688.17,193.333 1876.83,193.5 2065.5,194C 2119.98,201.369 2143.81,232.536 2137,287.5C 2114.61,420.195 2092.11,552.862 2069.5,685.5C 2029.83,685.5 1990.17,685.5 1950.5,685.5C 1971.14,560.184 1992.47,435.017 2014.5,310C 1876.17,309.167 1737.83,309.333 1599.5,310.5C 1577.63,435.403 1556.29,560.403 1535.5,685.5C 1495.49,685.833 1455.49,685.5 1415.5,684.5C 1443.82,520.893 1471.82,357.227 1499.5,193.5 Z"/></g>
</svg>
