<?xml version="1.0" encoding="utf-8"?><svg xmlns="http://www.w3.org/2000/svg" viewBox="0 0 113.4 22.4"><g><g><path fill="#333840" d="M8.9,1.6C8.3,1,7.2,0.4,6.4,0.4H0.7c-0.8,0-1,0.5-0.4,1.1l7.4,8.3L12,5.1L8.9,1.6z"/><path fill="#333840" d="M17.4,20.6c0.6,0.6,1.7,1.1,2.4,1.1h5.7c0.8,0,1-0.5,0.4-1.1l-7.4-8.3l-4.3,4.8L17.4,20.6z"/></g><path fill="#F2505B" d="M17.5,1.6c0.6-0.6,1.7-1.1,2.4-1.1h5.7c0.8,0,1,0.5,0.4,1.1l-17.1,19c-0.6,0.6-1.7,1.1-2.4,1.1H0.8c-0.8,0-1-0.5-0.4-1.1L17.5,1.6z"/><g><g><path fill="#333840" d="M48.6,4.6l-4.2,3.1c-1.2-1.5-2.9-2.4-5-2.3c-3.1,0-5.2,2.4-5.2,5.9s2.2,5.9,5.2,5.9c2.2,0,4-0.9,5.1-2.6l4.3,2.9c-1.8,3.1-5.3,4.8-9.7,4.8c-6.6,0-11.2-4.5-11.2-11.1C27.8,4.6,32.4,0,39.1,0C43.3,0,46.6,1.7,48.6,4.6z"/><path fill="#333840" d="M73.7,11.2c0,6.7-4.7,11.2-11.7,11.2s-11.8-4.5-11.8-11.2C50.2,4.5,55,0,62,0S73.7,4.5,73.7,11.2zM56.6,11.3c0,3.6,2.2,6,5.5,6c3.2,0,5.5-2.4,5.5-6s-2.2-6-5.5-6C58.7,5.3,56.6,7.7,56.6,11.3z"/><path fill="#333840" d="M83,4.2C84.5,1.5,87,0,90.3,0v5.9c-4.5-0.4-7.2,2-7.2,5.7v10.5h-6.3V0.2H83V4.2z"/><path fill="#333840" d="M113.3,13.1H97.6c0.7,2.8,2.9,4.4,5.7,4.4c2.1,0,4-0.8,5.5-2.3l3.3,3.3c-2.2,2.4-5.4,3.9-9.4,3.9c-7,0-11.4-4.5-11.4-11.1C91.3,4.5,95.9,0,102.6,0C110.3,0,113.9,5.1,113.3,13.1z M107.5,9.4c-0.1-2.9-2-4.8-4.8-4.8s-4.6,1.9-5.1,4.8H107.5z"/></g></g></g></svg>