<?xml version="1.0" encoding="utf-8"?>
<!-- Generator: Adobe Illustrator 26.1.0, SVG Export Plug-In . SVG Version: 6.00 Build 0)  -->
<svg version="1.1" id="Layer_1" xmlns="http://www.w3.org/2000/svg" xmlns:xlink="http://www.w3.org/1999/xlink" x="0px" y="0px"
	 width="394.7px" height="375.1px" viewBox="0 0 394.7 375.1" style="enable-background:new 0 0 394.7 375.1;" xml:space="preserve"
	>
<style type="text/css">
	.st0{fill:#878787;}
	.st1{fill:#82227A;}
	.st2{fill:#DADADA;}
	.st3{fill:#D2062F;}
	.st4{fill:#3C3C3B;}
	.st5{fill:#FFDC00;}
	.st6{fill:#76B72A;}
	.st7{fill:#F29100;}
	.st8{fill:#00AFDB;}
</style>
<g>
	<g>
		<path class="st0" d="M14.7,369.3c-2.1,0-3.9-0.7-5.2-2.1c-1.3-1.4-2-3.3-2-5.7V361c0-1.6,0.3-3,0.9-4.2s1.4-2.2,2.5-2.9
			s2.2-1,3.5-1c2.1,0,3.7,0.7,4.8,2s1.7,3.3,1.7,5.8v1.1H10.2c0,1.6,0.5,2.8,1.4,3.8s2,1.4,3.3,1.4c1,0,1.8-0.2,2.4-0.6
			s1.2-0.9,1.7-1.6l1.7,1.3C19.4,368.3,17.4,369.3,14.7,369.3z M14.4,355.1c-1.1,0-2,0.4-2.8,1.2c-0.7,0.8-1.2,1.9-1.4,3.3h7.9v-0.2
			c-0.1-1.4-0.4-2.4-1.1-3.2S15.5,355.1,14.4,355.1z"/>
		<path class="st0" d="M44.6,362.2c-0.3,2.3-1.1,4-2.5,5.2s-3.3,1.8-5.6,1.8c-2.5,0-4.5-0.9-6.1-2.7s-2.3-4.2-2.3-7.3v-2.1
			c0-2,0.4-3.7,1.1-5.2s1.7-2.7,3-3.5s2.8-1.2,4.5-1.2c2.3,0,4.1,0.6,5.4,1.9s2.2,3,2.4,5.3h-2.8c-0.2-1.7-0.8-2.9-1.6-3.7
			c-0.8-0.8-2-1.1-3.4-1.1c-1.8,0-3.2,0.7-4.2,2c-1,1.3-1.5,3.2-1.5,5.7v2.1c0,2.3,0.5,4.2,1.5,5.5c1,1.4,2.3,2.1,4.1,2.1
			c1.6,0,2.8-0.4,3.6-1.1c0.8-0.7,1.4-1.9,1.7-3.7H44.6z"/>
		<path class="st0" d="M51.8,360.9c0-1.6,0.3-2.9,0.9-4.2s1.5-2.2,2.5-2.9s2.3-1,3.7-1c2.2,0,3.9,0.7,5.2,2.2c1.3,1.5,2,3.5,2,6v0.2
			c0,1.5-0.3,2.9-0.9,4.2s-1.4,2.2-2.5,2.9c-1.1,0.7-2.4,1-3.8,1c-2.1,0-3.9-0.7-5.2-2.2c-1.3-1.5-2-3.5-2-5.9V360.9z M54.5,361.2
			c0,1.8,0.4,3.2,1.2,4.2s1.9,1.6,3.3,1.6c1.4,0,2.5-0.5,3.3-1.6s1.2-2.6,1.2-4.5c0-1.7-0.4-3.1-1.2-4.2s-1.9-1.6-3.3-1.6
			c-1.3,0-2.4,0.5-3.2,1.6S54.5,359.3,54.5,361.2z"/>
		<path class="st0" d="M76.7,353.1l0.1,1.8c1.2-1.4,2.7-2.1,4.7-2.1c2.2,0,3.7,0.8,4.5,2.5c0.5-0.8,1.2-1.4,2.1-1.8s1.8-0.7,3-0.7
			c3.5,0,5.2,1.8,5.3,5.5V369h-2.7v-10.5c0-1.1-0.3-2-0.8-2.5s-1.4-0.8-2.6-0.8c-1,0-1.8,0.3-2.5,0.9s-1,1.4-1.2,2.4V369h-2.7v-10.4
			c0-2.3-1.1-3.5-3.4-3.5c-1.8,0-3,0.8-3.6,2.3V369h-2.7v-15.8H76.7z"/>
		<path class="st0" d="M107.4,353.1l0.1,1.8c1.2-1.4,2.7-2.1,4.7-2.1c2.2,0,3.7,0.8,4.5,2.5c0.5-0.8,1.2-1.4,2.1-1.8s1.8-0.7,3-0.7
			c3.5,0,5.2,1.8,5.3,5.5V369h-2.7v-10.5c0-1.1-0.3-2-0.8-2.5s-1.4-0.8-2.6-0.8c-1,0-1.8,0.3-2.5,0.9s-1,1.4-1.2,2.4V369h-2.7v-10.4
			c0-2.3-1.1-3.5-3.4-3.5c-1.8,0-3,0.8-3.6,2.3V369h-2.7v-15.8H107.4z"/>
		<path class="st0" d="M142.3,369.3c-2.1,0-3.9-0.7-5.2-2.1c-1.3-1.4-2-3.3-2-5.7V361c0-1.6,0.3-3,0.9-4.2s1.4-2.2,2.5-2.9
			s2.2-1,3.5-1c2.1,0,3.7,0.7,4.8,2s1.7,3.3,1.7,5.8v1.1h-10.7c0,1.6,0.5,2.8,1.4,3.8s2,1.4,3.3,1.4c1,0,1.8-0.2,2.4-0.6
			s1.2-0.9,1.7-1.6l1.7,1.3C146.9,368.3,144.9,369.3,142.3,369.3z M141.9,355.1c-1.1,0-2,0.4-2.8,1.2c-0.7,0.8-1.2,1.9-1.4,3.3h7.9
			v-0.2c-0.1-1.4-0.4-2.4-1.1-3.2S143,355.1,141.9,355.1z"/>
		<path class="st0" d="M163.7,355.6c-0.4-0.1-0.9-0.1-1.3-0.1c-1.8,0-3,0.8-3.6,2.3V369h-2.7v-15.8h2.6l0,1.8
			c0.9-1.4,2.1-2.1,3.8-2.1c0.5,0,0.9,0.1,1.2,0.2V355.6z"/>
		<path class="st0" d="M176.8,367.1c1,0,1.8-0.3,2.5-0.9s1.1-1.3,1.2-2.2h2.6c0,0.9-0.4,1.8-0.9,2.6s-1.3,1.5-2.3,2
			c-1,0.5-2,0.7-3.1,0.7c-2.2,0-3.9-0.7-5.1-2.2c-1.3-1.4-1.9-3.4-1.9-5.9v-0.5c0-1.5,0.3-2.9,0.8-4.1c0.6-1.2,1.4-2.1,2.4-2.8
			s2.3-1,3.8-1c1.8,0,3.3,0.5,4.4,1.6s1.8,2.4,1.9,4.1h-2.6c-0.1-1-0.5-1.9-1.2-2.5c-0.7-0.7-1.6-1-2.6-1c-1.4,0-2.4,0.5-3.2,1.5
			s-1.1,2.4-1.1,4.3v0.5c0,1.8,0.4,3.2,1.1,4.2S175.4,367.1,176.8,367.1z"/>
		<path class="st0" d="M197.2,369.3c-2.1,0-3.9-0.7-5.2-2.1c-1.3-1.4-2-3.3-2-5.7V361c0-1.6,0.3-3,0.9-4.2s1.4-2.2,2.5-2.9
			s2.2-1,3.5-1c2.1,0,3.7,0.7,4.8,2s1.7,3.3,1.7,5.8v1.1h-10.7c0,1.6,0.5,2.8,1.4,3.8s2,1.4,3.3,1.4c1,0,1.8-0.2,2.4-0.6
			s1.2-0.9,1.7-1.6l1.7,1.3C201.8,368.3,199.8,369.3,197.2,369.3z M196.9,355.1c-1.1,0-2,0.4-2.8,1.2c-0.7,0.8-1.2,1.9-1.4,3.3h7.9
			v-0.2c-0.1-1.4-0.4-2.4-1.1-3.2S198,355.1,196.9,355.1z"/>
		<path class="st0" d="M232.1,364.8c0-0.7-0.3-1.3-0.8-1.7c-0.6-0.4-1.5-0.8-2.9-1s-2.5-0.6-3.3-1.1c-0.8-0.4-1.4-0.9-1.8-1.5
			s-0.6-1.2-0.6-2c0-1.3,0.5-2.4,1.6-3.3c1.1-0.9,2.5-1.3,4.2-1.3c1.8,0,3.3,0.5,4.4,1.4s1.7,2.1,1.7,3.6H232c0-0.7-0.3-1.4-0.9-1.9
			s-1.4-0.8-2.4-0.8c-1,0-1.8,0.2-2.3,0.6s-0.8,1-0.8,1.7c0,0.7,0.3,1.1,0.8,1.5s1.5,0.6,2.8,1s2.4,0.7,3.3,1.1
			c0.8,0.4,1.5,0.9,1.9,1.5c0.4,0.6,0.6,1.3,0.6,2.2c0,1.4-0.6,2.6-1.7,3.4s-2.6,1.3-4.4,1.3c-1.3,0-2.4-0.2-3.4-0.7
			s-1.7-1.1-2.3-1.9c-0.6-0.8-0.8-1.7-0.8-2.6h2.7c0,0.9,0.4,1.6,1.1,2.2s1.6,0.8,2.7,0.8c1,0,1.8-0.2,2.5-0.6
			S232.1,365.5,232.1,364.8z"/>
		<path class="st0" d="M256.3,361.2c0,2.4-0.6,4.4-1.7,5.8s-2.6,2.2-4.5,2.2c-1.9,0-3.4-0.6-4.5-1.8v7.6h-2.7v-21.9h2.5l0.1,1.8
			c1.1-1.4,2.6-2.1,4.6-2.1c1.9,0,3.4,0.7,4.5,2.2c1.1,1.4,1.7,3.4,1.7,6V361.2z M253.5,360.9c0-1.8-0.4-3.2-1.1-4.2
			c-0.8-1-1.8-1.6-3.1-1.6c-1.6,0-2.9,0.7-3.7,2.2v7.6c0.8,1.4,2,2.2,3.7,2.2c1.3,0,2.3-0.5,3.1-1.5
			C253.2,364.5,253.5,363,253.5,360.9z"/>
		<path class="st0" d="M270.8,369.3c-2.1,0-3.9-0.7-5.2-2.1c-1.3-1.4-2-3.3-2-5.7V361c0-1.6,0.3-3,0.9-4.2s1.4-2.2,2.5-2.9
			s2.2-1,3.5-1c2.1,0,3.7,0.7,4.8,2s1.7,3.3,1.7,5.8v1.1h-10.7c0,1.6,0.5,2.8,1.4,3.8s2,1.4,3.3,1.4c1,0,1.8-0.2,2.4-0.6
			s1.2-0.9,1.7-1.6l1.7,1.3C275.4,368.3,273.4,369.3,270.8,369.3z M270.4,355.1c-1.1,0-2,0.4-2.8,1.2c-0.7,0.8-1.2,1.9-1.4,3.3h7.9
			v-0.2c-0.1-1.4-0.4-2.4-1.1-3.2S271.6,355.1,270.4,355.1z"/>
		<path class="st0" d="M290.9,367.1c1,0,1.8-0.3,2.5-0.9s1.1-1.3,1.2-2.2h2.6c0,0.9-0.4,1.8-0.9,2.6s-1.3,1.5-2.3,2
			c-1,0.5-2,0.7-3.1,0.7c-2.2,0-3.9-0.7-5.1-2.2c-1.3-1.4-1.9-3.4-1.9-5.9v-0.5c0-1.5,0.3-2.9,0.8-4.1c0.6-1.2,1.4-2.1,2.4-2.8
			s2.3-1,3.8-1c1.8,0,3.3,0.5,4.4,1.6s1.8,2.4,1.9,4.1h-2.6c-0.1-1-0.5-1.9-1.2-2.5c-0.7-0.7-1.6-1-2.6-1c-1.4,0-2.4,0.5-3.2,1.5
			s-1.1,2.4-1.1,4.3v0.5c0,1.8,0.4,3.2,1.1,4.2S289.5,367.1,290.9,367.1z"/>
		<path class="st0" d="M304.8,348.9c0-0.4,0.1-0.8,0.4-1.1s0.7-0.5,1.2-0.5c0.5,0,0.9,0.2,1.2,0.5c0.3,0.3,0.4,0.7,0.4,1.1
			s-0.1,0.8-0.4,1.1c-0.3,0.3-0.7,0.4-1.2,0.4c-0.5,0-0.9-0.1-1.2-0.4S304.8,349.4,304.8,348.9z M307.7,369H305v-15.8h2.7V369z"/>
		<path class="st0" d="M326.3,369c-0.2-0.3-0.3-0.9-0.4-1.7c-1.3,1.3-2.8,2-4.5,2c-1.6,0-2.8-0.4-3.8-1.3s-1.5-2-1.5-3.4
			c0-1.7,0.6-2.9,1.9-3.8c1.3-0.9,3-1.4,5.3-1.4h2.6v-1.2c0-0.9-0.3-1.7-0.8-2.3c-0.6-0.6-1.4-0.8-2.5-0.8c-1,0-1.8,0.2-2.4,0.7
			c-0.7,0.5-1,1.1-1,1.8h-2.7c0-0.8,0.3-1.6,0.8-2.3s1.3-1.3,2.3-1.8s2-0.6,3.2-0.6c1.8,0,3.3,0.5,4.3,1.4s1.6,2.2,1.6,3.8v7.3
			c0,1.5,0.2,2.6,0.6,3.5v0.2H326.3z M321.8,366.9c0.8,0,1.7-0.2,2.4-0.7c0.8-0.4,1.3-1,1.7-1.7v-3.3h-2.1c-3.3,0-5,1-5,2.9
			c0,0.8,0.3,1.5,0.8,2S320.9,366.9,321.8,366.9z"/>
		<path class="st0" d="M340.3,369h-2.7v-22.5h2.7V369z"/>
		<path class="st0" d="M349.1,348.9c0-0.4,0.1-0.8,0.4-1.1s0.7-0.5,1.2-0.5c0.5,0,0.9,0.2,1.2,0.5c0.3,0.3,0.4,0.7,0.4,1.1
			s-0.1,0.8-0.4,1.1c-0.3,0.3-0.7,0.4-1.2,0.4c-0.5,0-0.9-0.1-1.2-0.4S349.1,349.4,349.1,348.9z M352.1,369h-2.7v-15.8h2.7V369z"/>
		<path class="st0" d="M370.1,364.8c0-0.7-0.3-1.3-0.8-1.7c-0.6-0.4-1.5-0.8-2.9-1s-2.5-0.6-3.3-1.1c-0.8-0.4-1.4-0.9-1.8-1.5
			s-0.6-1.2-0.6-2c0-1.3,0.5-2.4,1.6-3.3c1.1-0.9,2.5-1.3,4.2-1.3c1.8,0,3.3,0.5,4.4,1.4s1.7,2.1,1.7,3.6H370c0-0.7-0.3-1.4-0.9-1.9
			s-1.4-0.8-2.4-0.8c-1,0-1.8,0.2-2.3,0.6s-0.8,1-0.8,1.7c0,0.7,0.3,1.1,0.8,1.5s1.5,0.6,2.8,1s2.4,0.7,3.3,1.1
			c0.8,0.4,1.5,0.9,1.9,1.5c0.4,0.6,0.6,1.3,0.6,2.2c0,1.4-0.6,2.6-1.7,3.4s-2.6,1.3-4.4,1.3c-1.3,0-2.4-0.2-3.4-0.7
			s-1.7-1.1-2.3-1.9c-0.6-0.8-0.8-1.7-0.8-2.6h2.7c0,0.9,0.4,1.6,1.1,2.2s1.6,0.8,2.7,0.8c1,0,1.8-0.2,2.5-0.6
			S370.1,365.5,370.1,364.8z"/>
		<path class="st0" d="M384.5,349.3v3.8h3v2.1h-3v9.8c0,0.6,0.1,1.1,0.4,1.4s0.7,0.5,1.3,0.5c0.3,0,0.7-0.1,1.3-0.2v2.2
			c-0.7,0.2-1.4,0.3-2.1,0.3c-1.2,0-2.1-0.4-2.7-1.1c-0.6-0.7-0.9-1.8-0.9-3.1v-9.8h-2.9v-2.1h2.9v-3.8H384.5z"/>
	</g>
	<g>
		<path class="st1" d="M0,244.1h10.6l17.2,28.3l17.1-28.3h10.6l-23,38v32.2h-9.6v-32.1L0,244.1z"/>
		<path class="st1" d="M59,278.8c0-10.1,3.8-18.8,11.5-26c7.6-7.2,16.8-10.8,27.5-10.8c10.5,0,19.5,3.6,27.1,10.9
			c7.6,7.3,11.3,15.9,11.3,26c0,10.6-3.7,19.6-11.2,26.9c-7.5,7.3-16.6,11-27.5,11c-10.7,0-19.9-3.7-27.4-11.1
			C62.8,298.2,59,289.3,59,278.8z M126.2,279.2c0-7.7-2.8-14.3-8.4-19.6c-5.6-5.3-12.5-8-20.6-8c-7.7,0-14.4,2.7-19.9,8.1
			c-5.5,5.4-8.3,11.9-8.3,19.4c0,7.7,2.8,14.2,8.5,19.5c5.7,5.3,12.6,8,20.9,8c7.6,0,14.1-2.7,19.6-8.1
			C123.5,293.1,126.2,286.7,126.2,279.2z"/>
		<path class="st1" d="M148.6,244.2h9.6v43.1c0,6.4,1.5,11.3,4.6,14.8c3.1,3.5,7.4,5.2,13,5.2c5.6,0,9.9-1.6,13-4.8
			c3.1-3.2,4.7-7.7,4.7-13.6v-44.8l9.6,15.8v28.3c0,8.6-2.5,15.5-7.4,20.6c-4.9,5.1-11.4,7.7-19.6,7.7c-8.3,0-15-2.6-20-7.8
			c-5-5.2-7.5-12.9-7.5-23.1V244.2z"/>
		<path class="st1" d="M193.4,241.3l51.9,53.3v-50.5h9.6v73.4L203,264.4v19.2h-9.3L193.4,241.3z"/>
		<path class="st1" d="M269,244.1h9.5v70.2H269V244.1z"/>
		<path class="st1" d="M293.1,244.1H332v9.6h-29.4v17.5H332v9.5h-29.3v33.6h-9.6V244.1z"/>
		<path class="st1" d="M339.1,244.1h10.6l17.2,28.3l17.1-28.3h10.6l-23,38v32.2h-9.6v-32.1L339.1,244.1z"/>
	</g>
	<g>
		<g>
			<circle id="XMLID_125_" class="st2" cx="197.4" cy="60" r="15"/>
			<circle id="XMLID_124_" class="st2" cx="197.5" cy="15" r="15"/>
			<circle id="XMLID_123_" class="st3" cx="197.2" cy="150" r="15"/>
			<circle id="XMLID_122_" class="st4" cx="197.1" cy="195" r="15"/>
			<circle id="XMLID_121_" class="st5" cx="236.4" cy="82" r="15"/>
			<circle id="XMLID_120_" class="st6" cx="275.4" cy="59.6" r="15"/>
			<circle id="XMLID_119_" class="st2" cx="158.3" cy="126.8" r="15"/>
			<circle id="XMLID_118_" class="st2" cx="119.3" cy="149.2" r="15"/>
			<circle id="XMLID_117_" class="st2" cx="236.3" cy="127.6" r="15"/>
			<circle id="XMLID_116_" class="st2" cx="275.2" cy="150.2" r="15"/>
			<circle id="XMLID_115_" class="st7" cx="158.4" cy="82.4" r="15"/>
			<circle id="XMLID_114_" class="st8" cx="119.5" cy="59.8" r="15"/>
			<circle id="XMLID_113_" class="st2" cx="152.5" cy="27" r="15"/>
			<circle id="XMLID_112_" class="st2" cx="242.2" cy="183" r="15"/>
			<circle id="XMLID_111_" class="st2" cx="242.5" cy="26.5" r="15"/>
			<circle id="XMLID_110_" class="st2" cx="152.2" cy="182.2" r="15"/>
			<circle id="XMLID_109_" class="st2" cx="287.3" cy="105.2" r="15"/>
			<circle id="XMLID_108_" class="st2" cx="107.3" cy="104.8" r="15"/>
		</g>
		<circle id="XMLID_107_" class="st1" cx="197.3" cy="104.4" r="15"/>
	</g>
</g>
</svg>
