<svg width="200" height="90" viewBox="0 0 200 90" fill="none" xmlns="http://www.w3.org/2000/svg">
<path d="M184.286 35.6636V71.3364L153.581 89.1636L122.857 71.3364L92.152 89.1636L61.4286 71.3364L30.7234 89.1636L0 71.3364V35.6636L61.4286 0L92.152 17.8364L122.866 0L184.286 35.6636Z" fill="#F37121"/>
<path d="M61.4285 35.6636V71.3364L30.7234 89.1636L30.7142 53.5L61.4285 35.6636Z" fill="#FF9234"/>
<path d="M122.857 35.6636V71.3364L92.152 89.1636V53.5L122.857 35.6636Z" fill="#FF9234"/>
<path d="M184.286 35.6636V71.3364L153.581 89.1636L153.572 53.5L184.286 35.6636Z" fill="#FF9234"/>
<g clip-path="url(#clip0_773_1136)">
<path d="M182 89C191.941 89 200 80.9411 200 71C200 61.0589 191.941 53 182 53C172.059 53 164 61.0589 164 71C164 80.9411 172.059 89 182 89Z" fill="#F0F0F0"/>
<path d="M182 53C174.261 53 167.663 57.8848 165.12 64.7392H198.881C196.337 57.8848 189.739 53 182 53V53Z" fill="#A2001D"/>
<path d="M182 89C189.739 89 196.337 84.1153 198.88 77.2609H165.12C167.663 84.1153 174.261 89 182 89Z" fill="#0052B4"/>
</g>
<defs>
<clipPath id="clip0_773_1136">
<rect width="36" height="36" fill="white" transform="translate(164 53)"/>
</clipPath>
</defs>
</svg>
